<?xml version="1.0" encoding="UTF-8"?>
<svg xmlns="http://www.w3.org/2000/svg" xmlns:xlink="http://www.w3.org/1999/xlink" width="16" height="16" viewBox="0 0 16 16">
<path fill-rule="nonzero" fill="rgb(98.431373%, 94.509804%, 78.039217%)" fill-opacity="1" d="M 3 1.441406 C 0.996094 1.441406 0.996094 3.441406 0.996094 3.441406 L 0.996094 13.4375 C 0.996094 15.441406 3 15.441406 3 15.441406 L 13 15.441406 C 13 15.441406 14.996094 15.441406 14.996094 13.4375 L 14.996094 3.441406 C 14.996094 1.441406 12.996094 1.441406 12.996094 1.441406 Z M 3 3.441406 L 10.996094 3.441406 L 10.996094 4.445312 L 3 4.445312 Z M 3 6.441406 L 11.996094 6.441406 L 11.996094 7.445312 L 3 7.445312 Z M 3 9.445312 L 8.992188 9.445312 L 8.992188 10.445312 L 3 10.445312 Z M 3 12.445312 L 11.996094 12.445312 L 11.996094 13.441406 L 3 13.441406 Z M 3 12.445312 "/>
</svg>
