<?xml version="1.0" encoding="UTF-8"?>
<svg xmlns="http://www.w3.org/2000/svg" xmlns:xlink="http://www.w3.org/1999/xlink" width="16" height="16" viewBox="0 0 16 16">
<path fill-rule="nonzero" fill="rgb(98.431373%, 94.509804%, 78.039217%)" fill-opacity="1" d="M 3.25 3.445312 L 6.75 3.445312 C 6.886719 3.445312 6.996094 3.558594 6.996094 3.695312 L 6.996094 7.195312 C 6.996094 7.332031 6.886719 7.445312 6.75 7.445312 L 3.25 7.445312 C 3.113281 7.445312 3 7.332031 3 7.195312 L 3 3.695312 C 3 3.558594 3.113281 3.445312 3.25 3.445312 Z M 3.25 3.445312 "/>
<path fill-rule="nonzero" fill="rgb(98.431373%, 94.509804%, 78.039217%)" fill-opacity="1" d="M 9.246094 3.445312 L 12.746094 3.445312 C 12.882812 3.445312 12.996094 3.558594 12.996094 3.695312 L 12.996094 7.195312 C 12.996094 7.332031 12.882812 7.445312 12.746094 7.445312 L 9.246094 7.445312 C 9.109375 7.445312 8.996094 7.332031 8.996094 7.195312 L 8.996094 3.695312 C 8.996094 3.558594 9.109375 3.445312 9.246094 3.445312 Z M 9.246094 3.445312 "/>
<path fill-rule="nonzero" fill="rgb(98.431373%, 94.509804%, 78.039217%)" fill-opacity="1" d="M 3.25 9.445312 L 6.75 9.445312 C 6.886719 9.445312 6.996094 9.558594 6.996094 9.695312 L 6.996094 13.195312 C 6.996094 13.332031 6.886719 13.445312 6.75 13.445312 L 3.25 13.445312 C 3.113281 13.445312 3 13.332031 3 13.195312 L 3 9.695312 C 3 9.558594 3.113281 9.445312 3.25 9.445312 Z M 3.25 9.445312 "/>
<path fill-rule="nonzero" fill="rgb(98.431373%, 94.509804%, 78.039217%)" fill-opacity="1" d="M 9.246094 9.445312 L 12.746094 9.445312 C 12.882812 9.445312 12.996094 9.558594 12.996094 9.695312 L 12.996094 13.195312 C 12.996094 13.332031 12.882812 13.445312 12.746094 13.445312 L 9.246094 13.445312 C 9.109375 13.445312 8.996094 13.332031 8.996094 13.195312 L 8.996094 9.695312 C 8.996094 9.558594 9.109375 9.445312 9.246094 9.445312 Z M 9.246094 9.445312 "/>
</svg>
