<?xml version="1.0" encoding="UTF-8"?>
<svg xmlns="http://www.w3.org/2000/svg" xmlns:xlink="http://www.w3.org/1999/xlink" width="16" height="16" viewBox="0 0 16 16">
<path fill-rule="nonzero" fill="rgb(28.235295%, 72.549021%, 78.039217%)" fill-opacity="1" d="M 3 1 C 1.894531 1 1 1.894531 1 3 L 1 12 C 1 13.105469 1.894531 14 3 14 L 13 14 C 14.105469 14 15 13.105469 15 12 L 15 5 C 15 3.894531 14.105469 3 13 3 L 9 3 L 7 1 Z M 9.59375 7 C 10.902344 7 12.082031 7.46875 13.0625 8.1875 L 10.5 11 C 10.042969 11.5 9.140625 11.507812 8.675781 11 L 6.125 8.21875 C 7.109375 7.492188 8.273438 7 9.59375 7 Z M 9.59375 7 "/>
<path fill="none" stroke-width="1" stroke-linecap="round" stroke-linejoin="miter" stroke="rgb(0%, 0%, 0%)" stroke-opacity="0.392157" stroke-miterlimit="4" d="M 52 -2312.5 L 55.792969 -2312.5 L 57.792969 -2310.5 L 62 -2310.5 C 62.832031 -2310.5 63.5 -2309.832031 63.5 -2309 L 63.5 -2302 C 63.5 -2301.167969 62.832031 -2300.5 62 -2300.5 L 52 -2300.5 C 51.167969 -2300.5 50.5 -2301.167969 50.5 -2302 L 50.5 -2311 C 50.5 -2311.832031 51.167969 -2312.5 52 -2312.5 Z M 52 -2312.5 " transform="matrix(1, 0, 0, 1, -49, 2314)"/>
<path fill-rule="nonzero" fill="rgb(20%, 18.82353%, 18.431373%)" fill-opacity="1" d="M 9.503906 6.070312 C 8 6.066406 6.5625 6.664062 5.503906 7.726562 L 8.773438 11.691406 L 8.777344 11.691406 C 8.964844 11.890625 9.226562 12 9.5 12 C 9.773438 12 10.035156 11.890625 10.222656 11.691406 L 10.226562 11.691406 L 13.503906 7.730469 C 12.441406 6.667969 11.003906 6.070312 9.503906 6.074219 Z M 9.503906 6.070312 "/>
</svg>
