<?xml version="1.0" encoding="UTF-8"?>
<svg xmlns="http://www.w3.org/2000/svg" xmlns:xlink="http://www.w3.org/1999/xlink" width="16" height="16" viewBox="0 0 16 16">
<path fill-rule="nonzero" fill="rgb(98.431373%, 94.509804%, 78.039217%)" fill-opacity="1" d="M 3.996094 8.441406 C 2.382812 8.5 1.105469 9.824219 1.105469 11.441406 C 1.105469 13.054688 2.382812 14.382812 3.996094 14.4375 C 5.542969 14.433594 6.828125 13.253906 6.96875 11.71875 C 7.601562 11.339844 8.394531 11.339844 9.03125 11.71875 C 9.207031 13.285156 10.570312 14.449219 12.144531 14.375 C 13.722656 14.300781 14.96875 13.015625 14.996094 11.4375 C 14.996094 9.78125 13.652344 8.441406 11.996094 8.441406 C 10.640625 8.453125 9.460938 9.375 9.125 10.691406 C 8.769531 10.535156 8.386719 10.449219 8 10.441406 C 7.609375 10.449219 7.226562 10.535156 6.875 10.691406 C 6.539062 9.375 5.359375 8.453125 4 8.441406 Z M 3.996094 9.6875 C 4.964844 9.6875 5.746094 10.472656 5.746094 11.4375 C 5.746094 12.40625 4.964844 13.1875 3.996094 13.1875 C 3.03125 13.1875 2.25 12.40625 2.25 11.4375 C 2.25 10.472656 3.03125 9.6875 3.996094 9.6875 Z M 11.996094 9.6875 C 12.964844 9.6875 13.746094 10.472656 13.746094 11.4375 C 13.746094 12.40625 12.964844 13.1875 11.996094 13.1875 C 11.03125 13.1875 10.246094 12.40625 10.246094 11.4375 C 10.246094 10.472656 11.03125 9.6875 11.996094 9.6875 Z M 3.996094 1.445312 L 3.25 4.441406 L 12.746094 4.441406 L 11.996094 1.445312 L 8 1.941406 Z M 3 5.441406 L 0 7.445312 L 15.996094 7.445312 L 13 5.441406 Z M 3 5.441406 "/>
</svg>
