<?xml version="1.0" encoding="UTF-8"?>
<svg xmlns="http://www.w3.org/2000/svg" xmlns:xlink="http://www.w3.org/1999/xlink" width="16" height="16" viewBox="0 0 16 16">
<path fill-rule="nonzero" fill="rgb(98.431373%, 94.509804%, 78.039217%)" fill-opacity="1" d="M 6.996094 1.445312 C 5.890625 1.445312 4.996094 2.339844 4.996094 3.445312 L 4.996094 9.632812 C 4.675781 9.511719 4.339844 9.449219 3.996094 9.445312 C 2.339844 9.445312 0.996094 10.785156 0.996094 12.445312 C 0.996094 14.101562 2.339844 15.445312 3.996094 15.445312 C 5.65625 15.445312 6.996094 14.101562 6.996094 12.445312 L 6.996094 5.445312 L 12.996094 5.445312 L 12.996094 9.632812 C 12.675781 9.511719 12.339844 9.449219 11.996094 9.445312 C 10.339844 9.445312 8.996094 10.785156 8.996094 12.445312 C 8.996094 14.101562 10.339844 15.445312 11.996094 15.445312 C 13.652344 15.445312 14.996094 14.101562 14.996094 12.445312 L 14.996094 3.445312 C 14.996094 2.339844 14.101562 1.445312 12.996094 1.445312 Z M 6.996094 1.445312 "/>
</svg>
