<?xml version="1.0" encoding="UTF-8"?>
<svg xmlns="http://www.w3.org/2000/svg" xmlns:xlink="http://www.w3.org/1999/xlink" width="16" height="16" viewBox="0 0 16 16">
<path fill-rule="nonzero" fill="rgb(98.431373%, 94.509804%, 78.039217%)" fill-opacity="1" d="M 7 6.4375 C 7 8.097656 5.660156 9.441406 4 9.441406 C 2.34375 9.441406 1 8.097656 1 6.4375 C 1 4.78125 2.34375 3.4375 4 3.4375 C 5.660156 3.4375 7 4.78125 7 6.4375 Z M 7 6.4375 "/>
<path fill-rule="nonzero" fill="rgb(98.431373%, 94.509804%, 78.039217%)" fill-opacity="1" d="M 14 6.4375 C 14 8.097656 12.65625 9.441406 11 9.441406 C 9.34375 9.441406 8 8.097656 8 6.4375 C 8 4.78125 9.34375 3.4375 11 3.4375 C 12.65625 3.4375 14 4.78125 14 6.4375 Z M 14 6.4375 "/>
<path fill-rule="nonzero" fill="rgb(98.431373%, 94.509804%, 78.039217%)" fill-opacity="1" d="M 11.996094 10.441406 L 14.996094 8.4375 L 14.996094 14.4375 L 11.996094 12.441406 Z M 11.996094 10.441406 "/>
<path fill-rule="nonzero" fill="rgb(98.431373%, 94.509804%, 78.039217%)" fill-opacity="1" d="M 3 8.441406 L 10 8.441406 C 11.101562 8.441406 11.996094 9.335938 11.996094 10.441406 L 11.996094 12.441406 C 11.996094 13.542969 11.101562 14.4375 10 14.4375 L 3 14.4375 C 1.894531 14.4375 1 13.542969 1 12.441406 L 1 10.441406 C 1 9.335938 1.894531 8.441406 3 8.441406 Z M 3 8.441406 "/>
</svg>
