<?xml version="1.0" encoding="UTF-8"?>
<svg xmlns="http://www.w3.org/2000/svg" xmlns:xlink="http://www.w3.org/1999/xlink" width="16" height="16" viewBox="0 0 16 16">
<path fill-rule="nonzero" fill="rgb(98.431373%, 94.509804%, 78.039217%)" fill-opacity="1" d="M 3 1.445312 C 1.894531 1.445312 1 2.339844 0.996094 3.441406 L 0.996094 12.441406 C 0.996094 13.542969 1.894531 14.441406 3 14.441406 L 13 14.441406 C 14.101562 14.441406 14.996094 13.542969 14.996094 12.441406 L 14.996094 5.441406 C 14.996094 4.335938 14.101562 3.4375 12.996094 3.4375 L 9 3.4375 L 6.996094 1.449219 Z M 10.496094 6.441406 C 11.050781 6.414062 11.574219 6.695312 11.859375 7.167969 C 12.144531 7.644531 12.144531 8.238281 11.859375 8.714844 C 11.574219 9.1875 11.050781 9.46875 10.496094 9.441406 C 9.699219 9.398438 9.070312 8.742188 9.070312 7.941406 C 9.070312 7.140625 9.699219 6.484375 10.496094 6.441406 Z M 10.496094 10.441406 C 13 10.441406 13 11.941406 13 11.941406 L 13 12.441406 L 8 12.441406 L 8 11.941406 C 8 11.941406 8 10.441406 10.496094 10.441406 Z M 10.496094 10.441406 "/>
</svg>
