<?xml version="1.0" encoding="UTF-8"?>
<svg xmlns="http://www.w3.org/2000/svg" xmlns:xlink="http://www.w3.org/1999/xlink" width="16" height="16" viewBox="0 0 16 16">
<path fill-rule="nonzero" fill="rgb(98.431373%, 94.509804%, 78.039217%)" fill-opacity="1" d="M 0 12.441406 C 0.0078125 12.175781 0.117188 11.925781 0.300781 11.738281 L 2.46875 9.621094 C 2.699219 9.375 3.253906 9.328125 3.476562 9.460938 C 3.558594 9.460938 4.609375 10.09375 4.765625 10.332031 C 5.378906 11.277344 4.425781 12.15625 3.59375 11.875 L 3.242188 11.664062 L 1.640625 13.238281 C 1.003906 13.765625 -0.0507812 13.332031 0.00390625 12.445312 Z M 11.617188 0.558594 C 12 0.46875 12.394531 0.441406 12.785156 0.480469 L 11.425781 2.785156 C 11.292969 3.011719 11.253906 3.28125 11.320312 3.535156 C 11.386719 3.789062 11.554688 4.003906 11.78125 4.132812 L 12.65625 4.640625 C 12.882812 4.777344 13.152344 4.8125 13.40625 4.75 C 13.664062 4.683594 13.882812 4.515625 14.015625 4.289062 L 15.371094 1.984375 C 15.59375 2.304688 15.761719 2.65625 15.871094 3.03125 C 16.101562 3.921875 15.96875 4.871094 15.5 5.664062 C 15.035156 6.457031 14.269531 7.035156 13.375 7.261719 C 12.992188 7.355469 12.597656 7.382812 12.203125 7.347656 L 11.398438 8.460938 L 7.992188 8.4375 C 7.992188 8.4375 9.511719 5.859375 9.617188 5.84375 C 9.390625 5.523438 9.222656 5.164062 9.117188 4.789062 C 8.886719 3.894531 9.019531 2.949219 9.488281 2.15625 C 9.953125 1.359375 10.71875 0.785156 11.613281 0.554688 Z M 3.597656 1.160156 C 3.375 1.214844 3.15625 1.285156 2.949219 1.378906 C 2.925781 2.003906 3.03125 2.824219 2.789062 3.035156 C 2.546875 3.246094 1.75 3.074219 1.132812 3.003906 C 1 3.242188 0.894531 3.492188 0.820312 3.753906 C 1.300781 4.148438 1.960938 4.589844 1.976562 4.910156 C 1.992188 5.230469 1.347656 5.714844 0.917969 6.160156 C 1.015625 6.417969 1.164062 6.652344 1.320312 6.878906 C 1.925781 6.753906 2.683594 6.503906 2.945312 6.6875 C 3.207031 6.878906 3.207031 7.699219 3.285156 8.3125 C 3.535156 8.390625 3.796875 8.417969 4.066406 8.441406 C 4.34375 7.886719 4.632812 7.121094 4.9375 7.035156 C 5.257812 6.945312 5.902344 7.488281 6.433594 7.816406 C 6.652344 7.660156 6.851562 7.484375 7.027344 7.285156 C 6.773438 6.710938 6.308594 5.992188 6.433594 5.691406 C 6.5625 5.390625 7.410156 5.222656 7.996094 5.003906 C 8 4.929688 8.03125 4.859375 8.03125 4.785156 C 8.03125 4.59375 7.992188 4.40625 7.964844 4.222656 C 7.359375 4.0625 6.5 3.984375 6.339844 3.691406 C 6.1875 3.40625 6.585938 2.632812 6.777344 2.039062 C 6.578125 1.859375 6.359375 1.699219 6.125 1.570312 C 5.625 1.941406 5.039062 2.5625 4.71875 2.507812 C 4.40625 2.445312 4.058594 1.6875 3.722656 1.160156 C 3.683594 1.167969 3.640625 1.152344 3.597656 1.160156 Z M 4.21875 3.035156 C 5.152344 3.035156 5.90625 3.789062 5.90625 4.722656 C 5.90625 5.652344 5.152344 6.410156 4.21875 6.410156 C 3.289062 6.410156 2.535156 5.652344 2.535156 4.722656 C 2.535156 3.789062 3.289062 3.035156 4.21875 3.035156 Z M 4.21875 3.035156 "/>
<path fill-rule="nonzero" fill="rgb(98.431373%, 94.509804%, 78.039217%)" fill-opacity="1" d="M 2.996094 9.441406 L 12.980469 9.441406 L 12.988281 15.5 C 12.988281 15.992188 12.515625 16.4375 11.992188 16.4375 L 4 16.4375 C 3.449219 16.4375 3.003906 15.992188 3.003906 15.441406 Z M 2.996094 9.441406 "/>
<path fill-rule="nonzero" fill="rgb(98.431373%, 94.509804%, 78.039217%)" fill-opacity="1" d="M 15.957031 12.417969 C 15.949219 12.152344 15.839844 11.902344 15.65625 11.714844 L 13.492188 9.597656 C 13.257812 9.351562 12.707031 9.304688 12.480469 9.441406 C 12.402344 9.441406 11.347656 10.070312 11.195312 10.308594 C 10.578125 11.253906 11.535156 12.132812 12.367188 11.851562 L 12.714844 11.640625 L 14.316406 13.210938 C 14.957031 13.738281 16.011719 13.304688 15.957031 12.417969 Z M 15.957031 12.417969 "/>
</svg>
