<?xml version="1.0" encoding="UTF-8"?>
<svg xmlns="http://www.w3.org/2000/svg" xmlns:xlink="http://www.w3.org/1999/xlink" width="16" height="16" viewBox="0 0 16 16">
<path fill-rule="nonzero" fill="rgb(98.431373%, 94.509804%, 78.039217%)" fill-opacity="1" d="M 13.996094 1.445312 C 14.550781 1.445312 14.996094 1.890625 14.996094 2.445312 L 14.996094 4.449219 C 14.996094 4.714844 14.890625 4.96875 14.703125 5.15625 C 14.515625 5.34375 14.261719 5.445312 13.996094 5.445312 L 2.003906 5.445312 C 1.738281 5.445312 1.484375 5.339844 1.296875 5.152344 C 1.109375 4.964844 1.003906 4.710938 1.003906 4.445312 L 1.003906 2.445312 C 1.003906 1.890625 1.449219 1.445312 2.003906 1.445312 Z M 13 2.445312 C 12.445312 2.445312 11.996094 2.894531 11.996094 3.445312 C 11.996094 4 12.445312 4.449219 13 4.449219 C 13.550781 4.449219 14 4 14 3.445312 C 14 2.894531 13.550781 2.445312 13 2.445312 Z M 13.996094 6.320312 C 14.550781 6.320312 14.996094 6.765625 14.996094 7.320312 L 14.996094 9.445312 C 15 9.710938 14.894531 9.964844 14.707031 10.152344 C 14.515625 10.339844 14.261719 10.445312 13.996094 10.445312 L 2.003906 10.445312 C 1.738281 10.445312 1.484375 10.339844 1.296875 10.152344 C 1.109375 9.964844 1.003906 9.707031 1.003906 9.445312 L 1.003906 7.320312 C 1.003906 6.765625 1.449219 6.320312 2.003906 6.320312 Z M 13 7.445312 C 12.445312 7.445312 11.996094 7.894531 11.996094 8.445312 C 11.996094 9 12.445312 9.445312 13 9.445312 C 13.550781 9.445312 14 9 14 8.445312 C 14 7.894531 13.550781 7.445312 13 7.445312 Z M 13.996094 11.441406 C 14.550781 11.441406 14.996094 11.886719 14.996094 12.445312 L 14.996094 14.441406 C 15 14.707031 14.894531 14.964844 14.707031 15.152344 C 14.515625 15.339844 14.261719 15.445312 13.996094 15.445312 L 2.003906 15.445312 C 1.738281 15.445312 1.484375 15.339844 1.296875 15.148438 C 1.109375 14.960938 1.003906 14.707031 1.003906 14.441406 L 1.003906 12.441406 C 1.003906 11.886719 1.449219 11.441406 2.003906 11.441406 Z M 13 12.445312 C 12.445312 12.445312 12 12.890625 11.996094 13.441406 C 11.996094 13.996094 12.445312 14.441406 13 14.441406 C 13.550781 14.441406 13.996094 13.992188 13.996094 13.441406 C 13.992188 12.890625 13.546875 12.445312 13 12.445312 Z M 13 12.445312 "/>
</svg>
