<?xml version="1.0" encoding="UTF-8"?>
<svg xmlns="http://www.w3.org/2000/svg" xmlns:xlink="http://www.w3.org/1999/xlink" width="16" height="16" viewBox="0 0 16 16">
<path fill-rule="nonzero" fill="rgb(98.431373%, 94.509804%, 78.039217%)" fill-opacity="1" d="M 2.003906 0.441406 C 1.472656 0.441406 0.960938 0.652344 0.585938 1.027344 C 0.207031 1.402344 -0.00390625 1.914062 0 2.445312 L 0 14.4375 C 0 15.542969 0.894531 16.441406 2 16.441406 C 3.105469 16.441406 4 15.542969 4 14.4375 L 4 10.441406 L 11.996094 10.441406 L 11.996094 14.4375 C 11.996094 15.542969 12.890625 16.4375 13.996094 16.4375 C 15.101562 16.4375 15.996094 15.542969 15.996094 14.4375 L 15.996094 2.445312 C 15.996094 1.914062 15.785156 1.40625 15.410156 1.027344 C 15.035156 0.652344 14.527344 0.441406 13.996094 0.441406 Z M 3.503906 2.445312 L 4.5 2.445312 C 4.78125 2.445312 5.003906 2.664062 5.003906 2.941406 L 5.003906 4.441406 L 6.5 4.441406 C 6.777344 4.441406 7 4.667969 7 4.941406 L 7 5.941406 C 7 6.074219 6.949219 6.199219 6.855469 6.292969 C 6.761719 6.386719 6.632812 6.441406 6.5 6.4375 L 5.003906 6.4375 L 5.003906 7.941406 C 5.003906 8.074219 4.953125 8.203125 4.855469 8.296875 C 4.761719 8.390625 4.632812 8.441406 4.5 8.441406 L 3.503906 8.441406 C 3.371094 8.441406 3.242188 8.390625 3.148438 8.292969 C 3.054688 8.199219 3.003906 8.074219 3.003906 7.941406 L 3.003906 6.4375 L 1.503906 6.4375 C 1.371094 6.441406 1.242188 6.386719 1.148438 6.292969 C 1.054688 6.199219 1 6.074219 1 5.941406 L 1 4.941406 C 1 4.664062 1.226562 4.441406 1.503906 4.441406 L 3.003906 4.441406 L 3.003906 2.941406 C 3.003906 2.808594 3.054688 2.679688 3.148438 2.589844 C 3.242188 2.496094 3.371094 2.445312 3.503906 2.445312 Z M 11.5 2.445312 L 12.496094 2.445312 C 12.777344 2.445312 13 2.664062 13 2.941406 L 13 3.941406 C 13 4.074219 12.945312 4.203125 12.851562 4.296875 C 12.757812 4.390625 12.628906 4.441406 12.496094 4.441406 L 11.5 4.441406 C 11.222656 4.441406 11 4.21875 11 3.941406 L 11 2.941406 C 11 2.664062 11.222656 2.441406 11.5 2.441406 Z M 9.496094 4.441406 L 10.496094 4.441406 C 10.777344 4.441406 11 4.667969 11 4.941406 L 11 5.941406 C 11 6.074219 10.945312 6.199219 10.851562 6.292969 C 10.757812 6.386719 10.628906 6.441406 10.496094 6.4375 L 9.5 6.4375 C 9.222656 6.4375 9 6.214844 9 5.941406 L 9 4.941406 C 9 4.664062 9.222656 4.441406 9.5 4.441406 Z M 13.496094 4.441406 L 14.5 4.441406 C 14.773438 4.441406 14.996094 4.667969 14.996094 4.941406 L 14.996094 5.941406 C 14.996094 6.214844 14.773438 6.4375 14.5 6.4375 L 13.496094 6.4375 C 13.222656 6.4375 13 6.214844 13 5.941406 L 13 4.941406 C 13 4.664062 13.222656 4.441406 13.496094 4.441406 Z M 11.5 6.441406 L 12.496094 6.441406 C 12.777344 6.441406 13 6.667969 13 6.941406 L 13 7.941406 C 13 8.074219 12.945312 8.203125 12.851562 8.296875 C 12.757812 8.390625 12.628906 8.441406 12.496094 8.441406 L 11.5 8.441406 C 11.367188 8.441406 11.238281 8.390625 11.144531 8.292969 C 11.050781 8.199219 11 8.074219 11 7.941406 L 11 6.941406 C 11 6.667969 11.222656 6.4375 11.5 6.4375 Z M 11.5 6.441406 "/>
</svg>
