<?xml version="1.0" encoding="UTF-8"?>
<svg xmlns="http://www.w3.org/2000/svg" xmlns:xlink="http://www.w3.org/1999/xlink" width="16" height="16" viewBox="0 0 16 16">
<path fill-rule="nonzero" fill="rgb(98.431373%, 94.509804%, 78.039217%)" fill-opacity="1" d="M 0 15.441406 L 0 13.4375 L 8 5.441406 L 15.996094 13.4375 L 15.996094 15.441406 L 13.996094 14.4375 L 8 8.441406 L 2 14.4375 Z M 0 15.441406 "/>
<path fill-rule="nonzero" fill="rgb(98.431373%, 94.509804%, 78.039217%)" fill-opacity="1" d="M 14.660156 7.585938 C 14.21875 7.582031 13.828125 7.871094 13.703125 8.292969 C 13.027344 10.371094 11.28125 11.910156 9.140625 12.328125 C 7 12.746094 4.804688 11.96875 3.40625 10.296875 C 3.179688 10.007812 2.816406 9.863281 2.453125 9.921875 C 2.089844 9.980469 1.789062 10.230469 1.667969 10.578125 C 1.542969 10.925781 1.625 11.308594 1.871094 11.582031 C 3.738281 13.808594 6.667969 14.84375 9.523438 14.289062 C 12.375 13.738281 14.703125 11.679688 15.605469 8.917969 C 15.710938 8.613281 15.664062 8.273438 15.476562 8.007812 C 15.289062 7.746094 14.984375 7.589844 14.660156 7.589844 Z M 14.660156 7.585938 "/>
<path fill-rule="nonzero" fill="rgb(98.431373%, 94.509804%, 78.039217%)" fill-opacity="1" d="M 8 1.445312 C 5.789062 1.441406 3.996094 3.234375 3.996094 5.441406 C 4 7.648438 5.792969 9.4375 8 9.4375 C 10.207031 9.4375 11.996094 7.644531 11.996094 5.4375 C 11.996094 3.230469 10.207031 1.445312 8 1.445312 Z M 8 3.441406 C 9.101562 3.445312 9.996094 4.339844 10 5.441406 C 9.996094 6.546875 9.101562 7.441406 7.996094 7.441406 C 6.890625 7.4375 6 6.542969 6 5.4375 C 6.003906 4.335938 6.898438 3.445312 8 3.441406 Z M 8 3.441406 "/>
</svg>
