<?xml version="1.0" encoding="UTF-8"?>
<svg xmlns="http://www.w3.org/2000/svg" xmlns:xlink="http://www.w3.org/1999/xlink" width="16" height="16" viewBox="0 0 16 16">
<path fill-rule="nonzero" fill="rgb(100%, 80.784315%, 31.764707%)" fill-opacity="1" stroke-width="1" stroke-linecap="butt" stroke-linejoin="miter" stroke="rgb(81.960785%, 62.7451%, 13.725491%)" stroke-opacity="1" stroke-miterlimit="4" d="M 8 0.5 C 7.324219 0.511719 6.839844 0.90625 6.613281 1.5625 L 6.621094 1.53125 L 5.558594 5.203125 L 1.953125 5.203125 C 1.53125 5.214844 1.136719 5.40625 0.863281 5.730469 C 0.582031 6.046875 0.453125 6.46875 0.507812 6.886719 C 0.5625 7.304688 0.796875 7.679688 1.148438 7.914062 L 3.96875 9.917969 L 2.875 13.65625 L 2.871094 13.664062 C 2.703125 14.191406 2.863281 14.765625 3.28125 15.128906 L 3.289062 15.136719 C 3.789062 15.574219 4.519531 15.628906 5.074219 15.265625 L 5.109375 15.246094 L 8 13.214844 L 10.890625 15.246094 L 10.925781 15.265625 C 11.492188 15.628906 12.203125 15.574219 12.710938 15.136719 C 12.710938 15.132812 12.71875 15.132812 12.71875 15.128906 C 13.140625 14.753906 13.296875 14.199219 13.128906 13.664062 L 13.125 13.65625 L 12.03125 9.917969 L 14.851562 7.914062 C 15.597656 7.421875 15.722656 6.386719 15.136719 5.730469 C 14.859375 5.402344 14.453125 5.207031 14.023438 5.203125 L 10.441406 5.203125 L 9.378906 1.53125 L 9.386719 1.5625 C 9.160156 0.90625 8.675781 0.507812 8 0.5 Z M 8 0.5 "/>
</svg>
