<?xml version="1.0" encoding="UTF-8"?>
<svg xmlns="http://www.w3.org/2000/svg" xmlns:xlink="http://www.w3.org/1999/xlink" width="16" height="18.142259" viewBox="0 0 16 18.142259">
<path fill-rule="nonzero" fill="rgb(98.431373%, 94.509804%, 78.039217%)" fill-opacity="1" d="M 10.125 0 C 9.808594 -0.0117188 9.511719 0.292969 9.316406 0.433594 C 9.046875 0.359375 8.769531 0.324219 8.488281 0.320312 C 8.199219 0.316406 7.910156 0.355469 7.632812 0.433594 C 7.375 0.3125 7.117188 -0.0078125 6.828125 0.0078125 C 6.664062 0.4375 6.765625 0.753906 6.796875 0.835938 C 6.605469 1.050781 6.574219 1.332031 6.574219 1.671875 C 6.574219 2.871094 7.195312 3.136719 7.867188 3.21875 C 7.78125 3.296875 7.730469 3.433594 7.703125 3.636719 C 7.527344 3.714844 7.195312 3.933594 6.921875 3.457031 C 6.921875 3.457031 6.878906 3.109375 6.574219 3.085938 C 6.574219 3.085938 5.914062 3.105469 6.191406 3.300781 C 6.191406 3.300781 6.570312 3.339844 6.707031 3.699219 C 6.707031 3.699219 6.851562 4.308594 7.695312 4.121094 C 7.695312 4.191406 7.714844 4.789062 7.714844 4.789062 L 9.308594 4.800781 C 9.308594 4.800781 9.40625 4.269531 9.40625 4.121094 C 9.40625 3.832031 9.191406 3.3125 9.082031 3.214844 C 9.757812 3.136719 10.421875 2.875 10.421875 1.671875 C 10.421875 1.332031 10.398438 1.054688 10.207031 0.835938 C 10.238281 0.753906 10.339844 0.4375 10.175781 0.0078125 C 10.175781 0.0078125 10.160156 0.00390625 10.125 0 Z M 10.125 0 "/>
</svg>
