<?xml version="1.0" encoding="UTF-8"?>
<svg xmlns="http://www.w3.org/2000/svg" xmlns:xlink="http://www.w3.org/1999/xlink" width="16" height="16" viewBox="0 0 16 16">
<defs>
<filter id="filter-remove-color" x="0%" y="0%" width="100%" height="100%">
<feColorMatrix color-interpolation-filters="sRGB" values="0 0 0 0 1 0 0 0 0 1 0 0 0 0 1 0 0 0 1 0" />
</filter>
<mask id="mask-0">
<g filter="url(#filter-remove-color)">
<rect x="-1.6" y="-1.6" width="19.2" height="19.2" fill="rgb(0%, 0%, 0%)" fill-opacity="0.5"/>
</g>
</mask>
<clipPath id="clip-0">
<rect x="0" y="0" width="16" height="16"/>
</clipPath>
<g id="source-7" clip-path="url(#clip-0)">
<path fill-rule="nonzero" fill="rgb(98.431373%, 94.509804%, 78.039217%)" fill-opacity="1" d="M 3.996094 5.445312 L 3.996094 9.445312 L 5.496094 7.941406 L 6.996094 9.445312 L 9.496094 6.945312 L 11.996094 9.445312 L 11.996094 5.445312 Z M 3.996094 5.445312 "/>
</g>
</defs>
<path fill-rule="nonzero" fill="rgb(98.431373%, 94.509804%, 78.039217%)" fill-opacity="1" d="M 3.996094 2.445312 C 2.347656 2.453125 1.007812 3.789062 1 5.441406 L 1 11.441406 C 1 13.089844 2.351562 14.4375 3.996094 14.4375 L 11.996094 14.4375 C 13.648438 14.429688 14.984375 13.09375 14.992188 11.441406 L 14.992188 5.441406 C 14.984375 3.792969 13.648438 2.457031 11.996094 2.449219 Z M 3.996094 4.449219 L 11.996094 4.449219 C 12.566406 4.449219 13 4.871094 13 5.441406 L 13 11.441406 C 13.003906 11.710938 12.898438 11.964844 12.710938 12.15625 C 12.523438 12.34375 12.265625 12.445312 11.996094 12.441406 L 3.996094 12.441406 C 3.730469 12.445312 3.472656 12.34375 3.285156 12.15625 C 3.09375 11.96875 2.992188 11.710938 3 11.441406 L 3 5.441406 C 3 4.875 3.421875 4.449219 3.996094 4.449219 Z M 3.996094 4.449219 "/>
<g mask="url(#mask-0)">
<use xlink:href="#source-7"/>
</g>
<path fill-rule="nonzero" fill="rgb(98.431373%, 94.509804%, 78.039217%)" fill-opacity="1" d="M 8 7.445312 L 11.996094 11.441406 L 3.996094 11.441406 Z M 8 7.445312 "/>
</svg>
