<?xml version="1.0" encoding="UTF-8"?>
<svg xmlns="http://www.w3.org/2000/svg" xmlns:xlink="http://www.w3.org/1999/xlink" width="16" height="16" viewBox="0 0 16 16">
<path fill-rule="nonzero" fill="rgb(98.431373%, 94.509804%, 78.039217%)" fill-opacity="1" d="M 3.996094 1.4375 C 2.34375 1.445312 1.007812 2.785156 1 4.441406 L 1 12.4375 C 1 14.078125 2.355469 15.4375 3.996094 15.4375 L 11.996094 15.4375 C 13.644531 15.4375 14.992188 14.074219 14.992188 12.4375 L 14.992188 4.441406 C 14.988281 2.785156 13.652344 1.445312 11.996094 1.4375 Z M 3.996094 3.4375 L 11.996094 3.4375 C 12.570312 3.4375 12.996094 3.871094 12.996094 4.441406 L 12.996094 12.4375 C 13 12.703125 12.898438 12.960938 12.710938 13.148438 C 12.519531 13.339844 12.265625 13.441406 11.996094 13.4375 L 3.996094 13.4375 C 3.730469 13.441406 3.476562 13.335938 3.289062 13.148438 C 3.101562 12.960938 2.996094 12.703125 3.003906 12.4375 L 3.003906 4.441406 C 3.003906 3.875 3.425781 3.4375 3.996094 3.4375 Z M 3.996094 3.4375 "/>
<path fill-rule="nonzero" fill="rgb(98.431373%, 94.509804%, 78.039217%)" fill-opacity="1" d="M 5.996094 4.441406 L 5.996094 9.015625 L 10.5 11.617188 L 11.5 9.878906 L 8 7.859375 L 8 4.441406 Z M 5 0.4375 L 10.996094 0.4375 L 10.996094 1.441406 L 5 1.441406 Z M 5 15.4375 L 10.996094 15.4375 L 10.996094 16.4375 L 5 16.4375 Z M 5 15.4375 "/>
</svg>
