<?xml version="1.0" encoding="UTF-8"?>
<svg xmlns="http://www.w3.org/2000/svg" xmlns:xlink="http://www.w3.org/1999/xlink" width="16" height="13.99262" viewBox="0 0 16 13.99262">
<path fill-rule="nonzero" fill="rgb(98.431373%, 94.509804%, 78.039217%)" fill-opacity="1" d="M 4.292969 0.925781 C 4.050781 0.925781 3.8125 1.023438 3.640625 1.199219 C 3.46875 1.371094 3.371094 1.609375 3.371094 1.855469 L 3.371094 2.78125 L 1.515625 2.78125 C 1.007812 2.78125 0.59375 3.195312 0.59375 3.703125 L 0.59375 11.109375 C 0.59375 11.621094 1.007812 12.035156 1.519531 12.035156 L 3.371094 12.035156 L 3.371094 12.960938 C 3.371094 13.472656 3.785156 13.886719 4.296875 13.886719 C 4.808594 13.886719 5.222656 13.472656 5.222656 12.960938 L 5.222656 12.035156 L 7.074219 12.035156 L 7.074219 12.960938 C 7.074219 13.472656 7.488281 13.882812 8 13.882812 C 8.507812 13.882812 8.921875 13.472656 8.921875 12.960938 L 8.921875 12.035156 L 10.777344 12.035156 L 10.777344 12.960938 C 10.777344 13.472656 11.191406 13.886719 11.703125 13.886719 C 12.214844 13.886719 12.628906 13.472656 12.628906 12.960938 L 12.628906 12.035156 L 14.476562 12.035156 C 14.988281 12.035156 15.402344 11.621094 15.402344 11.109375 L 15.402344 3.703125 C 15.402344 3.195312 14.988281 2.78125 14.480469 2.78125 L 12.628906 2.78125 L 12.628906 1.855469 C 12.628906 1.34375 12.214844 0.929688 11.703125 0.929688 C 11.191406 0.929688 10.777344 1.34375 10.777344 1.855469 L 10.777344 2.78125 L 8.925781 2.78125 L 8.925781 1.855469 C 8.925781 1.34375 8.511719 0.929688 8 0.929688 C 7.488281 0.929688 7.074219 1.34375 7.074219 1.855469 L 7.074219 2.78125 L 5.222656 2.78125 L 5.222656 1.855469 C 5.222656 1.609375 5.125 1.371094 4.953125 1.199219 C 4.777344 1.023438 4.542969 0.925781 4.296875 0.925781 Z M 2.449219 4.632812 L 13.554688 4.632812 L 13.554688 5.554688 C 12.53125 5.558594 11.703125 6.386719 11.703125 7.410156 C 11.707031 8.433594 12.535156 9.257812 13.558594 9.257812 L 13.558594 10.183594 L 2.441406 10.183594 Z M 2.449219 4.632812 "/>
</svg>
