<?xml version="1.0" encoding="UTF-8"?>
<svg xmlns="http://www.w3.org/2000/svg" xmlns:xlink="http://www.w3.org/1999/xlink" width="16" height="16" viewBox="0 0 16 16">
<path fill-rule="nonzero" fill="rgb(98.431373%, 94.509804%, 78.039217%)" fill-opacity="1" d="M 7.722656 1.453125 C 3.90625 1.578125 0.898438 4.746094 0.960938 8.5625 C 1.023438 12.382812 4.136719 15.445312 7.957031 15.445312 C 11.777344 15.445312 14.890625 12.382812 14.953125 8.5625 C 15.019531 4.746094 12.007812 1.578125 8.191406 1.453125 Z M 8 4.441406 C 10.207031 4.441406 11.996094 6.230469 11.996094 8.441406 L 11.996094 8.941406 C 11.996094 9.570312 11.601562 10.128906 11.011719 10.34375 C 10.421875 10.558594 9.757812 10.382812 9.351562 9.90625 C 8.773438 10.449219 7.921875 10.597656 7.191406 10.28125 C 6.464844 9.960938 5.992188 9.238281 6 8.441406 C 5.953125 7.699219 6.324219 6.992188 6.960938 6.605469 C 7.601562 6.21875 8.398438 6.21875 9.035156 6.605469 C 9.671875 6.992188 10.042969 7.699219 10 8.441406 L 10 8.941406 C 10 9.214844 10.222656 9.441406 10.496094 9.441406 C 10.773438 9.441406 10.996094 9.214844 10.996094 8.941406 L 10.996094 8.441406 C 10.996094 6.785156 9.65625 5.4375 7.996094 5.4375 C 6.339844 5.4375 4.996094 6.78125 4.996094 8.441406 C 4.996094 10.097656 6.339844 11.441406 8 11.4375 L 10.496094 11.4375 C 10.496094 11.4375 10.996094 11.4375 10.996094 11.941406 C 10.964844 12.441406 10.496094 12.441406 10.496094 12.441406 L 8 12.441406 C 5.789062 12.441406 4 10.648438 4 8.441406 C 4 6.230469 5.789062 4.441406 8 4.441406 Z M 8 7.441406 C 7.445312 7.441406 6.996094 7.890625 6.996094 8.441406 C 6.996094 8.996094 7.445312 9.445312 8 9.445312 C 8.550781 9.445312 9 8.996094 9 8.441406 C 9 7.890625 8.550781 7.441406 8 7.441406 Z M 8 7.441406 "/>
</svg>
