<?xml version="1.0" encoding="UTF-8"?>
<svg xmlns="http://www.w3.org/2000/svg" xmlns:xlink="http://www.w3.org/1999/xlink" width="16" height="16" viewBox="0 0 16 16">
<path fill-rule="nonzero" fill="rgb(98.431373%, 94.509804%, 78.039217%)" fill-opacity="1" d="M 3 11.4375 L 3 7.441406 C 3 6.886719 2.550781 6.4375 2 6.4375 C 1.445312 6.4375 0.996094 6.886719 0.996094 7.441406 L 0.996094 14.4375 C 0.996094 14.992188 1.445312 15.441406 2 15.441406 L 13.996094 15.441406 C 14.550781 15.441406 14.996094 14.992188 14.996094 14.4375 L 14.996094 7.441406 C 14.996094 6.117188 12.996094 6.117188 12.996094 7.441406 L 12.996094 11.4375 M 3 12.441406 L 13 12.441406 L 13 13.441406 L 3 13.441406 Z M 3 12.441406 "/>
<path fill-rule="nonzero" fill="rgb(98.431373%, 94.509804%, 78.039217%)" fill-opacity="1" d="M 5.996094 10.441406 L 5.996094 6.4375 L 3.996094 6.4375 L 8 1.445312 L 11.996094 6.4375 L 9.996094 6.4375 L 9.996094 10.441406 Z M 5.996094 10.441406 "/>
</svg>
