<?xml version="1.0" encoding="UTF-8"?>
<svg xmlns="http://www.w3.org/2000/svg" xmlns:xlink="http://www.w3.org/1999/xlink" width="16" height="16" viewBox="0 0 16 16">
<defs>
<filter id="filter-remove-color" x="0%" y="0%" width="100%" height="100%">
<feColorMatrix color-interpolation-filters="sRGB" values="0 0 0 0 1 0 0 0 0 1 0 0 0 0 1 0 0 0 1 0" />
</filter>
<mask id="mask-0">
<g filter="url(#filter-remove-color)">
<rect x="-1.6" y="-1.6" width="19.2" height="19.2" fill="rgb(0%, 0%, 0%)" fill-opacity="0.5"/>
</g>
</mask>
<clipPath id="clip-0">
<rect x="0" y="0" width="16" height="16"/>
</clipPath>
<g id="source-12" clip-path="url(#clip-0)">
<path fill-rule="nonzero" fill="rgb(98.431373%, 94.509804%, 78.039217%)" fill-opacity="1" d="M 2.003906 2.445312 C 1.472656 2.445312 0.960938 2.652344 0.585938 3.027344 C 0.210938 3.402344 0 3.910156 0 4.441406 L 0 5.441406 C 0 4.335938 0.890625 3.4375 2.003906 3.4375 L 13.996094 3.4375 C 15.101562 3.4375 16 4.335938 16 5.441406 L 16 4.441406 C 16 3.910156 15.789062 3.398438 15.414062 3.023438 C 15.035156 2.648438 14.527344 2.441406 13.996094 2.441406 Z M 2.003906 2.445312 "/>
</g>
<mask id="mask-1">
<g filter="url(#filter-remove-color)">
<rect x="-1.6" y="-1.6" width="19.2" height="19.2" fill="rgb(0%, 0%, 0%)" fill-opacity="0.5"/>
</g>
</mask>
<clipPath id="clip-1">
<rect x="0" y="0" width="16" height="16"/>
</clipPath>
<g id="source-15" clip-path="url(#clip-1)">
<path fill-rule="nonzero" fill="rgb(98.431373%, 94.509804%, 78.039217%)" fill-opacity="1" d="M 2.003906 0.441406 C 1.472656 0.441406 0.960938 0.652344 0.585938 1.027344 C 0.207031 1.402344 -0.00390625 1.914062 0 2.445312 L 0 3.441406 C 0 2.332031 0.890625 1.441406 2.003906 1.441406 L 13.996094 1.441406 C 15.101562 1.441406 16 2.335938 16 3.441406 L 16 2.441406 C 16 1.910156 15.789062 1.398438 15.410156 1.023438 C 15.035156 0.648438 14.523438 0.441406 13.992188 0.441406 Z M 2.003906 0.441406 "/>
</g>
</defs>
<path fill-rule="nonzero" fill="rgb(98.431373%, 94.509804%, 78.039217%)" fill-opacity="1" d="M 2.003906 4.441406 C 1.472656 4.4375 0.960938 4.648438 0.585938 5.023438 C 0.207031 5.402344 -0.00390625 5.910156 0 6.441406 L 0 14.4375 C 0 15.546875 0.890625 16.441406 2.003906 16.441406 L 6.996094 16.441406 L 6.996094 15.441406 L 8 15.441406 L 8 14.4375 L 6.996094 14.4375 L 6.996094 13.441406 L 8 13.441406 L 8 12.441406 L 6.996094 12.441406 L 6.996094 11.4375 L 8 11.4375 L 2 8.441406 L 2 6.4375 L 8 9.441406 L 13.996094 6.4375 L 13.996094 8.441406 L 8 11.4375 L 8 12.441406 L 8.996094 12.441406 L 8.996094 13.441406 L 8 13.441406 L 8 14.4375 L 8.996094 14.4375 L 8.996094 15.441406 L 8 15.441406 L 8 16.4375 L 13.996094 16.4375 C 15.101562 16.4375 16 15.546875 16 14.4375 L 16 6.4375 C 16 5.910156 15.789062 5.398438 15.414062 5.023438 C 15.035156 4.648438 14.527344 4.4375 13.996094 4.441406 Z M 3.996094 10.4375 L 5.25 11.074219 L 2 14.4375 L 2 12.4375 Z M 11.996094 10.4375 L 14 12.4375 L 14 14.4375 L 10.75 11.074219 Z M 11.996094 10.4375 "/>
<g mask="url(#mask-0)">
<use xlink:href="#source-12"/>
</g>
<g mask="url(#mask-1)">
<use xlink:href="#source-15"/>
</g>
</svg>
