<?xml version="1.0" encoding="UTF-8"?>
<svg xmlns="http://www.w3.org/2000/svg" xmlns:xlink="http://www.w3.org/1999/xlink" width="16" height="16" viewBox="0 0 16 16">
<path fill-rule="nonzero" fill="rgb(98.431373%, 94.509804%, 78.039217%)" fill-opacity="1" d="M 6.5 1.441406 C 5.671875 1.445312 5 2.113281 4.996094 2.941406 L 4.996094 4.9375 C 4.996094 5.757812 5.675781 6.441406 6.5 6.441406 L 9.496094 6.441406 C 10.324219 6.4375 10.992188 5.765625 10.996094 4.9375 L 10.996094 2.9375 C 10.992188 2.109375 10.320312 1.441406 9.496094 1.441406 Z M 6.5 2.445312 L 9.496094 2.445312 C 9.78125 2.445312 10 2.652344 10 2.9375 L 10 4.9375 C 10 5.074219 9.949219 5.203125 9.855469 5.296875 C 9.757812 5.394531 9.628906 5.445312 9.496094 5.441406 L 6.5 5.441406 C 6.367188 5.445312 6.238281 5.390625 6.144531 5.296875 C 6.046875 5.203125 5.996094 5.074219 6 4.9375 L 6 2.9375 C 6 2.652344 6.214844 2.445312 6.5 2.445312 Z M 2.5 10.4375 C 1.675781 10.445312 1.003906 11.113281 1 11.941406 L 1 13.945312 C 1.007812 14.769531 1.675781 15.433594 2.5 15.441406 L 5.496094 15.441406 C 6.324219 15.4375 6.988281 14.769531 6.996094 13.945312 L 6.996094 11.941406 C 6.988281 11.113281 6.324219 10.445312 5.496094 10.4375 Z M 2.5 11.441406 L 5.496094 11.441406 C 5.632812 11.4375 5.761719 11.492188 5.855469 11.585938 C 5.949219 11.679688 6.003906 11.808594 6 11.941406 L 6 13.945312 C 6 14.226562 5.78125 14.433594 5.496094 14.433594 L 2.5 14.433594 C 2.367188 14.441406 2.238281 14.390625 2.144531 14.296875 C 2.050781 14.203125 1.996094 14.078125 2 13.945312 L 2 11.941406 C 1.996094 11.808594 2.050781 11.679688 2.144531 11.585938 C 2.238281 11.492188 2.367188 11.4375 2.5 11.441406 Z M 10.5 10.4375 C 9.671875 10.445312 9.003906 11.113281 8.996094 11.941406 L 8.996094 13.945312 C 9.003906 14.769531 9.675781 15.4375 10.5 15.441406 L 13.496094 15.441406 C 14.320312 15.4375 14.988281 14.769531 14.992188 13.945312 L 14.992188 11.941406 C 14.988281 11.113281 14.324219 10.445312 13.496094 10.4375 Z M 10.5 11.441406 L 13.496094 11.441406 C 13.628906 11.4375 13.757812 11.492188 13.855469 11.585938 C 13.949219 11.679688 14 11.808594 14 11.941406 L 14 13.945312 C 14 14.226562 13.785156 14.433594 13.496094 14.433594 L 10.5 14.433594 C 10.367188 14.441406 10.238281 14.390625 10.144531 14.296875 C 10.046875 14.203125 9.996094 14.078125 10 13.945312 L 10 11.941406 C 9.996094 11.808594 10.046875 11.679688 10.144531 11.585938 C 10.238281 11.492188 10.367188 11.4375 10.5 11.441406 Z M 1 7.441406 L 1 9.445312 L 14.992188 9.445312 L 14.992188 7.441406 Z M 1 7.441406 "/>
<path fill-rule="nonzero" fill="rgb(98.431373%, 94.509804%, 78.039217%)" fill-opacity="1" d="M 6.996094 5.941406 L 6.996094 8.445312 L 8.996094 8.445312 L 8.996094 5.941406 Z M 3.003906 8.445312 L 3.003906 10.941406 L 4.996094 10.941406 L 4.996094 8.445312 Z M 10.996094 8.445312 L 10.996094 10.941406 L 13 10.941406 L 13 8.445312 Z M 10.996094 8.445312 "/>
</svg>
