<?xml version="1.0" encoding="UTF-8"?>
<svg xmlns="http://www.w3.org/2000/svg" xmlns:xlink="http://www.w3.org/1999/xlink" width="16" height="16" viewBox="0 0 16 16">
<path fill-rule="nonzero" fill="rgb(53.725493%, 53.725493%, 53.725493%)" fill-opacity="1" d="M 3.503906 0 L 12.503906 0 C 13.335938 0 14.070312 0.671875 14.003906 1.5 L 13.003906 14 C 10.503906 16 5.503906 16 3.003906 14 L 2.003906 1.5 C 1.9375 0.671875 2.671875 0 3.503906 0 Z M 3.503906 0 "/>
<path fill-rule="nonzero" fill="rgb(0%, 0%, 0%)" fill-opacity="0.501961" d="M 3.503906 0 C 2.671875 0 1.9375 0.671875 2.003906 1.5 L 3.003906 14 C 5.503906 16 10.503906 16 13.003906 14 L 14.003906 1.5 C 14.070312 0.671875 13.335938 0 12.503906 0 Z M 3.503906 1 L 12.503906 1 C 12.78125 1 13.027344 1.222656 13.003906 1.5 L 12.003906 13 C 9.503906 15 6.503906 15 4.003906 13 L 3.003906 1.5 C 2.980469 1.222656 3.226562 1 3.503906 1 Z M 3.503906 1 "/>
<path fill-rule="nonzero" fill="rgb(92.941177%, 92.941177%, 92.941177%)" fill-opacity="1" d="M 6.636719 10.222656 L 4.890625 10.804688 L 4.171875 7.726562 L 5.355469 7.511719 L 5.203125 4.058594 L 7.800781 1.980469 L 10.050781 2.375 L 9.582031 5.671875 L 11.542969 7.191406 L 11.023438 9.960938 L 9.394531 9.722656 L 8.308594 12.863281 L 6.679688 12.621094 Z M 6.636719 10.222656 "/>
<path fill="none" stroke-width="0.866027" stroke-linecap="butt" stroke-linejoin="miter" stroke="rgb(53.725493%, 53.725493%, 53.725493%)" stroke-opacity="1" stroke-miterlimit="4" d="M 6.636719 10.222656 L 6.589844 7.820312 "/>
<path fill="none" stroke-width="0.866027" stroke-linecap="butt" stroke-linejoin="miter" stroke="rgb(53.725493%, 53.725493%, 53.725493%)" stroke-opacity="1" stroke-miterlimit="4" d="M 5.355469 7.511719 L 7.523438 7.117188 L 9.351562 7.320312 "/>
<path fill="none" stroke-width="0.866027" stroke-linecap="butt" stroke-linejoin="miter" stroke="rgb(53.725493%, 53.725493%, 53.725493%)" stroke-opacity="1" stroke-miterlimit="4" d="M 9.582031 5.671875 L 7.003906 4 "/>
<path fill="none" stroke-width="0.866027" stroke-linecap="butt" stroke-linejoin="miter" stroke="rgb(53.725493%, 53.725493%, 53.725493%)" stroke-opacity="1" stroke-miterlimit="4" d="M 9.394531 9.722656 L 7.765625 9.480469 "/>
</svg>
