<?xml version="1.0" encoding="UTF-8"?>
<svg xmlns="http://www.w3.org/2000/svg" xmlns:xlink="http://www.w3.org/1999/xlink" width="16" height="16" viewBox="0 0 16 16">
<path fill-rule="nonzero" fill="rgb(98.431373%, 94.509804%, 78.039217%)" fill-opacity="0.839216" d="M 3.753906 1.054688 L 6.929688 1.054688 L 9.046875 3.171875 L 14.335938 3.171875 C 15.511719 3.171875 16.453125 4.113281 16.453125 5.285156 L 16.453125 13.753906 C 16.453125 14.925781 15.511719 15.871094 14.335938 15.871094 L 3.753906 15.871094 C 2.582031 15.871094 1.636719 14.925781 1.636719 13.753906 L 1.636719 3.171875 C 1.636719 1.996094 2.582031 1.054688 3.753906 1.054688 Z M 3.753906 1.054688 "/>
<path fill-rule="nonzero" fill="rgb(98.431373%, 94.509804%, 78.039217%)" fill-opacity="1" d="M 4.8125 7.402344 L 13.28125 7.402344 C 14.449219 7.402344 15.394531 8.351562 15.394531 9.519531 L 15.394531 12.695312 C 15.394531 13.863281 14.449219 14.8125 13.28125 14.8125 L 4.8125 14.8125 C 3.644531 14.8125 2.695312 13.863281 2.695312 12.695312 L 2.695312 9.519531 C 2.695312 8.351562 3.644531 7.402344 4.8125 7.402344 Z M 4.8125 7.402344 "/>
<path fill-rule="nonzero" fill="rgb(98.431373%, 94.509804%, 78.039217%)" fill-opacity="1" d="M 4.8125 8.460938 L 13.28125 8.460938 C 14.449219 8.460938 15.394531 9.410156 15.394531 10.578125 L 15.394531 13.753906 C 15.394531 14.921875 14.449219 15.871094 13.28125 15.871094 L 4.8125 15.871094 C 3.644531 15.871094 2.695312 14.921875 2.695312 13.753906 L 2.695312 10.578125 C 2.695312 9.410156 3.644531 8.460938 4.8125 8.460938 Z M 4.8125 8.460938 "/>
</svg>
