<?xml version="1.0" encoding="UTF-8"?>
<svg xmlns="http://www.w3.org/2000/svg" xmlns:xlink="http://www.w3.org/1999/xlink" width="16" height="16" viewBox="0 0 16 16">
<path fill="none" stroke-width="1.000068" stroke-linecap="round" stroke-linejoin="round" stroke="rgb(48.235294%, 43.529412%, 39.215687%)" stroke-opacity="1" stroke-miterlimit="4" d="M 6.5 2.5 L 5.5 3.5 L 5.5 29.5 L 6.5 30.5 L 26.5 30.5 L 27.5 29.5 L 27.5 10.5 L 19.5 2.5 Z M 6.5 2.5 " transform="matrix(0.5, 0, 0, 0.5, 0, 0)"/>
<path fill="none" stroke-width="1.000068" stroke-linecap="round" stroke-linejoin="round" stroke="rgb(48.235294%, 43.529412%, 39.215687%)" stroke-opacity="1" stroke-miterlimit="4" d="M 19.5 2.5 L 27.5 10.5 L 20.5 10.5 L 19.5 9.5 Z M 19.5 2.5 " transform="matrix(0.5, 0, 0, 0.5, 0, 0)"/>
<path fill-rule="nonzero" fill="rgb(71.764708%, 73.333335%, 14.509805%)" fill-opacity="1" d="M 4.46875 5.367188 C 4.328125 5.367188 4.203125 5.453125 4.148438 5.582031 C 4.097656 5.710938 4.128906 5.859375 4.226562 5.957031 L 5.109375 6.835938 C 4.476562 7.578125 4.125 8.523438 4.125 9.5 L 4.125 13.625 L 12.375 13.625 L 12.375 9.5 C 12.375 8.523438 12.03125 7.582031 11.398438 6.835938 L 12.28125 5.957031 C 12.414062 5.824219 12.414062 5.605469 12.28125 5.46875 C 12.144531 5.335938 11.925781 5.335938 11.792969 5.46875 L 10.910156 6.351562 C 10.167969 5.722656 9.222656 5.378906 8.25 5.375 C 7.277344 5.375 6.335938 5.71875 5.589844 6.34375 L 4.714844 5.46875 C 4.648438 5.402344 4.558594 5.367188 4.46875 5.367188 M 8.25 6.0625 C 10.148438 6.0625 11.6875 7.601562 11.6875 9.5 L 4.8125 9.5 C 4.8125 7.601562 6.351562 6.0625 8.25 6.0625 M 6.875 7.4375 C 6.496094 7.4375 6.1875 7.746094 6.1875 8.125 C 6.1875 8.503906 6.496094 8.8125 6.875 8.8125 C 7.253906 8.8125 7.5625 8.503906 7.5625 8.125 C 7.5625 7.746094 7.253906 7.4375 6.875 7.4375 M 9.625 7.4375 C 9.246094 7.4375 8.9375 7.746094 8.9375 8.125 C 8.9375 8.503906 9.246094 8.8125 9.625 8.8125 C 10.003906 8.8125 10.3125 8.503906 10.3125 8.125 C 10.3125 7.746094 10.003906 7.4375 9.625 7.4375 M 4.8125 10.1875 L 7.5625 10.1875 L 7.5625 10.875 L 8.25 10.875 L 8.25 11.5625 L 8.9375 11.5625 L 8.9375 10.1875 L 11.6875 10.1875 L 11.6875 12.9375 L 4.8125 12.9375 Z M 8.25 11.5625 L 7.5625 11.5625 L 7.5625 12.25 L 8.25 12.25 Z M 8.25 11.5625 "/>
</svg>
