<?xml version="1.0" encoding="UTF-8"?>
<svg xmlns="http://www.w3.org/2000/svg" xmlns:xlink="http://www.w3.org/1999/xlink" width="16" height="16" viewBox="0 0 16 16">
<path fill="none" stroke-width="1.000068" stroke-linecap="round" stroke-linejoin="round" stroke="rgb(48.235294%, 43.529412%, 39.215687%)" stroke-opacity="1" stroke-miterlimit="4" d="M 6.5 2.5 L 5.5 3.5 L 5.5 29.5 L 6.5 30.5 L 26.5 30.5 L 27.5 29.5 L 27.5 10.5 L 19.5 2.5 Z M 6.5 2.5 " transform="matrix(0.5, 0, 0, 0.5, 0, 0)"/>
<path fill="none" stroke-width="1.000068" stroke-linecap="round" stroke-linejoin="round" stroke="rgb(48.235294%, 43.529412%, 39.215687%)" stroke-opacity="1" stroke-miterlimit="4" d="M 19.5 2.5 L 27.5 10.5 L 20.5 10.5 L 19.5 9.5 Z M 19.5 2.5 " transform="matrix(0.5, 0, 0, 0.5, 0, 0)"/>
<path fill-rule="nonzero" fill="rgb(48.235294%, 43.529412%, 39.215687%)" fill-opacity="1" d="M 4.125 5.375 L 4.125 13.625 L 12.375 13.625 L 12.375 5.375 Z M 4.8125 7.4375 L 11.6875 7.4375 L 11.6875 12.9375 C 9.246094 12.914062 7.253906 12.886719 4.8125 12.9375 Z M 4.8125 7.4375 "/>
<path fill-rule="nonzero" fill="rgb(48.235294%, 43.529412%, 39.215687%)" fill-opacity="1" d="M 8.25 8.125 C 7.867188 8.125 7.511719 8.242188 7.261719 8.460938 C 7.011719 8.679688 6.871094 8.996094 6.875 9.328125 L 7.660156 9.328125 C 7.660156 9.148438 7.722656 9.03125 7.816406 8.949219 C 7.90625 8.867188 8.042969 8.8125 8.25 8.8125 C 8.457031 8.8125 8.59375 8.867188 8.683594 8.949219 C 8.777344 9.03125 8.839844 9.148438 8.839844 9.328125 C 8.839844 9.488281 8.800781 9.554688 8.757812 9.613281 C 8.550781 9.792969 8.300781 9.949219 8.101562 10.09375 C 7.878906 10.242188 7.660156 10.433594 7.660156 10.703125 L 7.660156 10.875 L 8.445312 10.875 L 8.445312 10.703125 C 8.726562 10.453125 9.140625 10.234375 9.398438 10.007812 C 9.535156 9.835938 9.625 9.597656 9.625 9.328125 C 9.628906 8.996094 9.488281 8.679688 9.238281 8.460938 C 8.988281 8.242188 8.632812 8.125 8.25 8.125 M 7.660156 11.5625 L 7.660156 12.25 L 8.445312 12.25 L 8.445312 11.5625 Z M 7.660156 11.5625 "/>
</svg>
