<?xml version="1.0" encoding="UTF-8"?>
<svg xmlns="http://www.w3.org/2000/svg" xmlns:xlink="http://www.w3.org/1999/xlink" width="16" height="16" viewBox="0 0 16 16">
<path fill="none" stroke-width="1.000068" stroke-linecap="round" stroke-linejoin="round" stroke="rgb(48.235294%, 43.529412%, 39.215687%)" stroke-opacity="1" stroke-miterlimit="4" d="M 6.5 2.5 L 5.5 3.5 L 5.5 29.5 L 6.5 30.5 L 26.5 30.5 L 27.5 29.5 L 27.5 10.5 L 19.5 2.5 Z M 6.5 2.5 " transform="matrix(0.5, 0, 0, 0.5, 0, 0)"/>
<path fill="none" stroke-width="1.000068" stroke-linecap="round" stroke-linejoin="round" stroke="rgb(48.235294%, 43.529412%, 39.215687%)" stroke-opacity="1" stroke-miterlimit="4" d="M 19.5 2.5 L 27.5 10.5 L 20.5 10.5 L 19.5 9.5 Z M 19.5 2.5 " transform="matrix(0.5, 0, 0, 0.5, 0, 0)"/>
<path fill-rule="nonzero" fill="rgb(28.235295%, 72.549021%, 78.039217%)" fill-opacity="1" d="M 8.5 6.285156 C 8.5 6.429688 8.382812 6.546875 8.238281 6.546875 C 8.089844 6.546875 7.972656 6.429688 7.96875 6.285156 L 7.96875 5.636719 C 7.96875 5.488281 8.089844 5.371094 8.238281 5.371094 C 8.382812 5.371094 8.5 5.488281 8.5 5.636719 Z M 8.460938 10.863281 C 8.460938 10.984375 8.363281 11.078125 8.242188 11.078125 L 8.230469 11.078125 C 8.171875 11.082031 8.117188 11.058594 8.078125 11.019531 C 8.035156 10.976562 8.011719 10.921875 8.011719 10.863281 L 8.011719 10.164062 C 8.011719 10.046875 8.109375 9.949219 8.230469 9.949219 L 8.242188 9.949219 C 8.363281 9.949219 8.460938 10.046875 8.460938 10.164062 Z M 8.460938 10.863281 "/>
<path fill-rule="nonzero" fill="rgb(28.235295%, 72.549021%, 78.039217%)" fill-opacity="1" d="M 10.988281 12.925781 C 11.078125 12.832031 11.101562 12.695312 11.046875 12.574219 L 8.859375 7.933594 C 8.855469 7.921875 8.855469 7.910156 8.855469 7.894531 C 8.855469 7.847656 8.871094 7.804688 8.898438 7.773438 C 9.160156 7.578125 9.328125 7.265625 9.328125 6.914062 C 9.328125 6.628906 9.214844 6.355469 9.011719 6.152344 C 8.808594 5.953125 8.53125 5.839844 8.246094 5.839844 C 7.636719 5.839844 7.164062 6.320312 7.164062 6.914062 C 7.164062 7.265625 7.332031 7.578125 7.59375 7.773438 C 7.621094 7.804688 7.636719 7.847656 7.636719 7.894531 C 7.636719 7.90625 7.636719 7.917969 7.636719 7.933594 L 5.445312 12.574219 C 5.390625 12.695312 5.414062 12.832031 5.507812 12.925781 L 5.160156 13.628906 L 5.703125 13.035156 C 5.851562 13.074219 6.007812 13.003906 6.074219 12.863281 L 8.15625 8.441406 C 8.179688 8.414062 8.210938 8.398438 8.242188 8.402344 L 8.253906 8.402344 C 8.285156 8.402344 8.316406 8.414062 8.335938 8.441406 L 10.421875 12.863281 C 10.484375 13.003906 10.640625 13.074219 10.785156 13.035156 L 11.332031 13.628906 Z M 8.246094 7.535156 C 8.015625 7.546875 7.800781 7.433594 7.679688 7.234375 C 7.5625 7.039062 7.5625 6.792969 7.679688 6.597656 C 7.800781 6.398438 8.015625 6.285156 8.246094 6.296875 C 8.589844 6.296875 8.867188 6.574219 8.867188 6.914062 C 8.867188 7.257812 8.589844 7.535156 8.246094 7.535156 "/>
<path fill-rule="nonzero" fill="rgb(28.235295%, 72.549021%, 78.039217%)" fill-opacity="1" d="M 10.617188 10.535156 C 10.617188 10.574219 10.605469 10.609375 10.578125 10.636719 C 10.550781 10.660156 10.515625 10.675781 10.476562 10.675781 L 5.992188 10.675781 C 5.914062 10.675781 5.851562 10.613281 5.851562 10.535156 C 5.851562 10.457031 5.914062 10.390625 5.992188 10.390625 L 10.476562 10.390625 C 10.554688 10.394531 10.617188 10.457031 10.617188 10.535156 "/>
</svg>
