<?xml version="1.0" encoding="UTF-8"?>
<svg xmlns="http://www.w3.org/2000/svg" xmlns:xlink="http://www.w3.org/1999/xlink" width="16" height="16" viewBox="0 0 16 16">
<path fill="none" stroke-width="1.000068" stroke-linecap="round" stroke-linejoin="round" stroke="rgb(48.235294%, 43.529412%, 39.215687%)" stroke-opacity="1" stroke-miterlimit="4" d="M 6.5 2.5 L 5.5 3.5 L 5.5 29.5 L 6.5 30.5 L 26.5 30.5 L 27.5 29.5 L 27.5 10.5 L 19.5 2.5 Z M 6.5 2.5 " transform="matrix(0.5, 0, 0, 0.5, 0, 0)"/>
<path fill="none" stroke-width="1.000068" stroke-linecap="round" stroke-linejoin="round" stroke="rgb(48.235294%, 43.529412%, 39.215687%)" stroke-opacity="1" stroke-miterlimit="4" d="M 19.5 2.5 L 27.5 10.5 L 20.5 10.5 L 19.5 9.5 Z M 19.5 2.5 " transform="matrix(0.5, 0, 0, 0.5, 0, 0)"/>
<path fill-rule="evenodd" fill="rgb(48.235294%, 43.529412%, 39.215687%)" fill-opacity="1" d="M 12.03125 13.621094 L 9.5 13.625 L 7.777344 11.148438 C 7.777344 11.148438 7.5 10.679688 7.328125 10.546875 C 7.183594 10.433594 7.125 10.394531 6.984375 10.394531 L 6.664062 10.394531 L 6.664062 13.621094 L 4.46875 13.621094 L 4.46875 5.375 L 9.25 5.375 C 9.25 5.375 11.191406 5.722656 11.226562 7.589844 C 11.273438 9.671875 9.355469 10.28125 9.355469 10.28125 C 9.617188 10.386719 11.734375 13.140625 12.03125 13.621094 M 8.238281 7.164062 L 6.6875 7.160156 L 6.683594 8.566406 L 8.242188 8.566406 C 8.242188 8.566406 8.960938 8.5625 8.960938 7.851562 C 8.960938 7.125 8.238281 7.164062 8.238281 7.164062 "/>
</svg>
