<?xml version="1.0" encoding="UTF-8"?>
<svg xmlns="http://www.w3.org/2000/svg" xmlns:xlink="http://www.w3.org/1999/xlink" width="16" height="16" viewBox="0 0 16 16">
<path fill="none" stroke-width="1.000068" stroke-linecap="round" stroke-linejoin="round" stroke="rgb(48.235294%, 43.529412%, 39.215687%)" stroke-opacity="1" stroke-miterlimit="4" d="M 6.5 2.5 L 5.5 3.5 L 5.5 29.5 L 6.5 30.5 L 26.5 30.5 L 27.5 29.5 L 27.5 10.5 L 19.5 2.5 Z M 6.5 2.5 " transform="matrix(0.5, 0, 0, 0.5, 0, 0)"/>
<path fill="none" stroke-width="1.000068" stroke-linecap="round" stroke-linejoin="round" stroke="rgb(48.235294%, 43.529412%, 39.215687%)" stroke-opacity="1" stroke-miterlimit="4" d="M 19.5 2.5 L 27.5 10.5 L 20.5 10.5 L 19.5 9.5 Z M 19.5 2.5 " transform="matrix(0.5, 0, 0, 0.5, 0, 0)"/>
<path fill-rule="nonzero" fill="rgb(48.235294%, 43.529412%, 39.215687%)" fill-opacity="1" d="M 5.429688 11.328125 C 5.34375 11.488281 5.273438 11.726562 5.273438 11.878906 C 5.273438 11.910156 5.273438 11.953125 5.28125 12.015625 L 4.179688 10.125 C 4.140625 10.054688 4.121094 9.976562 4.121094 9.898438 C 4.121094 9.816406 4.144531 9.71875 4.179688 9.660156 L 4.710938 8.738281 L 4.117188 8.402344 L 6.035156 8.363281 L 6.96875 10.046875 L 6.371094 9.703125 L 5.429688 11.328125 M 6.273438 6 C 6.425781 5.71875 6.726562 5.542969 7.046875 5.550781 C 7.410156 5.550781 7.691406 5.71875 7.890625 6.0625 L 8.191406 6.5625 L 7.15625 8.359375 L 5.472656 7.382812 L 6.273438 6 M 6.398438 12.851562 C 5.894531 12.847656 5.484375 12.441406 5.484375 11.9375 C 5.484375 11.796875 5.542969 11.558594 5.632812 11.410156 L 5.910156 10.90625 L 7.996094 10.90625 L 7.996094 12.851562 L 6.398438 12.851562 M 8.070312 5.949219 C 7.9375 5.71875 7.761719 5.558594 7.546875 5.46875 L 9.714844 5.46875 C 9.90625 5.46875 10.054688 5.550781 10.144531 5.699219 L 10.679688 6.613281 L 11.261719 6.273438 L 10.328125 7.945312 L 8.421875 7.914062 L 9.011719 7.582031 L 8.070312 5.945312 M 11.402344 10.925781 C 11.664062 10.925781 11.886719 10.851562 12.070312 10.714844 L 10.980469 12.613281 C 10.890625 12.765625 10.726562 12.855469 10.550781 12.851562 L 9.519531 12.851562 L 9.519531 13.53125 L 8.535156 11.882812 L 9.519531 10.238281 L 9.519531 10.925781 L 11.402344 10.925781 M 12.246094 9.34375 C 12.324219 9.480469 12.367188 9.632812 12.367188 9.789062 C 12.367188 10.109375 12.167969 10.441406 11.886719 10.597656 C 11.730469 10.675781 11.558594 10.714844 11.386719 10.714844 L 10.804688 10.714844 L 9.765625 8.921875 L 11.445312 7.960938 L 12.246094 9.34375 "/>
</svg>
