<?xml version="1.0" encoding="UTF-8"?>
<svg xmlns="http://www.w3.org/2000/svg" xmlns:xlink="http://www.w3.org/1999/xlink" width="16" height="16" viewBox="0 0 16 16">
<path fill="none" stroke-width="1.000068" stroke-linecap="round" stroke-linejoin="round" stroke="rgb(48.235294%, 43.529412%, 39.215687%)" stroke-opacity="1" stroke-miterlimit="4" d="M 6.5 2.5 L 5.5 3.5 L 5.5 29.5 L 6.5 30.5 L 26.5 30.5 L 27.5 29.5 L 27.5 10.5 L 19.5 2.5 Z M 6.5 2.5 " transform="matrix(0.5, 0, 0, 0.5, 0, 0)"/>
<path fill="none" stroke-width="1.000068" stroke-linecap="round" stroke-linejoin="round" stroke="rgb(48.235294%, 43.529412%, 39.215687%)" stroke-opacity="1" stroke-miterlimit="4" d="M 19.5 2.5 L 27.5 10.5 L 20.5 10.5 L 19.5 9.5 Z M 19.5 2.5 " transform="matrix(0.5, 0, 0, 0.5, 0, 0)"/>
<path fill-rule="nonzero" fill="rgb(48.235294%, 43.529412%, 39.215687%)" fill-opacity="1" d="M 7.617188 4.6875 C 7.148438 4.6875 6.53125 4.96875 5.972656 5.433594 C 5.636719 5.585938 5.402344 5.933594 5.402344 6.339844 C 5.402344 6.46875 5.425781 6.59375 5.46875 6.710938 C 4.886719 6.824219 4.445312 7.363281 4.445312 8.003906 C 4.445312 8.136719 4.464844 8.265625 4.503906 8.394531 C 4.261719 8.648438 4.128906 8.984375 4.128906 9.335938 C 4.128906 9.613281 4.210938 9.867188 4.351562 10.078125 C 4.203125 10.300781 4.128906 10.5625 4.128906 10.828125 C 4.128906 11.308594 4.378906 11.75 4.777344 11.984375 C 4.769531 12.042969 4.765625 12.101562 4.765625 12.164062 C 4.765625 12.808594 5.171875 13.382812 5.753906 13.574219 C 6.011719 14.03125 6.472656 14.3125 6.980469 14.3125 C 7.535156 14.3125 8.023438 13.976562 8.253906 13.488281 C 8.488281 13.976562 8.96875 14.3125 9.527344 14.3125 C 10.03125 14.3125 10.496094 14.03125 10.753906 13.574219 C 11.339844 13.382812 11.742188 12.808594 11.742188 12.160156 C 11.742188 12.101562 11.738281 12.042969 11.734375 11.980469 C 12.128906 11.75 12.378906 11.308594 12.378906 10.828125 C 12.378906 10.558594 12.300781 10.300781 12.15625 10.078125 C 12.296875 9.867188 12.378906 9.613281 12.378906 9.335938 C 12.378906 8.984375 12.246094 8.648438 12.003906 8.394531 C 12.039062 8.265625 12.058594 8.136719 12.058594 8.003906 C 12.058594 7.363281 11.621094 6.824219 11.039062 6.710938 C 11.085938 6.59375 11.109375 6.46875 11.109375 6.339844 C 11.109375 5.953125 10.886719 5.597656 10.53125 5.433594 C 9.972656 4.96875 9.359375 4.6875 8.886719 4.6875 C 8.628906 4.6875 8.398438 4.824219 8.253906 5.03125 C 8.109375 4.816406 7.871094 4.6875 7.617188 4.6875 M 7.617188 4.996094 C 7.886719 4.996094 8.101562 5.226562 8.101562 5.511719 L 8.101562 7.523438 C 7.964844 7.410156 7.792969 7.351562 7.617188 7.351562 C 7.535156 7.351562 7.46875 7.421875 7.46875 7.507812 C 7.46875 7.59375 7.535156 7.660156 7.617188 7.660156 C 7.886719 7.660156 8.101562 7.886719 8.101562 8.171875 L 8.101562 11.917969 C 7.917969 11.667969 7.660156 11.480469 7.347656 11.394531 C 7.3125 11.382812 7.269531 11.390625 7.234375 11.410156 C 7.199219 11.429688 7.175781 11.464844 7.164062 11.503906 C 7.144531 11.585938 7.191406 11.671875 7.273438 11.695312 C 7.761719 11.832031 8.101562 12.296875 8.101562 12.824219 C 8.101562 13.472656 7.597656 14.003906 6.980469 14.003906 C 6.5625 14.003906 6.179688 13.761719 5.988281 13.371094 C 5.96875 13.335938 5.933594 13.304688 5.890625 13.296875 C 5.40625 13.15625 5.0625 12.691406 5.0625 12.160156 C 5.0625 12.085938 5.070312 12.003906 5.085938 11.925781 C 5.097656 11.855469 5.0625 11.785156 4.996094 11.753906 C 4.652344 11.589844 4.425781 11.226562 4.425781 10.828125 C 4.425781 10.648438 4.472656 10.476562 4.554688 10.324219 C 4.78125 10.535156 5.078125 10.652344 5.386719 10.652344 C 5.472656 10.652344 5.535156 10.585938 5.535156 10.496094 C 5.539062 10.457031 5.523438 10.417969 5.496094 10.390625 C 5.46875 10.359375 5.429688 10.34375 5.386719 10.34375 C 4.859375 10.34375 4.421875 9.890625 4.421875 9.335938 C 4.421875 9.035156 4.550781 8.753906 4.773438 8.558594 C 4.820312 8.515625 4.835938 8.445312 4.8125 8.382812 C 4.765625 8.261719 4.742188 8.132812 4.742188 8.003906 C 4.742188 7.449219 5.175781 6.996094 5.707031 6.996094 C 6.238281 6.996094 6.671875 7.449219 6.671875 8.003906 C 6.671875 8.089844 6.738281 8.160156 6.820312 8.160156 C 6.902344 8.160156 6.96875 8.089844 6.96875 8.003906 C 6.96875 7.304688 6.449219 6.734375 5.789062 6.6875 C 5.730469 6.582031 5.699219 6.460938 5.699219 6.339844 C 5.699219 6.0625 5.859375 5.824219 6.089844 5.71875 C 6.097656 5.714844 6.105469 5.710938 6.113281 5.710938 C 6.1875 5.679688 6.261719 5.664062 6.34375 5.664062 C 6.59375 5.664062 6.820312 5.808594 6.925781 6.046875 C 6.964844 6.121094 7.050781 6.15625 7.125 6.117188 C 7.199219 6.078125 7.230469 5.988281 7.195312 5.910156 C 7.074219 5.648438 6.84375 5.453125 6.5625 5.378906 C 6.945312 5.136719 7.320312 4.996094 7.617188 4.996094 Z M 8.886719 4.996094 C 9.1875 4.996094 9.566406 5.136719 9.945312 5.378906 C 9.664062 5.453125 9.433594 5.648438 9.3125 5.910156 C 9.277344 5.984375 9.308594 6.078125 9.382812 6.117188 C 9.453125 6.15625 9.542969 6.125 9.578125 6.046875 C 9.683594 5.8125 9.910156 5.664062 10.160156 5.664062 C 10.242188 5.664062 10.320312 5.679688 10.390625 5.707031 C 10.398438 5.714844 10.40625 5.71875 10.417969 5.71875 C 10.648438 5.824219 10.808594 6.058594 10.808594 6.339844 C 10.808594 6.464844 10.777344 6.578125 10.71875 6.683594 C 10.058594 6.726562 9.535156 7.300781 9.535156 8.003906 C 9.535156 8.089844 9.601562 8.160156 9.683594 8.160156 C 9.765625 8.160156 9.835938 8.089844 9.835938 8.003906 C 9.835938 7.445312 10.265625 6.992188 10.800781 6.992188 C 11.328125 6.992188 11.765625 7.449219 11.765625 8.003906 C 11.765625 8.132812 11.738281 8.261719 11.695312 8.382812 C 11.667969 8.445312 11.683594 8.515625 11.734375 8.558594 C 11.953125 8.753906 12.082031 9.035156 12.082031 9.335938 C 12.082031 9.890625 11.648438 10.34375 11.117188 10.34375 C 11.03125 10.34375 10.964844 10.414062 10.96875 10.496094 C 10.96875 10.585938 11.035156 10.65625 11.117188 10.65625 C 11.425781 10.652344 11.726562 10.535156 11.949219 10.324219 C 12.035156 10.476562 12.078125 10.652344 12.078125 10.828125 C 12.078125 11.226562 11.855469 11.589844 11.507812 11.753906 C 11.441406 11.785156 11.40625 11.855469 11.421875 11.925781 C 11.4375 12.003906 11.445312 12.082031 11.445312 12.160156 C 11.445312 12.691406 11.101562 13.15625 10.613281 13.296875 C 10.574219 13.304688 10.539062 13.332031 10.519531 13.371094 C 10.324219 13.761719 9.945312 14.003906 9.527344 14.003906 C 8.90625 14.003906 8.402344 13.472656 8.402344 12.824219 C 8.402344 12.78125 8.402344 12.738281 8.398438 12.695312 C 8.402344 12.683594 8.402344 12.667969 8.402344 12.65625 L 8.402344 7.507812 C 8.402344 7.222656 8.621094 6.992188 8.886719 6.992188 C 8.929688 6.992188 8.96875 6.976562 8.996094 6.949219 C 9.023438 6.917969 9.039062 6.878906 9.039062 6.839844 C 9.039062 6.800781 9.023438 6.761719 8.996094 6.730469 C 8.96875 6.703125 8.929688 6.683594 8.890625 6.683594 C 8.703125 6.683594 8.535156 6.75 8.402344 6.859375 L 8.402344 5.507812 C 8.402344 5.226562 8.621094 4.996094 8.886719 4.996094 M 11.113281 7.679688 C 11.03125 7.683594 10.964844 7.753906 10.96875 7.839844 C 10.96875 8.394531 10.535156 8.84375 10.003906 8.84375 C 9.742188 8.84375 9.492188 8.734375 9.316406 8.542969 C 9.289062 8.511719 9.25 8.496094 9.210938 8.496094 C 9.171875 8.496094 9.132812 8.511719 9.105469 8.542969 C 9.046875 8.605469 9.046875 8.699219 9.101562 8.761719 C 9.308594 8.984375 9.578125 9.117188 9.863281 9.152344 C 9.933594 9.625 10.328125 9.992188 10.800781 9.992188 C 10.882812 9.992188 10.949219 9.921875 10.949219 9.835938 C 10.949219 9.792969 10.933594 9.753906 10.90625 9.726562 C 10.878906 9.695312 10.839844 9.679688 10.800781 9.679688 C 10.488281 9.679688 10.234375 9.449219 10.167969 9.148438 C 10.785156 9.0625 11.269531 8.511719 11.269531 7.84375 C 11.269531 7.757812 11.199219 7.683594 11.117188 7.683594 Z M 5.710938 7.84375 C 5.628906 7.84375 5.558594 7.914062 5.558594 8.003906 C 5.558594 8.671875 6.039062 9.226562 6.65625 9.308594 C 6.59375 9.613281 6.335938 9.84375 6.027344 9.84375 C 5.945312 9.84375 5.878906 9.910156 5.878906 9.996094 C 5.878906 10.085938 5.945312 10.15625 6.027344 10.15625 C 6.5 10.15625 6.890625 9.789062 6.960938 9.316406 C 7.253906 9.28125 7.523438 9.140625 7.722656 8.925781 C 7.78125 8.863281 7.78125 8.765625 7.71875 8.703125 C 7.691406 8.675781 7.65625 8.660156 7.617188 8.660156 C 7.578125 8.660156 7.539062 8.675781 7.511719 8.703125 C 7.328125 8.898438 7.085938 9.007812 6.824219 9.007812 C 6.292969 9.007812 5.859375 8.554688 5.859375 8 C 5.859375 7.914062 5.796875 7.847656 5.710938 7.84375 Z M 8.890625 10.175781 C 8.804688 10.179688 8.738281 10.246094 8.738281 10.332031 C 8.738281 10.417969 8.804688 10.488281 8.886719 10.488281 C 9.421875 10.488281 9.851562 10.941406 9.851562 11.496094 C 9.851562 11.53125 9.851562 11.570312 9.847656 11.601562 C 9.386719 11.796875 9.058594 12.277344 9.058594 12.828125 C 9.058594 12.914062 9.125 12.984375 9.207031 12.984375 C 9.289062 12.984375 9.355469 12.914062 9.355469 12.828125 C 9.355469 12.273438 9.789062 11.820312 10.320312 11.820312 C 10.40625 11.820312 10.46875 11.746094 10.46875 11.660156 C 10.472656 11.578125 10.40625 11.507812 10.324219 11.507812 C 10.261719 11.507812 10.207031 11.515625 10.152344 11.523438 L 10.152344 11.496094 C 10.152344 10.773438 9.585938 10.179688 8.890625 10.179688 Z M 7.140625 10.507812 C 6.445312 10.507812 5.878906 11.097656 5.878906 11.828125 L 5.878906 11.847656 C 5.824219 11.84375 5.765625 11.839844 5.710938 11.839844 C 5.625 11.839844 5.558594 11.910156 5.558594 11.992188 C 5.558594 12.078125 5.628906 12.152344 5.710938 12.152344 C 6.238281 12.152344 6.675781 12.601562 6.675781 13.15625 C 6.675781 13.242188 6.738281 13.316406 6.824219 13.316406 C 6.90625 13.316406 6.972656 13.242188 6.972656 13.15625 C 6.972656 12.605469 6.644531 12.132812 6.179688 11.933594 C 6.179688 11.898438 6.175781 11.863281 6.175781 11.828125 C 6.175781 11.273438 6.609375 10.820312 7.140625 10.820312 C 7.222656 10.820312 7.289062 10.75 7.289062 10.664062 C 7.292969 10.578125 7.226562 10.511719 7.140625 10.507812 "/>
</svg>
