<?xml version="1.0" encoding="UTF-8"?>
<svg xmlns="http://www.w3.org/2000/svg" xmlns:xlink="http://www.w3.org/1999/xlink" width="16" height="16" viewBox="0 0 16 16">
<path fill="none" stroke-width="1.000068" stroke-linecap="round" stroke-linejoin="round" stroke="rgb(48.235294%, 43.529412%, 39.215687%)" stroke-opacity="1" stroke-miterlimit="4" d="M 6.5 2.5 L 5.5 3.5 L 5.5 29.5 L 6.5 30.5 L 26.5 30.5 L 27.5 29.5 L 27.5 10.5 L 19.5 2.5 Z M 6.5 2.5 " transform="matrix(0.5, 0, 0, 0.5, 0, 0)"/>
<path fill="none" stroke-width="1.000068" stroke-linecap="round" stroke-linejoin="round" stroke="rgb(48.235294%, 43.529412%, 39.215687%)" stroke-opacity="1" stroke-miterlimit="4" d="M 19.5 2.5 L 27.5 10.5 L 20.5 10.5 L 19.5 9.5 Z M 19.5 2.5 " transform="matrix(0.5, 0, 0, 0.5, 0, 0)"/>
<path fill-rule="nonzero" fill="rgb(48.235294%, 43.529412%, 39.215687%)" fill-opacity="1" d="M 10.726562 5.441406 C 10.710938 5.449219 10.628906 5.550781 10.546875 5.65625 L 10.402344 5.847656 L 10.347656 5.808594 C 10.277344 5.761719 10.207031 5.753906 10.140625 5.78125 C 10.09375 5.800781 9.988281 5.9375 9.28125 6.867188 C 9.007812 7.222656 8.738281 7.582031 8.472656 7.945312 C 8.472656 7.949219 8.652344 8.09375 8.867188 8.257812 L 9.265625 8.554688 L 9.792969 7.863281 C 10.082031 7.480469 10.324219 7.171875 10.328125 7.175781 C 10.347656 7.191406 10.382812 7.492188 10.371094 7.585938 C 10.367188 7.660156 10.351562 7.730469 10.328125 7.800781 C 10.289062 7.910156 10.285156 7.917969 9.636719 8.78125 C 9.273438 9.257812 8.972656 9.660156 8.96875 9.679688 C 8.949219 9.722656 8.96875 9.804688 9.003906 9.851562 C 9.058594 9.933594 9.195312 9.960938 9.277344 9.90625 C 9.332031 9.863281 10.621094 8.140625 10.664062 8.050781 C 10.785156 7.796875 10.8125 7.46875 10.738281 7.140625 C 10.710938 7.027344 10.675781 6.914062 10.632812 6.800781 C 10.621094 6.777344 10.640625 6.746094 10.761719 6.585938 C 10.875 6.433594 10.902344 6.390625 10.90625 6.347656 C 10.90625 6.265625 10.882812 6.21875 10.800781 6.152344 L 10.722656 6.09375 L 10.878906 5.886719 C 11.007812 5.714844 11.03125 5.671875 11.035156 5.632812 C 11.046875 5.460938 10.867188 5.347656 10.726562 5.441406 "/>
<path fill-rule="nonzero" fill="rgb(48.235294%, 43.529412%, 39.215687%)" fill-opacity="1" d="M 7.167969 9.648438 C 6.238281 10.875 6.105469 11.054688 6.019531 11.214844 C 5.847656 11.523438 5.660156 11.996094 5.539062 12.429688 C 5.457031 12.710938 5.453125 12.683594 5.566406 12.625 C 5.933594 12.425781 6.285156 12.191406 6.613281 11.929688 C 6.867188 11.714844 6.910156 11.660156 7.988281 10.238281 L 9.027344 8.871094 L 8.628906 8.570312 C 8.496094 8.464844 8.359375 8.363281 8.222656 8.265625 C 8.21875 8.265625 7.746094 8.890625 7.167969 9.652344 M 8.203125 11.441406 C 8.046875 11.472656 7.863281 11.613281 7.78125 11.773438 C 7.746094 11.839844 7.71875 11.90625 7.695312 11.976562 C 7.683594 12.023438 7.667969 12.070312 7.652344 12.113281 C 7.640625 12.128906 7.332031 12.203125 7.152344 12.234375 C 6.726562 12.308594 6.613281 12.335938 6.570312 12.375 C 6.488281 12.449219 6.550781 12.527344 6.664062 12.492188 C 6.699219 12.480469 6.828125 12.457031 6.953125 12.433594 C 7.082031 12.414062 7.273438 12.371094 7.386719 12.347656 C 7.496094 12.324219 7.589844 12.304688 7.59375 12.308594 C 7.597656 12.320312 7.578125 12.40625 7.550781 12.503906 L 7.496094 12.691406 L 7.382812 12.742188 C 7.308594 12.773438 7.242188 12.808594 7.175781 12.851562 C 7.03125 12.945312 7.007812 13.066406 7.109375 13.144531 C 7.164062 13.183594 7.316406 13.183594 7.414062 13.144531 C 7.496094 13.105469 7.546875 13.050781 7.613281 12.910156 C 7.648438 12.839844 7.675781 12.800781 7.699219 12.796875 C 7.714844 12.789062 7.867188 12.761719 8.039062 12.726562 C 8.207031 12.691406 8.363281 12.65625 8.382812 12.65625 C 8.414062 12.648438 8.417969 12.648438 8.40625 12.675781 C 8.402344 12.699219 8.375 12.753906 8.34375 12.800781 C 8.320312 12.835938 8.300781 12.878906 8.292969 12.925781 C 8.292969 12.972656 8.332031 13.023438 8.363281 13.011719 C 8.375 13.003906 8.390625 13 8.402344 13 C 8.410156 13 8.445312 12.976562 8.476562 12.945312 C 8.539062 12.886719 8.695312 12.609375 8.695312 12.550781 C 8.695312 12.519531 8.71875 12.511719 8.734375 12.535156 C 8.738281 12.542969 8.773438 12.554688 8.808594 12.566406 C 8.867188 12.578125 8.878906 12.589844 8.878906 12.613281 C 8.878906 12.664062 8.960938 12.734375 9.03125 12.746094 C 9.085938 12.757812 9.152344 12.746094 9.226562 12.714844 C 9.253906 12.703125 9.253906 12.707031 9.246094 12.746094 C 9.21875 12.808594 9.183594 12.867188 9.148438 12.925781 C 9.046875 13.074219 8.921875 13.316406 8.886719 13.421875 C 8.863281 13.511719 8.875 13.578125 8.921875 13.613281 C 8.964844 13.640625 9.035156 13.628906 9.070312 13.589844 C 9.105469 13.550781 9.28125 13.179688 9.34375 13.011719 C 9.390625 12.890625 9.414062 12.863281 9.519531 12.75 C 9.605469 12.65625 9.632812 12.636719 9.613281 12.671875 C 9.585938 12.738281 9.585938 12.789062 9.617188 12.820312 C 9.691406 12.886719 9.796875 12.820312 9.890625 12.65625 C 9.945312 12.554688 9.984375 12.527344 10.183594 12.433594 L 10.289062 12.386719 L 10.277344 12.441406 C 10.257812 12.507812 10.230469 12.574219 10.199219 12.636719 C 10.125 12.789062 10.113281 12.886719 10.152344 12.96875 C 10.183594 13.027344 10.214844 13.027344 10.359375 12.976562 C 10.554688 12.910156 10.8125 12.761719 10.878906 12.671875 C 10.96875 12.550781 10.996094 12.429688 10.941406 12.386719 C 10.886719 12.347656 10.851562 12.363281 10.78125 12.46875 C 10.679688 12.617188 10.5625 12.726562 10.449219 12.785156 C 10.390625 12.816406 10.34375 12.835938 10.339844 12.828125 C 10.335938 12.824219 10.457031 12.488281 10.523438 12.335938 C 10.535156 12.304688 10.542969 12.273438 10.546875 12.242188 C 10.546875 12.199219 10.492188 12.152344 10.449219 12.152344 C 10.425781 12.152344 10.324219 12.195312 10.222656 12.246094 C 10.011719 12.351562 10.027344 12.359375 10.078125 12.160156 C 10.113281 12.039062 10.097656 12.007812 10.027344 12 C 9.953125 11.992188 9.925781 12.015625 9.863281 12.132812 C 9.820312 12.210938 9.765625 12.277344 9.660156 12.375 C 9.519531 12.503906 9.511719 12.507812 9.480469 12.488281 C 9.429688 12.449219 9.402344 12.453125 9.28125 12.515625 C 9.164062 12.574219 9.125 12.582031 9.097656 12.546875 C 9.074219 12.515625 9.109375 12.503906 9.324219 12.460938 C 9.53125 12.421875 9.5625 12.40625 9.5625 12.363281 C 9.5625 12.296875 9.503906 12.226562 9.402344 12.183594 C 9.222656 12.105469 9.207031 12.101562 9.128906 12.121094 C 9.046875 12.140625 8.921875 12.261719 8.902344 12.335938 C 8.886719 12.410156 8.835938 12.390625 8.835938 12.304688 C 8.835938 12.269531 8.789062 12.179688 8.765625 12.164062 C 8.714844 12.128906 8.628906 12.203125 8.566406 12.347656 L 8.511719 12.457031 L 8.398438 12.484375 C 8.1875 12.527344 7.972656 12.570312 7.761719 12.613281 C 7.722656 12.617188 7.71875 12.617188 7.726562 12.59375 C 7.734375 12.578125 7.75 12.511719 7.769531 12.441406 C 7.820312 12.25 7.832031 12.222656 7.902344 12.199219 C 8.046875 12.144531 8.195312 12.082031 8.339844 12.015625 C 8.371094 11.996094 8.441406 11.945312 8.492188 11.898438 C 8.648438 11.75 8.675781 11.617188 8.5625 11.515625 C 8.535156 11.496094 8.503906 11.472656 8.472656 11.457031 C 8.386719 11.433594 8.296875 11.429688 8.207031 11.441406 Z M 8.402344 11.652344 C 8.433594 11.683594 8.433594 11.683594 8.40625 11.742188 C 8.378906 11.792969 8.339844 11.832031 8.289062 11.863281 C 8.199219 11.925781 7.902344 12.046875 7.890625 12.023438 C 7.878906 11.988281 7.972656 11.777344 8.03125 11.710938 C 8.113281 11.617188 8.136719 11.609375 8.265625 11.613281 C 8.347656 11.621094 8.378906 11.628906 8.402344 11.652344 M 7.398438 12.9375 C 7.375 12.976562 7.324219 13.003906 7.296875 12.992188 C 7.261719 12.976562 7.269531 12.960938 7.324219 12.933594 C 7.394531 12.898438 7.414062 12.898438 7.398438 12.9375 Z M 7.398438 12.9375 "/>
</svg>
