<?xml version="1.0" encoding="UTF-8"?>
<svg xmlns="http://www.w3.org/2000/svg" xmlns:xlink="http://www.w3.org/1999/xlink" width="16" height="16" viewBox="0 0 16 16">
<path fill="none" stroke-width="1.000068" stroke-linecap="round" stroke-linejoin="round" stroke="rgb(48.235294%, 43.529412%, 39.215687%)" stroke-opacity="1" stroke-miterlimit="4" d="M 6.5 2.5 L 5.5 3.5 L 5.5 29.5 L 6.5 30.5 L 26.5 30.5 L 27.5 29.5 L 27.5 10.5 L 19.5 2.5 Z M 6.5 2.5 " transform="matrix(0.5, 0, 0, 0.5, 0, 0)"/>
<path fill="none" stroke-width="1.000068" stroke-linecap="round" stroke-linejoin="round" stroke="rgb(48.235294%, 43.529412%, 39.215687%)" stroke-opacity="1" stroke-miterlimit="4" d="M 19.5 2.5 L 27.5 10.5 L 20.5 10.5 L 19.5 9.5 Z M 19.5 2.5 " transform="matrix(0.5, 0, 0, 0.5, 0, 0)"/>
<path fill-rule="nonzero" fill="rgb(98.039216%, 28.627452%, 20.392157%)" fill-opacity="1" d="M 8.226562 5.375 C 5.945312 5.375 4.101562 5.988281 4.101562 6.75 L 4.101562 12.25 C 4.101562 13.011719 5.949219 13.625 8.226562 13.625 C 10.503906 13.625 12.351562 13.011719 12.351562 12.25 L 12.351562 6.75 C 12.351562 5.988281 10.503906 5.375 8.226562 5.375 M 8.226562 6.0625 C 10.121094 6.0625 11.660156 6.371094 11.660156 6.75 C 11.660156 7.128906 10.121094 7.4375 8.222656 7.4375 C 6.324219 7.4375 4.785156 7.128906 4.785156 6.75 C 4.785156 6.371094 6.324219 6.0625 8.222656 6.0625 M 4.785156 7.507812 C 5.550781 7.890625 6.84375 8.125 8.222656 8.125 C 9.609375 8.125 10.898438 7.890625 11.660156 7.507812 L 11.660156 9.5 C 11.660156 9.878906 10.121094 10.1875 8.222656 10.1875 C 6.324219 10.1875 4.785156 9.878906 4.785156 9.5 Z M 4.785156 10.257812 C 5.550781 10.640625 6.84375 10.875 8.222656 10.875 C 9.609375 10.875 10.898438 10.640625 11.660156 10.257812 L 11.660156 12.25 C 11.660156 12.628906 10.121094 12.9375 8.222656 12.9375 C 6.324219 12.9375 4.785156 12.628906 4.785156 12.25 Z M 4.785156 10.257812 "/>
</svg>
