<?xml version="1.0" encoding="UTF-8"?>
<svg xmlns="http://www.w3.org/2000/svg" xmlns:xlink="http://www.w3.org/1999/xlink" width="16" height="16" viewBox="0 0 16 16">
<path fill="none" stroke-width="1.000068" stroke-linecap="round" stroke-linejoin="round" stroke="rgb(48.235294%, 43.529412%, 39.215687%)" stroke-opacity="1" stroke-miterlimit="4" d="M 6.5 2.5 L 5.5 3.5 L 5.5 29.5 L 6.5 30.5 L 26.5 30.5 L 27.5 29.5 L 27.5 10.5 L 19.5 2.5 Z M 6.5 2.5 " transform="matrix(0.5, 0, 0, 0.5, 0, 0)"/>
<path fill="none" stroke-width="1.000068" stroke-linecap="round" stroke-linejoin="round" stroke="rgb(48.235294%, 43.529412%, 39.215687%)" stroke-opacity="1" stroke-miterlimit="4" d="M 19.5 2.5 L 27.5 10.5 L 20.5 10.5 L 19.5 9.5 Z M 19.5 2.5 " transform="matrix(0.5, 0, 0, 0.5, 0, 0)"/>
<path fill-rule="nonzero" fill="rgb(98.039216%, 28.627452%, 20.392157%)" fill-opacity="1" d="M 11.203125 7.066406 L 9.148438 7.40625 C 9.179688 8.683594 7.816406 9.574219 6.535156 7.160156 L 4.117188 7.503906 C 4.492188 8.804688 5.84375 8.964844 6.746094 9.648438 C 6.296875 10.292969 4.246094 9.90625 4.304688 11.910156 L 6.359375 11.574219 C 6.328125 10.292969 8.703125 9.21875 9.984375 11.625 L 12.402344 11.285156 C 12.023438 9.980469 10.589844 9.855469 9.683594 9.164062 C 10.132812 8.234375 11.613281 9.074219 11.207031 7.066406 "/>
</svg>
