<?xml version="1.0" encoding="UTF-8"?>
<svg xmlns="http://www.w3.org/2000/svg" xmlns:xlink="http://www.w3.org/1999/xlink" width="16" height="16" viewBox="0 0 16 16">
<path fill="none" stroke-width="1.000068" stroke-linecap="round" stroke-linejoin="round" stroke="rgb(48.235294%, 43.529412%, 39.215687%)" stroke-opacity="1" stroke-miterlimit="4" d="M 6.5 2.5 L 5.5 3.5 L 5.5 29.5 L 6.5 30.5 L 26.5 30.5 L 27.5 29.5 L 27.5 10.5 L 19.5 2.5 Z M 6.5 2.5 " transform="matrix(0.5, 0, 0, 0.5, 0, 0)"/>
<path fill="none" stroke-width="1.000068" stroke-linecap="round" stroke-linejoin="round" stroke="rgb(48.235294%, 43.529412%, 39.215687%)" stroke-opacity="1" stroke-miterlimit="4" d="M 19.5 2.5 L 27.5 10.5 L 20.5 10.5 L 19.5 9.5 Z M 19.5 2.5 " transform="matrix(0.5, 0, 0, 0.5, 0, 0)"/>
<path fill-rule="nonzero" fill="rgb(45.09804%, 76.862746%, 56.078434%)" fill-opacity="1" d="M 7.90625 6.0625 C 5.847656 6.101562 4.199219 7.785156 4.199219 9.84375 C 4.199219 11.902344 5.847656 13.585938 7.90625 13.625 C 9.964844 13.585938 11.613281 11.902344 11.613281 9.84375 C 11.613281 7.785156 9.964844 6.101562 7.90625 6.0625 M 7.90625 6.75 C 8.726562 6.75 9.515625 7.074219 10.09375 7.65625 C 10.675781 8.234375 11 9.023438 11 9.84375 C 11 10.664062 10.675781 11.453125 10.09375 12.03125 C 9.515625 12.613281 8.726562 12.9375 7.90625 12.9375 C 7.085938 12.9375 6.296875 12.613281 5.71875 12.03125 C 5.136719 11.453125 4.8125 10.664062 4.8125 9.84375 C 4.8125 9.023438 5.136719 8.234375 5.71875 7.65625 C 6.296875 7.074219 7.085938 6.75 7.90625 6.75 M 7.5625 7.4375 L 7.5625 8.125 L 8.25 8.125 L 8.25 7.4375 Z M 7.5625 8.8125 L 7.5625 12.25 L 8.25 12.25 L 8.25 8.8125 Z M 7.5625 8.8125 "/>
</svg>
