<?xml version="1.0" encoding="UTF-8"?>
<svg xmlns="http://www.w3.org/2000/svg" xmlns:xlink="http://www.w3.org/1999/xlink" width="16" height="16" viewBox="0 0 16 16">
<path fill="none" stroke-width="1.000068" stroke-linecap="round" stroke-linejoin="round" stroke="rgb(48.235294%, 43.529412%, 39.215687%)" stroke-opacity="1" stroke-miterlimit="4" d="M 6.5 2.5 L 5.5 3.5 L 5.5 29.5 L 6.5 30.5 L 26.5 30.5 L 27.5 29.5 L 27.5 10.5 L 19.5 2.5 Z M 6.5 2.5 " transform="matrix(0.5, 0, 0, 0.5, 0, 0)"/>
<path fill="none" stroke-width="1.000068" stroke-linecap="round" stroke-linejoin="round" stroke="rgb(48.235294%, 43.529412%, 39.215687%)" stroke-opacity="1" stroke-miterlimit="4" d="M 19.5 2.5 L 27.5 10.5 L 20.5 10.5 L 19.5 9.5 Z M 19.5 2.5 " transform="matrix(0.5, 0, 0, 0.5, 0, 0)"/>
<path fill-rule="nonzero" fill="rgb(56.078434%, 24.705882%, 44.313726%)" fill-opacity="1" d="M 7.390625 12.648438 C 6.71875 12.648438 6.261719 12.3125 6.382812 11.453125 C 6.535156 10.386719 7.179688 10.03125 9.210938 9.742188 C 9.226562 9.742188 9.851562 9.636719 9.851562 9.636719 L 9.59375 11.53125 C 9.042969 12.21875 8.046875 12.648438 7.390625 12.648438 M 9.488281 12.554688 L 9.515625 13.445312 L 10.386719 13.445312 L 11.183594 7.710938 C 11.425781 5.96875 10.433594 5.460938 9.042969 5.460938 C 8.050781 5.460938 7.070312 5.753906 6.488281 6.089844 L 6.65625 7.035156 C 7.285156 6.730469 8.140625 6.515625 8.921875 6.515625 C 9.886719 6.515625 10.238281 6.992188 10.113281 7.90625 L 9.976562 8.78125 L 9.257812 8.871094 C 7.40625 9.160156 5.601562 9.449219 5.3125 11.5 C 5.097656 12.96875 5.96875 13.628906 7.132812 13.628906 C 7.867188 13.628906 8.769531 13.351562 9.488281 12.558594 "/>
</svg>
