<?xml version="1.0" encoding="UTF-8"?>
<svg xmlns="http://www.w3.org/2000/svg" xmlns:xlink="http://www.w3.org/1999/xlink" width="16" height="16" viewBox="0 0 16 16">
<path fill="none" stroke-width="1.000068" stroke-linecap="round" stroke-linejoin="round" stroke="rgb(48.235294%, 43.529412%, 39.215687%)" stroke-opacity="1" stroke-miterlimit="4" d="M 6.5 2.5 L 5.5 3.5 L 5.5 29.5 L 6.5 30.5 L 26.5 30.5 L 27.5 29.5 L 27.5 10.5 L 19.5 2.5 Z M 6.5 2.5 " transform="matrix(0.5, 0, 0, 0.5, 0, 0)"/>
<path fill="none" stroke-width="1.000068" stroke-linecap="round" stroke-linejoin="round" stroke="rgb(48.235294%, 43.529412%, 39.215687%)" stroke-opacity="1" stroke-miterlimit="4" d="M 19.5 2.5 L 27.5 10.5 L 20.5 10.5 L 19.5 9.5 Z M 19.5 2.5 " transform="matrix(0.5, 0, 0, 0.5, 0, 0)"/>
<path fill="none" stroke-width="1.299" stroke-linecap="round" stroke-linejoin="round" stroke="rgb(28.235295%, 72.549021%, 78.039217%)" stroke-opacity="1" stroke-miterlimit="4" d="M 4.273438 3.398438 L 17.726562 3.398438 C 18.210938 3.398438 18.601562 3.789062 18.601562 4.273438 L 18.601562 17.726562 C 18.601562 18.210938 18.210938 18.601562 17.726562 18.601562 L 4.273438 18.601562 C 3.789062 18.601562 3.398438 18.210938 3.398438 17.726562 L 3.398438 4.273438 C 3.398438 3.789062 3.789062 3.398438 4.273438 3.398438 Z M 4.273438 3.398438 " transform="matrix(0.5, 0, 0, 0.5, 2.75, 4)"/>
<path fill-rule="nonzero" fill="rgb(28.235295%, 72.549021%, 78.039217%)" fill-opacity="1" d="M 7.632812 6.207031 L 7.632812 7.445312 L 6.972656 7.445312 L 8.25 8.886719 L 9.523438 7.445312 L 8.867188 7.445312 L 8.867188 6.207031 Z M 8.023438 9.09375 C 7.988281 9.09375 7.96875 9.152344 7.96875 9.230469 L 7.96875 9.699219 C 7.824219 9.730469 7.691406 9.789062 7.566406 9.867188 L 7.234375 9.53125 C 7.179688 9.480469 7.121094 9.453125 7.09375 9.480469 L 6.78125 9.796875 C 6.757812 9.820312 6.78125 9.878906 6.832031 9.933594 L 7.167969 10.265625 C 7.09375 10.386719 7.03125 10.523438 7 10.664062 L 6.53125 10.664062 C 6.453125 10.664062 6.394531 10.691406 6.394531 10.722656 L 6.394531 11.175781 C 6.394531 11.210938 6.453125 11.234375 6.53125 11.234375 L 7 11.234375 C 7.03125 11.378906 7.09375 11.511719 7.167969 11.632812 L 6.832031 11.96875 C 6.78125 12.023438 6.757812 12.078125 6.78125 12.101562 L 7.09375 12.421875 C 7.121094 12.445312 7.179688 12.421875 7.234375 12.367188 L 7.566406 12.03125 C 7.691406 12.109375 7.824219 12.167969 7.964844 12.199219 L 7.964844 12.671875 C 7.964844 12.746094 7.988281 12.808594 8.027344 12.808594 L 8.476562 12.808594 C 8.511719 12.808594 8.53125 12.746094 8.53125 12.671875 L 8.53125 12.199219 C 8.675781 12.167969 8.808594 12.109375 8.933594 12.03125 L 9.265625 12.367188 C 9.320312 12.421875 9.378906 12.445312 9.40625 12.421875 L 9.71875 12.101562 C 9.742188 12.078125 9.71875 12.023438 9.667969 11.96875 L 9.332031 11.632812 C 9.40625 11.511719 9.46875 11.378906 9.5 11.234375 L 9.96875 11.234375 C 10.046875 11.234375 10.105469 11.210938 10.105469 11.175781 L 10.105469 10.722656 C 10.105469 10.691406 10.046875 10.664062 9.96875 10.664062 L 9.5 10.664062 C 9.464844 10.523438 9.410156 10.390625 9.332031 10.265625 L 9.667969 9.929688 C 9.71875 9.878906 9.742188 9.824219 9.71875 9.796875 L 9.40625 9.480469 C 9.378906 9.457031 9.320312 9.480469 9.265625 9.53125 L 8.933594 9.867188 C 8.808594 9.789062 8.675781 9.730469 8.535156 9.699219 L 8.535156 9.230469 C 8.535156 9.15625 8.511719 9.09375 8.472656 9.09375 Z M 8.25 10.378906 C 8.566406 10.378906 8.824219 10.636719 8.824219 10.949219 C 8.824219 11.265625 8.5625 11.523438 8.25 11.523438 C 7.933594 11.523438 7.679688 11.265625 7.675781 10.949219 C 7.675781 10.636719 7.9375 10.378906 8.25 10.378906 Z M 8.25 10.378906 "/>
</svg>
