<?xml version="1.0" encoding="UTF-8"?>
<svg xmlns="http://www.w3.org/2000/svg" xmlns:xlink="http://www.w3.org/1999/xlink" width="16" height="16" viewBox="0 0 16 16">
<path fill="none" stroke-width="1.000068" stroke-linecap="round" stroke-linejoin="round" stroke="rgb(48.235294%, 43.529412%, 39.215687%)" stroke-opacity="1" stroke-miterlimit="4" d="M 6.5 2.5 L 5.5 3.5 L 5.5 29.5 L 6.5 30.5 L 26.5 30.5 L 27.5 29.5 L 27.5 10.5 L 19.5 2.5 Z M 6.5 2.5 " transform="matrix(0.5, 0, 0, 0.5, 0, 0)"/>
<path fill="none" stroke-width="1.000068" stroke-linecap="round" stroke-linejoin="round" stroke="rgb(48.235294%, 43.529412%, 39.215687%)" stroke-opacity="1" stroke-miterlimit="4" d="M 19.5 2.5 L 27.5 10.5 L 20.5 10.5 L 19.5 9.5 Z M 19.5 2.5 " transform="matrix(0.5, 0, 0, 0.5, 0, 0)"/>
<path fill-rule="nonzero" fill="rgb(56.078434%, 24.705882%, 44.313726%)" fill-opacity="1" d="M 5.5 13.625 C 5.316406 13.625 5.140625 13.554688 5.011719 13.425781 C 4.882812 13.296875 4.8125 13.121094 4.8125 12.9375 L 4.8125 6.0625 C 4.8125 5.679688 5.117188 5.375 5.5 5.375 L 11 5.375 C 11.382812 5.375 11.6875 5.679688 11.6875 6.0625 L 11.6875 12.9375 C 11.6875 13.320312 11.382812 13.625 11 13.625 Z M 5.5 12.9375 L 11 12.9375 L 11 6.0625 L 5.5 6.0625 Z M 6.1875 11.5625 L 6.1875 10.875 L 10.3125 10.875 L 10.3125 11.5625 Z M 6.1875 10.1875 L 6.1875 9.5 L 10.3125 9.5 L 10.3125 10.1875 Z M 6.1875 8.8125 L 6.1875 8.125 L 10.3125 8.125 L 10.3125 8.8125 Z M 6.1875 7.4375 L 6.1875 6.75 L 10.3125 6.75 L 10.3125 7.4375 Z M 6.1875 7.4375 "/>
</svg>
