<?xml version="1.0" encoding="UTF-8"?>
<svg xmlns="http://www.w3.org/2000/svg" xmlns:xlink="http://www.w3.org/1999/xlink" width="16" height="16" viewBox="0 0 16 16">
<path fill="none" stroke-width="1.000068" stroke-linecap="round" stroke-linejoin="round" stroke="rgb(48.235294%, 43.529412%, 39.215687%)" stroke-opacity="1" stroke-miterlimit="4" d="M 6.5 2.5 L 5.5 3.5 L 5.5 29.5 L 6.5 30.5 L 26.5 30.5 L 27.5 29.5 L 27.5 10.5 L 19.5 2.5 Z M 6.5 2.5 " transform="matrix(0.5, 0, 0, 0.5, 0, 0)"/>
<path fill="none" stroke-width="1.000068" stroke-linecap="round" stroke-linejoin="round" stroke="rgb(48.235294%, 43.529412%, 39.215687%)" stroke-opacity="1" stroke-miterlimit="4" d="M 19.5 2.5 L 27.5 10.5 L 20.5 10.5 L 19.5 9.5 Z M 19.5 2.5 " transform="matrix(0.5, 0, 0, 0.5, 0, 0)"/>
<path fill-rule="nonzero" fill="rgb(2.352941%, 40.000001%, 47.058824%)" fill-opacity="1" d="M 9 5.375 L 6.835938 13.445312 L 7.503906 13.625 L 9.664062 5.554688 Z M 6.382812 6.75 L 4.347656 8.910156 L 4.125 9.152344 L 4.347656 9.386719 L 6.371094 11.5625 L 6.863281 11.085938 L 5.058594 9.152344 L 6.875 7.226562 Z M 11 6.75 C 10.636719 6.75 10.285156 6.894531 10.027344 7.152344 C 9.769531 7.410156 9.625 7.761719 9.625 8.125 L 9.625 8.8125 L 10.3125 8.8125 L 10.3125 8.125 C 10.3125 7.742188 10.617188 7.4375 11 7.4375 C 11.382812 7.4375 11.6875 7.742188 11.6875 8.125 L 11.6875 8.8125 C 11.324219 8.8125 10.972656 8.957031 10.714844 9.214844 C 10.457031 9.472656 10.3125 9.824219 10.3125 10.1875 L 11 10.1875 C 11 9.804688 11.304688 9.5 11.6875 9.5 L 12.375 9.5 L 12.375 8.125 C 12.375 7.761719 12.230469 7.410156 11.972656 7.152344 C 11.714844 6.894531 11.363281 6.75 11 6.75 M 10.65625 10.875 C 10.476562 10.886719 10.335938 11.039062 10.335938 11.21875 C 10.335938 11.398438 10.476562 11.550781 10.65625 11.5625 C 10.835938 11.550781 10.976562 11.398438 10.976562 11.21875 C 10.976562 11.039062 10.835938 10.886719 10.65625 10.875 "/>
</svg>
