<?xml version="1.0" encoding="UTF-8"?>
<svg xmlns="http://www.w3.org/2000/svg" xmlns:xlink="http://www.w3.org/1999/xlink" width="16" height="16" viewBox="0 0 16 16">
<path fill="none" stroke-width="1.000068" stroke-linecap="round" stroke-linejoin="round" stroke="rgb(48.235294%, 43.529412%, 39.215687%)" stroke-opacity="1" stroke-miterlimit="4" d="M 6.5 2.5 L 5.5 3.5 L 5.5 29.5 L 6.5 30.5 L 26.5 30.5 L 27.5 29.5 L 27.5 10.5 L 19.5 2.5 Z M 6.5 2.5 " transform="matrix(0.5, 0, 0, 0.5, 0, 0)"/>
<path fill="none" stroke-width="1.000068" stroke-linecap="round" stroke-linejoin="round" stroke="rgb(48.235294%, 43.529412%, 39.215687%)" stroke-opacity="1" stroke-miterlimit="4" d="M 19.5 2.5 L 27.5 10.5 L 20.5 10.5 L 19.5 9.5 Z M 19.5 2.5 " transform="matrix(0.5, 0, 0, 0.5, 0, 0)"/>
<path fill-rule="nonzero" fill="rgb(99.215686%, 50.196081%, 9.803922%)" fill-opacity="1" d="M 7.5625 5.375 C 7.199219 5.375 6.847656 5.519531 6.589844 5.777344 C 6.332031 6.035156 6.1875 6.386719 6.1875 6.75 L 8.25 6.75 L 8.25 7.4375 L 5.5 7.4375 C 5.136719 7.4375 4.785156 7.582031 4.527344 7.839844 C 4.269531 8.097656 4.125 8.449219 4.125 8.8125 L 4.125 10.1875 C 4.125 10.550781 4.269531 10.902344 4.527344 11.160156 C 4.785156 11.417969 5.136719 11.5625 5.5 11.5625 L 5.5 10.875 C 5.5 10.289062 5.75 9.734375 6.1875 9.34375 L 6.191406 9.34375 C 6.28125 9.261719 6.378906 9.191406 6.484375 9.125 C 6.585938 9.058594 6.695312 9.003906 6.808594 8.960938 C 6.828125 8.949219 6.847656 8.945312 6.871094 8.9375 C 7.09375 8.855469 7.328125 8.8125 7.566406 8.8125 L 10.316406 8.8125 L 10.316406 6.75 C 10.316406 6.386719 10.171875 6.035156 9.914062 5.777344 C 9.65625 5.519531 9.304688 5.375 8.941406 5.375 Z M 7.5625 5.71875 C 7.753906 5.71875 7.90625 5.871094 7.90625 6.0625 C 7.90625 6.152344 7.871094 6.242188 7.804688 6.304688 C 7.742188 6.371094 7.652344 6.40625 7.5625 6.40625 C 7.472656 6.40625 7.382812 6.371094 7.320312 6.304688 C 7.253906 6.242188 7.21875 6.152344 7.21875 6.0625 C 7.21875 5.871094 7.371094 5.71875 7.5625 5.71875 Z M 11 9.5 L 9.96875 10.53125 L 10.453125 11.015625 L 11 10.472656 L 11 12.9375 L 10.3125 12.9375 L 10.3125 13.625 L 12.375 13.625 L 12.375 12.9375 L 11.6875 12.9375 L 11.6875 9.5 Z M 11 9.5 "/>
<path fill-rule="nonzero" fill="rgb(99.215686%, 50.196081%, 9.803922%)" fill-opacity="1" d="M 8.25 9.5 C 7.867188 9.5 7.476562 9.691406 7.238281 10.050781 C 6.992188 10.410156 6.875 10.90625 6.875 11.5625 C 6.875 12.21875 6.992188 12.714844 7.238281 13.074219 C 7.460938 13.414062 7.839844 13.621094 8.25 13.625 C 8.632812 13.625 9.023438 13.433594 9.261719 13.074219 C 9.507812 12.714844 9.625 12.21875 9.625 11.5625 C 9.625 10.90625 9.507812 10.410156 9.261719 10.050781 C 9.039062 9.710938 8.660156 9.503906 8.25 9.5 Z M 8.25 10.1875 C 8.433594 10.1875 8.566406 10.238281 8.695312 10.433594 C 8.71875 10.46875 8.738281 10.515625 8.761719 10.566406 L 7.574219 11.753906 C 7.570312 11.6875 7.5625 11.632812 7.5625 11.5625 C 7.5625 10.992188 7.675781 10.628906 7.804688 10.433594 C 7.933594 10.238281 8.066406 10.1875 8.25 10.1875 Z M 8.925781 11.371094 C 8.929688 11.4375 8.9375 11.492188 8.9375 11.5625 C 8.9375 12.132812 8.824219 12.496094 8.695312 12.691406 C 8.566406 12.882812 8.433594 12.9375 8.25 12.9375 C 8.066406 12.9375 7.933594 12.886719 7.804688 12.691406 C 7.78125 12.65625 7.761719 12.609375 7.738281 12.558594 Z M 8.925781 11.371094 "/>
</svg>
