<?xml version="1.0" encoding="UTF-8"?>
<svg xmlns="http://www.w3.org/2000/svg" xmlns:xlink="http://www.w3.org/1999/xlink" width="16" height="16" viewBox="0 0 16 16">
<path fill="none" stroke-width="1.000068" stroke-linecap="round" stroke-linejoin="round" stroke="rgb(48.235294%, 43.529412%, 39.215687%)" stroke-opacity="1" stroke-miterlimit="4" d="M 6.5 2.5 L 5.5 3.5 L 5.5 29.5 L 6.5 30.5 L 26.5 30.5 L 27.5 29.5 L 27.5 10.5 L 19.5 2.5 Z M 6.5 2.5 " transform="matrix(0.5, 0, 0, 0.5, 0, 0)"/>
<path fill="none" stroke-width="1.000068" stroke-linecap="round" stroke-linejoin="round" stroke="rgb(48.235294%, 43.529412%, 39.215687%)" stroke-opacity="1" stroke-miterlimit="4" d="M 19.5 2.5 L 27.5 10.5 L 20.5 10.5 L 19.5 9.5 Z M 19.5 2.5 " transform="matrix(0.5, 0, 0, 0.5, 0, 0)"/>
<path fill-rule="nonzero" fill="rgb(48.235294%, 43.529412%, 39.215687%)" fill-opacity="1" d="M 4.191406 5.140625 C 4.167969 5.140625 4.152344 5.140625 4.140625 5.15625 C 3.8125 5.484375 8.3125 9.613281 8.3125 9.613281 L 10 11.21875 C 9.453125 12.488281 11.160156 12.507812 11.527344 13.152344 C 11.691406 13.433594 11.492188 13.816406 11.199219 13.835938 C 11.78125 14.03125 12.570312 12.90625 12.332031 12.277344 C 12.050781 11.519531 11.761719 11.195312 11.226562 10.964844 C 11.007812 10.867188 10.445312 10.863281 10.25 10.96875 L 8.683594 9.242188 C 8.683594 9.242188 4.828125 5.195312 4.191406 5.140625 M 4.898438 9.152344 C 4.75 9.152344 4.703125 9.367188 4.703125 9.664062 C 4.734375 10.246094 5.101562 11.953125 6.9375 13.195312 C 8.484375 14.242188 11.316406 13.863281 11.269531 13.269531 C 10.644531 12.496094 9.605469 12.976562 9.589844 11.128906 C 8.988281 11.136719 8.335938 11.039062 8.359375 11.292969 C 8.460938 12.363281 6.769531 11.59375 6.113281 10.503906 C 5.453125 9.507812 5.089844 9.152344 4.898438 9.152344 M 7.3125 10.46875 C 7.210938 10.46875 7.128906 10.503906 7.089844 10.570312 C 7.015625 10.699219 7.140625 10.914062 7.367188 11.046875 C 7.597656 11.179688 7.847656 11.179688 7.921875 11.050781 C 8 10.914062 7.875 10.699219 7.644531 10.570312 C 7.53125 10.503906 7.3125 10.570312 7.3125 10.46875 "/>
</svg>
