<?xml version="1.0" encoding="UTF-8"?>
<svg xmlns="http://www.w3.org/2000/svg" xmlns:xlink="http://www.w3.org/1999/xlink" width="16" height="16" viewBox="0 0 16 16">
<path fill="none" stroke-width="1.000068" stroke-linecap="round" stroke-linejoin="round" stroke="rgb(48.235294%, 43.529412%, 39.215687%)" stroke-opacity="1" stroke-miterlimit="4" d="M 6.5 2.5 L 5.5 3.5 L 5.5 29.5 L 6.5 30.5 L 26.5 30.5 L 27.5 29.5 L 27.5 10.5 L 19.5 2.5 Z M 6.5 2.5 " transform="matrix(0.5, 0, 0, 0.5, 0, 0)"/>
<path fill="none" stroke-width="1.000068" stroke-linecap="round" stroke-linejoin="round" stroke="rgb(48.235294%, 43.529412%, 39.215687%)" stroke-opacity="1" stroke-miterlimit="4" d="M 19.5 2.5 L 27.5 10.5 L 20.5 10.5 L 19.5 9.5 Z M 19.5 2.5 " transform="matrix(0.5, 0, 0, 0.5, 0, 0)"/>
<path fill-rule="nonzero" fill="rgb(2.352941%, 40.000001%, 47.058824%)" fill-opacity="1" d="M 10.785156 5.507812 L 9.671875 6.617188 L 6.257812 6.617188 C 6.089844 6.148438 5.605469 5.863281 5.113281 5.949219 C 4.617188 6.035156 4.253906 6.460938 4.253906 6.964844 C 4.253906 7.398438 4.53125 7.789062 4.941406 7.933594 L 4.941406 12.804688 L 7.003906 12.804688 L 7.003906 13.492188 L 9.066406 13.492188 L 9.066406 12.804688 L 11.128906 12.804688 L 11.128906 8.078125 L 12.242188 6.964844 Z M 10.785156 6.476562 L 11.273438 6.964844 L 10.785156 7.449219 L 10.300781 6.964844 Z M 5.285156 6.617188 C 5.414062 6.613281 5.53125 6.679688 5.597656 6.789062 C 5.660156 6.894531 5.660156 7.03125 5.59375 7.140625 C 5.53125 7.25 5.410156 7.3125 5.285156 7.308594 C 5.101562 7.300781 4.953125 7.148438 4.957031 6.960938 C 4.957031 6.777344 5.101562 6.625 5.285156 6.617188 M 6.257812 7.304688 L 9.671875 7.304688 L 10.445312 8.078125 L 10.445312 12.117188 L 9.070312 12.117188 L 9.070312 11.429688 L 7.007812 11.429688 L 7.007812 12.117188 L 5.632812 12.117188 L 5.632812 7.933594 C 5.921875 7.828125 6.152344 7.597656 6.257812 7.304688 M 7.691406 12.117188 L 8.382812 12.117188 L 8.382812 12.804688 L 7.695312 12.804688 Z M 7.691406 12.117188 "/>
</svg>
