<?xml version="1.0" encoding="UTF-8"?>
<svg xmlns="http://www.w3.org/2000/svg" xmlns:xlink="http://www.w3.org/1999/xlink" width="16" height="16" viewBox="0 0 16 16">
<path fill="none" stroke-width="1.000068" stroke-linecap="round" stroke-linejoin="round" stroke="rgb(48.235294%, 43.529412%, 39.215687%)" stroke-opacity="1" stroke-miterlimit="4" d="M 6.5 2.5 L 5.5 3.5 L 5.5 29.5 L 6.5 30.5 L 26.5 30.5 L 27.5 29.5 L 27.5 10.5 L 19.5 2.5 Z M 6.5 2.5 " transform="matrix(0.5, 0, 0, 0.5, 0, 0)"/>
<path fill="none" stroke-width="1.000068" stroke-linecap="round" stroke-linejoin="round" stroke="rgb(48.235294%, 43.529412%, 39.215687%)" stroke-opacity="1" stroke-miterlimit="4" d="M 19.5 2.5 L 27.5 10.5 L 20.5 10.5 L 19.5 9.5 Z M 19.5 2.5 " transform="matrix(0.5, 0, 0, 0.5, 0, 0)"/>
<path fill-rule="nonzero" fill="rgb(56.078434%, 24.705882%, 44.313726%)" fill-opacity="1" d="M 6.1875 5.375 C 5.808594 5.375 5.5 5.683594 5.5 6.0625 C 5.5 6.441406 5.808594 6.75 6.1875 6.75 C 6.566406 6.75 6.875 6.441406 6.875 6.0625 C 6.875 5.683594 6.566406 5.375 6.1875 5.375 M 9.625 5.375 L 8.289062 6.449219 L 10.074219 8.660156 L 8.402344 10.339844 L 9.625 11.5625 L 12.375 8.8125 Z M 5.15625 8.125 C 4.882812 8.125 4.621094 8.234375 4.425781 8.425781 C 4.234375 8.621094 4.125 8.882812 4.125 9.15625 C 4.125 9.429688 4.234375 9.691406 4.425781 9.886719 C 4.621094 10.078125 4.882812 10.1875 5.15625 10.1875 C 5.429688 10.1875 5.691406 10.078125 5.886719 9.886719 C 6.078125 9.691406 6.1875 9.429688 6.1875 9.15625 C 6.1875 8.882812 6.078125 8.621094 5.886719 8.425781 C 5.691406 8.234375 5.429688 8.125 5.15625 8.125 M 7.21875 11.5625 C 6.945312 11.5625 6.683594 11.671875 6.488281 11.863281 C 6.296875 12.058594 6.1875 12.320312 6.1875 12.59375 C 6.1875 12.867188 6.296875 13.128906 6.488281 13.324219 C 6.683594 13.515625 6.945312 13.625 7.21875 13.625 C 7.492188 13.625 7.753906 13.515625 7.949219 13.324219 C 8.140625 13.128906 8.25 12.867188 8.25 12.59375 C 8.25 12.320312 8.140625 12.058594 7.949219 11.863281 C 7.753906 11.671875 7.492188 11.5625 7.21875 11.5625 "/>
</svg>
