<?xml version="1.0" encoding="UTF-8"?>
<svg xmlns="http://www.w3.org/2000/svg" xmlns:xlink="http://www.w3.org/1999/xlink" width="16" height="16" viewBox="0 0 16 16">
<path fill="none" stroke-width="1.000068" stroke-linecap="round" stroke-linejoin="round" stroke="rgb(48.235294%, 43.529412%, 39.215687%)" stroke-opacity="1" stroke-miterlimit="4" d="M 6.5 2.5 L 5.5 3.5 L 5.5 29.5 L 6.5 30.5 L 26.5 30.5 L 27.5 29.5 L 27.5 10.5 L 19.5 2.5 Z M 6.5 2.5 " transform="matrix(0.5, 0, 0, 0.5, 0, 0)"/>
<path fill="none" stroke-width="1.000068" stroke-linecap="round" stroke-linejoin="round" stroke="rgb(48.235294%, 43.529412%, 39.215687%)" stroke-opacity="1" stroke-miterlimit="4" d="M 19.5 2.5 L 27.5 10.5 L 20.5 10.5 L 19.5 9.5 Z M 19.5 2.5 " transform="matrix(0.5, 0, 0, 0.5, 0, 0)"/>
<path fill-rule="nonzero" fill="rgb(28.235295%, 72.549021%, 78.039217%)" fill-opacity="1" d="M 4.125 6.0625 L 4.125 12.9375 L 12.375 12.9375 L 12.375 6.0625 Z M 5.285156 6.75 L 11.214844 6.75 L 8.25 9.714844 Z M 4.8125 7.222656 L 7.027344 9.433594 L 4.8125 11.324219 Z M 11.6875 7.222656 L 11.6875 11.324219 L 9.472656 9.4375 Z M 7.496094 9.90625 L 8.011719 10.425781 L 8.25 10.679688 L 8.488281 10.425781 L 9 9.90625 L 11.6875 12.207031 L 11.6875 12.25 L 4.8125 12.25 L 4.8125 12.207031 Z M 7.496094 9.90625 "/>
</svg>
