<?xml version="1.0" encoding="UTF-8"?>
<svg xmlns="http://www.w3.org/2000/svg" xmlns:xlink="http://www.w3.org/1999/xlink" width="16" height="16" viewBox="0 0 16 16">
<path fill="none" stroke-width="1.000068" stroke-linecap="round" stroke-linejoin="round" stroke="rgb(48.235294%, 43.529412%, 39.215687%)" stroke-opacity="1" stroke-miterlimit="4" d="M 6.5 2.5 L 5.5 3.5 L 5.5 29.5 L 6.5 30.5 L 26.5 30.5 L 27.5 29.5 L 27.5 10.5 L 19.5 2.5 Z M 6.5 2.5 " transform="matrix(0.5, 0, 0, 0.5, 0, 0)"/>
<path fill="none" stroke-width="1.000068" stroke-linecap="round" stroke-linejoin="round" stroke="rgb(48.235294%, 43.529412%, 39.215687%)" stroke-opacity="1" stroke-miterlimit="4" d="M 19.5 2.5 L 27.5 10.5 L 20.5 10.5 L 19.5 9.5 Z M 19.5 2.5 " transform="matrix(0.5, 0, 0, 0.5, 0, 0)"/>
<path fill-rule="nonzero" fill="rgb(48.235294%, 43.529412%, 39.215687%)" fill-opacity="1" d="M 4.125 5.71875 L 4.125 13.28125 L 12.375 13.28125 L 12.375 5.71875 Z M 4.8125 7.09375 L 11.6875 7.09375 L 11.6875 12.59375 L 4.8125 12.59375 Z M 6.1875 7.78125 L 6.1875 9.535156 L 7.914062 9.535156 L 7.914062 7.78125 Z M 8.601562 7.78125 L 8.601562 9.535156 L 10.3125 9.535156 L 10.3125 7.78125 Z M 6.1875 10.152344 L 6.1875 11.90625 L 7.914062 11.90625 L 7.914062 10.152344 Z M 8.601562 10.152344 L 8.601562 11.90625 L 10.3125 11.90625 L 10.3125 10.152344 Z M 8.601562 10.152344 "/>
</svg>
