<?xml version="1.0" encoding="UTF-8"?>
<svg xmlns="http://www.w3.org/2000/svg" xmlns:xlink="http://www.w3.org/1999/xlink" width="16" height="16" viewBox="0 0 16 16">
<path fill="none" stroke-width="1.000068" stroke-linecap="round" stroke-linejoin="round" stroke="rgb(48.235294%, 43.529412%, 39.215687%)" stroke-opacity="1" stroke-miterlimit="4" d="M 6.5 2.5 L 5.5 3.5 L 5.5 29.5 L 6.5 30.5 L 26.5 30.5 L 27.5 29.5 L 27.5 10.5 L 19.5 2.5 Z M 6.5 2.5 " transform="matrix(0.5, 0, 0, 0.5, 0, 0)"/>
<path fill="none" stroke-width="1.000068" stroke-linecap="round" stroke-linejoin="round" stroke="rgb(48.235294%, 43.529412%, 39.215687%)" stroke-opacity="1" stroke-miterlimit="4" d="M 19.5 2.5 L 27.5 10.5 L 20.5 10.5 L 19.5 9.5 Z M 19.5 2.5 " transform="matrix(0.5, 0, 0, 0.5, 0, 0)"/>
<path fill-rule="nonzero" fill="rgb(48.235294%, 43.529412%, 39.215687%)" fill-opacity="1" d="M 12.371094 6.511719 L 7.558594 6.515625 L 5.878906 11.117188 L 4.8125 9.261719 L 4.125 9.261719 L 4.125 9.949219 L 4.421875 9.949219 L 5.886719 12.488281 L 7.964844 7.199219 L 12.375 7.199219 Z M 9.621094 7.886719 C 9.074219 7.886719 8.550781 8.101562 8.164062 8.488281 C 7.777344 8.875 7.558594 9.402344 7.558594 9.949219 C 7.558594 10.496094 7.777344 11.023438 8.164062 11.410156 C 8.550781 11.796875 9.074219 12.011719 9.621094 12.011719 C 10.15625 12.011719 10.632812 11.804688 10.996094 11.476562 L 10.996094 12.011719 L 11.683594 12.011719 L 11.683594 7.886719 L 10.996094 7.886719 L 10.996094 8.421875 C 10.621094 8.078125 10.132812 7.886719 9.621094 7.886719 M 9.621094 8.574219 C 9.988281 8.574219 10.339844 8.71875 10.597656 8.976562 C 10.855469 9.234375 11 9.585938 10.996094 9.949219 C 11 10.3125 10.855469 10.664062 10.597656 10.921875 C 10.339844 11.179688 9.988281 11.324219 9.621094 11.324219 C 9.257812 11.324219 8.90625 11.179688 8.648438 10.921875 C 8.390625 10.664062 8.246094 10.3125 8.246094 9.949219 C 8.246094 9.585938 8.390625 9.234375 8.648438 8.976562 C 8.90625 8.71875 9.257812 8.574219 9.621094 8.574219 "/>
</svg>
