<?xml version="1.0" encoding="UTF-8"?>
<svg xmlns="http://www.w3.org/2000/svg" xmlns:xlink="http://www.w3.org/1999/xlink" width="16" height="16" viewBox="0 0 16 16">
<path fill="none" stroke-width="1.000068" stroke-linecap="round" stroke-linejoin="round" stroke="rgb(48.235294%, 43.529412%, 39.215687%)" stroke-opacity="1" stroke-miterlimit="4" d="M 6.5 2.5 L 5.5 3.5 L 5.5 29.5 L 6.5 30.5 L 26.5 30.5 L 27.5 29.5 L 27.5 10.5 L 19.5 2.5 Z M 6.5 2.5 " transform="matrix(0.5, 0, 0, 0.5, 0, 0)"/>
<path fill="none" stroke-width="1.000068" stroke-linecap="round" stroke-linejoin="round" stroke="rgb(48.235294%, 43.529412%, 39.215687%)" stroke-opacity="1" stroke-miterlimit="4" d="M 19.5 2.5 L 27.5 10.5 L 20.5 10.5 L 19.5 9.5 Z M 19.5 2.5 " transform="matrix(0.5, 0, 0, 0.5, 0, 0)"/>
<path fill-rule="nonzero" fill="rgb(45.09804%, 76.862746%, 56.078434%)" fill-opacity="1" d="M 4.125 5.375 L 4.125 13.625 L 12.375 13.625 L 12.375 5.375 Z M 4.8125 6.0625 L 6.128906 6.0625 C 6.164062 6.171875 6.1875 6.289062 6.1875 6.40625 C 6.1875 6.976562 5.726562 7.4375 5.15625 7.4375 C 5.039062 7.4375 4.921875 7.414062 4.8125 7.378906 Z M 6.835938 6.0625 L 11.683594 6.0625 L 11.683594 12.9375 L 4.808594 12.9375 L 4.808594 12.398438 L 5.722656 11.507812 L 6.691406 10.539062 L 7.078125 10.828125 L 7.835938 11.5625 L 9.621094 9.914062 L 12.371094 12.589844 L 11.683594 10.875 L 9.621094 8.8125 L 7.835938 10.601562 L 6.734375 9.5 L 4.8125 11.425781 L 4.8125 8.089844 C 5.316406 8.191406 5.839844 8.0625 6.242188 7.738281 C 6.640625 7.410156 6.875 6.921875 6.875 6.40625 C 6.871094 6.289062 6.859375 6.175781 6.835938 6.0625 "/>
</svg>
