<?xml version="1.0" encoding="UTF-8"?>
<svg xmlns="http://www.w3.org/2000/svg" xmlns:xlink="http://www.w3.org/1999/xlink" width="16" height="16" viewBox="0 0 16 16">
<path fill="none" stroke-width="1.000068" stroke-linecap="round" stroke-linejoin="round" stroke="rgb(48.235294%, 43.529412%, 39.215687%)" stroke-opacity="1" stroke-miterlimit="4" d="M 6.5 2.5 L 5.5 3.5 L 5.5 29.5 L 6.5 30.5 L 26.5 30.5 L 27.5 29.5 L 27.5 10.5 L 19.5 2.5 Z M 6.5 2.5 " transform="matrix(0.5, 0, 0, 0.5, 0, 0)"/>
<path fill="none" stroke-width="1.000068" stroke-linecap="round" stroke-linejoin="round" stroke="rgb(48.235294%, 43.529412%, 39.215687%)" stroke-opacity="1" stroke-miterlimit="4" d="M 19.5 2.5 L 27.5 10.5 L 20.5 10.5 L 19.5 9.5 Z M 19.5 2.5 " transform="matrix(0.5, 0, 0, 0.5, 0, 0)"/>
<path fill-rule="nonzero" fill="rgb(99.215686%, 50.196081%, 9.803922%)" fill-opacity="1" d="M 7.90625 5.375 L 7.90625 6.148438 C 7.328125 6.199219 6.871094 6.347656 6.53125 6.621094 C 6.15625 6.917969 5.972656 7.359375 5.972656 7.929688 C 5.972656 8.734375 6.449219 9.25 7.433594 9.5 L 7.90625 9.628906 L 7.90625 12.164062 C 7.296875 12.113281 6.722656 11.976562 6.1875 11.714844 L 5.949219 12.335938 C 6.171875 12.472656 6.46875 12.597656 6.832031 12.699219 C 7.152344 12.789062 7.511719 12.828125 7.90625 12.851562 L 7.90625 13.625 L 8.59375 13.625 L 8.59375 12.851562 C 9.175781 12.804688 9.648438 12.625 9.988281 12.316406 C 10.359375 11.984375 10.550781 11.503906 10.550781 10.875 C 10.550781 10.367188 10.410156 9.988281 10.140625 9.714844 C 9.867188 9.4375 9.464844 9.238281 8.9375 9.113281 L 8.59375 9.027344 L 8.59375 6.792969 C 8.859375 6.8125 9.136719 6.847656 9.386719 6.921875 C 9.628906 6.984375 9.859375 7.078125 10.074219 7.199219 L 10.289062 6.578125 C 9.851562 6.304688 9.285156 6.140625 8.59375 6.105469 L 8.59375 5.375 Z M 7.757812 6.816406 C 7.800781 6.804688 7.859375 6.820312 7.90625 6.816406 L 7.90625 8.855469 L 7.714844 8.8125 C 7.390625 8.734375 7.148438 8.617188 6.984375 8.46875 C 6.824219 8.316406 6.746094 8.113281 6.746094 7.867188 C 6.746094 7.277344 7.078125 6.925781 7.757812 6.8125 M 8.59375 9.777344 L 8.722656 9.820312 C 9.117188 9.921875 9.390625 10.054688 9.539062 10.230469 C 9.691406 10.402344 9.753906 10.636719 9.757812 10.917969 C 9.757812 11.695312 9.367188 12.109375 8.59375 12.1875 Z M 8.59375 9.777344 "/>
</svg>
