<?xml version="1.0" encoding="UTF-8"?>
<svg xmlns="http://www.w3.org/2000/svg" xmlns:xlink="http://www.w3.org/1999/xlink" width="16" height="16" viewBox="0 0 16 16">
<path fill="none" stroke-width="1.000068" stroke-linecap="round" stroke-linejoin="round" stroke="rgb(48.235294%, 43.529412%, 39.215687%)" stroke-opacity="1" stroke-miterlimit="4" d="M 6.5 2.5 L 5.5 3.5 L 5.5 29.5 L 6.5 30.5 L 26.5 30.5 L 27.5 29.5 L 27.5 10.5 L 19.5 2.5 Z M 6.5 2.5 " transform="matrix(0.5, 0, 0, 0.5, 0, 0)"/>
<path fill="none" stroke-width="1.000068" stroke-linecap="round" stroke-linejoin="round" stroke="rgb(48.235294%, 43.529412%, 39.215687%)" stroke-opacity="1" stroke-miterlimit="4" d="M 19.5 2.5 L 27.5 10.5 L 20.5 10.5 L 19.5 9.5 Z M 19.5 2.5 " transform="matrix(0.5, 0, 0, 0.5, 0, 0)"/>
<path fill-rule="nonzero" fill="rgb(99.215686%, 50.196081%, 9.803922%)" fill-opacity="1" d="M 7.824219 5.34375 C 7.6875 5.34375 7.5625 5.429688 7.507812 5.558594 C 7.457031 5.683594 7.488281 5.832031 7.585938 5.929688 L 9.789062 8.132812 C 9.734375 8.128906 9.679688 8.128906 9.625 8.128906 L 4.46875 8.128906 C 4.289062 8.140625 4.148438 8.289062 4.148438 8.472656 C 4.148438 8.652344 4.289062 8.800781 4.46875 8.816406 L 7.761719 8.816406 L 4.226562 12.351562 C 4.09375 12.488281 4.09375 12.707031 4.226562 12.839844 C 4.363281 12.972656 4.578125 12.972656 4.714844 12.839844 L 6.886719 10.664062 C 6.882812 10.734375 6.875 10.804688 6.875 10.878906 C 6.875 12.394531 8.105469 13.628906 9.625 13.628906 C 11.144531 13.628906 12.375 12.394531 12.375 10.878906 C 12.375 10.222656 12.140625 9.589844 11.714844 9.09375 L 11.71875 9.085938 L 11.625 8.992188 C 11.582031 8.945312 11.535156 8.898438 11.488281 8.851562 L 8.074219 5.441406 C 8.007812 5.375 7.917969 5.335938 7.824219 5.339844 Z M 9.625 8.816406 C 10.132812 8.816406 10.617188 9.003906 10.996094 9.339844 L 11.15625 9.496094 C 11.808594 10.21875 11.867188 11.300781 11.292969 12.089844 C 10.722656 12.878906 9.675781 13.160156 8.785156 12.765625 C 7.894531 12.367188 7.402344 11.402344 7.605469 10.449219 C 7.808594 9.496094 8.652344 8.816406 9.625 8.816406 M 9.625 10.191406 C 9.246094 10.191406 8.9375 10.5 8.9375 10.878906 C 8.9375 11.257812 9.246094 11.566406 9.625 11.566406 C 10.003906 11.566406 10.3125 11.257812 10.3125 10.878906 C 10.3125 10.5 10.003906 10.191406 9.625 10.191406 "/>
</svg>
