<?xml version="1.0" encoding="UTF-8"?>
<svg xmlns="http://www.w3.org/2000/svg" xmlns:xlink="http://www.w3.org/1999/xlink" width="16" height="16" viewBox="0 0 16 16">
<path fill="none" stroke-width="1.000068" stroke-linecap="round" stroke-linejoin="round" stroke="rgb(48.235294%, 43.529412%, 39.215687%)" stroke-opacity="1" stroke-miterlimit="4" d="M 6.5 2.5 L 5.5 3.5 L 5.5 29.5 L 6.5 30.5 L 26.5 30.5 L 27.5 29.5 L 27.5 10.5 L 19.5 2.5 Z M 6.5 2.5 " transform="matrix(0.5, 0, 0, 0.5, 0, 0)"/>
<path fill="none" stroke-width="1.000068" stroke-linecap="round" stroke-linejoin="round" stroke="rgb(48.235294%, 43.529412%, 39.215687%)" stroke-opacity="1" stroke-miterlimit="4" d="M 19.5 2.5 L 27.5 10.5 L 20.5 10.5 L 19.5 9.5 Z M 19.5 2.5 " transform="matrix(0.5, 0, 0, 0.5, 0, 0)"/>
<path fill-rule="nonzero" fill="rgb(62.7451%, 29.019609%, 45.09804%)" fill-opacity="1" d="M 4.8125 5.375 C 4.429688 5.375 4.125 5.679688 4.125 6.0625 L 4.125 12.9375 C 4.125 13.320312 4.429688 13.625 4.8125 13.625 L 10.3125 13.625 C 10.695312 13.625 11 13.320312 11 12.9375 L 11.6875 12.9375 C 12.070312 12.9375 12.375 12.632812 12.375 12.25 L 12.375 10.875 C 12.375 10.746094 12.328125 10.632812 12.269531 10.53125 C 12.328125 10.429688 12.375 10.316406 12.375 10.1875 L 12.375 8.8125 C 12.375 8.683594 12.328125 8.570312 12.269531 8.46875 C 12.328125 8.367188 12.375 8.253906 12.375 8.125 L 12.375 6.75 C 12.375 6.367188 12.070312 6.0625 11.6875 6.0625 L 11 6.0625 C 11 5.679688 10.695312 5.375 10.3125 5.375 Z M 4.8125 6.0625 L 10.3125 6.0625 L 10.3125 12.9375 L 4.8125 12.9375 Z M 5.5 6.75 L 5.5 8.125 L 9.625 8.125 L 9.625 6.75 Z M 11 6.75 L 11.6875 6.75 L 11.6875 8.125 L 11 8.125 Z M 5.5 8.8125 L 5.5 9.5 L 9.625 9.5 L 9.625 8.8125 Z M 11 8.8125 L 11.6875 8.8125 L 11.6875 10.1875 L 11 10.1875 Z M 5.5 10.1875 L 5.5 10.875 L 9.625 10.875 L 9.625 10.1875 Z M 11 10.875 L 11.6875 10.875 L 11.6875 12.25 L 11 12.25 Z M 5.5 11.5625 L 5.5 12.25 L 9.625 12.25 L 9.625 11.5625 Z M 5.5 11.5625 "/>
</svg>
