<?xml version="1.0" encoding="UTF-8"?>
<svg xmlns="http://www.w3.org/2000/svg" xmlns:xlink="http://www.w3.org/1999/xlink" width="16" height="16" viewBox="0 0 16 16">
<path fill="none" stroke-width="1.000068" stroke-linecap="round" stroke-linejoin="round" stroke="rgb(48.235294%, 43.529412%, 39.215687%)" stroke-opacity="1" stroke-miterlimit="4" d="M 6.5 2.5 L 5.5 3.5 L 5.5 29.5 L 6.5 30.5 L 26.5 30.5 L 27.5 29.5 L 27.5 10.5 L 19.5 2.5 Z M 6.5 2.5 " transform="matrix(0.5, 0, 0, 0.5, 0, 0)"/>
<path fill="none" stroke-width="1.000068" stroke-linecap="round" stroke-linejoin="round" stroke="rgb(48.235294%, 43.529412%, 39.215687%)" stroke-opacity="1" stroke-miterlimit="4" d="M 19.5 2.5 L 27.5 10.5 L 20.5 10.5 L 19.5 9.5 Z M 19.5 2.5 " transform="matrix(0.5, 0, 0, 0.5, 0, 0)"/>
<path fill-rule="nonzero" fill="rgb(56.078434%, 24.705882%, 44.313726%)" fill-opacity="1" d="M 9.96875 4.34375 L 8.25 6.40625 L 8.9375 6.40625 L 8.9375 7.09375 L 5.5 7.09375 L 5.5 12.59375 L 4.8125 12.59375 L 6.53125 14.65625 L 8.25 12.59375 L 7.5625 12.59375 L 7.5625 11.90625 L 11 11.90625 L 11 6.40625 L 11.6875 6.40625 Z M 9.96875 5.375 L 10.3125 5.71875 L 10.3125 11.21875 L 7.5625 11.21875 L 7.5625 10.53125 L 9.625 10.53125 L 9.625 5.71875 Z M 6.1875 7.78125 L 8.9375 7.78125 L 8.9375 8.46875 L 6.875 8.46875 L 6.875 13.28125 L 6.53125 13.625 L 6.1875 13.28125 Z M 7.5625 9.15625 L 8.9375 9.15625 L 8.9375 9.84375 L 7.5625 9.84375 Z M 7.5625 9.15625 "/>
</svg>
