<?xml version="1.0" encoding="UTF-8"?>
<svg xmlns="http://www.w3.org/2000/svg" xmlns:xlink="http://www.w3.org/1999/xlink" width="16" height="16" viewBox="0 0 16 16">
<path fill="none" stroke-width="1.000068" stroke-linecap="round" stroke-linejoin="round" stroke="rgb(48.235294%, 43.529412%, 39.215687%)" stroke-opacity="1" stroke-miterlimit="4" d="M 6.5 2.5 L 5.5 3.5 L 5.5 29.5 L 6.5 30.5 L 26.5 30.5 L 27.5 29.5 L 27.5 10.5 L 19.5 2.5 Z M 6.5 2.5 " transform="matrix(0.5, 0, 0, 0.5, 0, 0)"/>
<path fill="none" stroke-width="1.000068" stroke-linecap="round" stroke-linejoin="round" stroke="rgb(48.235294%, 43.529412%, 39.215687%)" stroke-opacity="1" stroke-miterlimit="4" d="M 19.5 2.5 L 27.5 10.5 L 20.5 10.5 L 19.5 9.5 Z M 19.5 2.5 " transform="matrix(0.5, 0, 0, 0.5, 0, 0)"/>
<path fill-rule="nonzero" fill="rgb(99.215686%, 50.196081%, 9.803922%)" fill-opacity="1" d="M 11 6.949219 L 8.449219 9.5 L 11 12.050781 L 11.242188 11.804688 L 13.550781 9.5 Z M 11 6.949219 "/>
<path fill-rule="nonzero" fill="rgb(48.235294%, 43.529412%, 39.215687%)" fill-opacity="1" d="M 5.5 5.375 L 5.5 13.625 L 7.90625 13.625 C 8.097656 13.625 8.25 13.46875 8.25 13.28125 L 8.25 7.78125 C 8.25 7.589844 8.09375 7.4375 7.90625 7.4375 L 6.1875 7.4375 L 6.1875 5.375 Z M 6.1875 8.125 L 7.5625 8.125 L 7.5625 12.9375 L 6.1875 12.9375 Z M 3.78125 5.375 C 3.589844 5.375 3.4375 5.53125 3.4375 5.71875 L 3.4375 7.4375 L 2.75 7.4375 L 2.75 8.125 L 3.4375 8.125 L 3.4375 13.625 L 4.125 13.625 L 4.125 8.125 L 4.8125 8.125 L 4.8125 7.4375 L 4.125 7.4375 L 4.125 6.0625 L 4.8125 6.0625 L 4.8125 5.375 Z M 3.78125 5.375 "/>
</svg>
