<?xml version="1.0" encoding="UTF-8"?>
<svg xmlns="http://www.w3.org/2000/svg" xmlns:xlink="http://www.w3.org/1999/xlink" width="16" height="16" viewBox="0 0 16 16">
<path fill="none" stroke-width="1.000068" stroke-linecap="round" stroke-linejoin="round" stroke="rgb(48.235294%, 43.529412%, 39.215687%)" stroke-opacity="1" stroke-miterlimit="4" d="M 6.5 2.5 L 5.5 3.5 L 5.5 29.5 L 6.5 30.5 L 26.5 30.5 L 27.5 29.5 L 27.5 10.5 L 19.5 2.5 Z M 6.5 2.5 " transform="matrix(0.5, 0, 0, 0.5, 0, 0)"/>
<path fill="none" stroke-width="1.000068" stroke-linecap="round" stroke-linejoin="round" stroke="rgb(48.235294%, 43.529412%, 39.215687%)" stroke-opacity="1" stroke-miterlimit="4" d="M 19.5 2.5 L 27.5 10.5 L 20.5 10.5 L 19.5 9.5 Z M 19.5 2.5 " transform="matrix(0.5, 0, 0, 0.5, 0, 0)"/>
<path fill-rule="nonzero" fill="rgb(48.235294%, 43.529412%, 39.215687%)" fill-opacity="1" d="M 4.125 5.375 L 4.125 13.625 L 12.375 13.625 L 12.375 5.375 Z M 4.8125 7.4375 L 11.6875 7.4375 L 11.6875 12.9375 C 9.246094 12.914062 7.253906 12.886719 4.8125 12.9375 Z M 4.8125 7.4375 "/>
<path fill-rule="nonzero" fill="rgb(48.235294%, 43.529412%, 39.215687%)" fill-opacity="1" d="M 8.484375 11.007812 L 7.773438 10.304688 L 7.78125 10.296875 C 8.253906 9.769531 8.605469 9.148438 8.816406 8.472656 L 9.636719 8.472656 L 9.636719 7.914062 L 7.679688 7.914062 L 7.679688 7.355469 L 7.121094 7.355469 L 7.121094 7.914062 L 5.167969 7.914062 L 5.167969 8.46875 L 8.285156 8.46875 C 8.09375 9.023438 7.792969 9.53125 7.402344 9.96875 C 7.148438 9.683594 6.929688 9.371094 6.757812 9.03125 L 6.199219 9.03125 C 6.40625 9.496094 6.6875 9.925781 7.03125 10.300781 L 5.609375 11.703125 L 6.007812 12.101562 L 7.402344 10.703125 L 8.273438 11.574219 Z M 10.054688 9.589844 L 9.496094 9.589844 L 8.238281 12.941406 L 8.800781 12.941406 L 9.113281 12.101562 L 10.4375 12.101562 L 10.753906 12.941406 L 11.308594 12.941406 Z M 9.324219 11.546875 L 9.777344 10.335938 L 10.226562 11.546875 Z M 9.324219 11.546875 "/>
</svg>
