<?xml version="1.0" encoding="UTF-8"?>
<svg xmlns="http://www.w3.org/2000/svg" xmlns:xlink="http://www.w3.org/1999/xlink" width="16" height="16" viewBox="0 0 16 16">
<path fill="none" stroke-width="1.000068" stroke-linecap="round" stroke-linejoin="round" stroke="rgb(48.235294%, 43.529412%, 39.215687%)" stroke-opacity="1" stroke-miterlimit="4" d="M 6.5 2.5 L 5.5 3.5 L 5.5 29.5 L 6.5 30.5 L 26.5 30.5 L 27.5 29.5 L 27.5 10.5 L 19.5 2.5 Z M 6.5 2.5 " transform="matrix(0.5, 0, 0, 0.5, 0, 0)"/>
<path fill="none" stroke-width="1.000068" stroke-linecap="round" stroke-linejoin="round" stroke="rgb(48.235294%, 43.529412%, 39.215687%)" stroke-opacity="1" stroke-miterlimit="4" d="M 19.5 2.5 L 27.5 10.5 L 20.5 10.5 L 19.5 9.5 Z M 19.5 2.5 " transform="matrix(0.5, 0, 0, 0.5, 0, 0)"/>
<path fill-rule="nonzero" fill="rgb(48.235294%, 43.529412%, 39.215687%)" fill-opacity="1" d="M 8.890625 8.085938 C 8.90625 7.984375 8.914062 7.886719 8.914062 7.78125 C 8.914062 7.679688 8.902344 7.578125 8.890625 7.480469 L 9.566406 6.96875 C 9.625 6.921875 9.640625 6.835938 9.601562 6.769531 L 8.96875 5.699219 C 8.925781 5.632812 8.84375 5.601562 8.773438 5.632812 L 7.980469 5.941406 C 7.816406 5.816406 7.632812 5.714844 7.445312 5.636719 L 7.324219 4.820312 C 7.308594 4.742188 7.242188 4.6875 7.164062 4.6875 L 5.894531 4.6875 C 5.816406 4.6875 5.75 4.742188 5.738281 4.820312 L 5.617188 5.636719 C 5.425781 5.714844 5.242188 5.820312 5.078125 5.941406 L 4.285156 5.632812 C 4.214844 5.605469 4.132812 5.632812 4.09375 5.699219 L 3.460938 6.769531 C 3.417969 6.835938 3.433594 6.921875 3.496094 6.96875 L 4.164062 7.480469 C 4.152344 7.582031 4.144531 7.679688 4.144531 7.78125 C 4.144531 7.882812 4.15625 7.984375 4.164062 8.085938 L 3.496094 8.59375 C 3.433594 8.644531 3.417969 8.730469 3.460938 8.796875 L 4.09375 9.863281 C 4.132812 9.929688 4.214844 9.957031 4.285156 9.929688 L 5.078125 9.621094 C 5.246094 9.746094 5.425781 9.847656 5.617188 9.925781 L 5.738281 10.746094 C 5.75 10.820312 5.816406 10.875 5.894531 10.878906 L 7.164062 10.878906 C 7.246094 10.878906 7.3125 10.820312 7.324219 10.746094 L 7.441406 9.925781 C 7.636719 9.847656 7.816406 9.746094 7.980469 9.621094 L 8.773438 9.929688 C 8.84375 9.960938 8.925781 9.929688 8.964844 9.863281 L 9.601562 8.796875 C 9.640625 8.726562 9.625 8.644531 9.566406 8.59375 Z M 6.53125 8.863281 C 5.914062 8.863281 5.417969 8.382812 5.417969 7.78125 C 5.417969 7.183594 5.914062 6.699219 6.53125 6.699219 C 7.148438 6.699219 7.644531 7.183594 7.644531 7.78125 C 7.644531 8.382812 7.148438 8.863281 6.53125 8.863281 "/>
<path fill-rule="nonzero" fill="rgb(48.235294%, 43.529412%, 39.215687%)" fill-opacity="1" d="M 11.625 12.550781 C 11.652344 12.480469 11.675781 12.40625 11.695312 12.335938 C 11.714844 12.257812 11.722656 12.179688 11.730469 12.105469 L 12.308594 11.847656 C 12.359375 11.824219 12.386719 11.765625 12.371094 11.710938 L 12.097656 10.800781 C 12.078125 10.746094 12.027344 10.710938 11.96875 10.71875 L 11.34375 10.804688 C 11.242188 10.683594 11.132812 10.578125 11.007812 10.484375 L 11.0625 9.855469 C 11.066406 9.796875 11.027344 9.746094 10.96875 9.734375 L 10.050781 9.503906 C 9.996094 9.492188 9.9375 9.519531 9.914062 9.574219 L 9.683594 10.15625 C 9.53125 10.179688 9.382812 10.222656 9.242188 10.285156 L 8.722656 9.914062 C 8.675781 9.882812 8.609375 9.886719 8.570312 9.929688 L 7.921875 10.609375 C 7.882812 10.652344 7.878906 10.714844 7.914062 10.761719 L 8.3125 11.261719 C 8.285156 11.332031 8.261719 11.40625 8.242188 11.480469 C 8.222656 11.554688 8.214844 11.632812 8.207031 11.707031 L 7.632812 11.96875 C 7.578125 11.992188 7.550781 12.050781 7.570312 12.105469 L 7.84375 13.011719 C 7.859375 13.066406 7.910156 13.101562 7.96875 13.09375 L 8.597656 13.007812 C 8.695312 13.128906 8.804688 13.238281 8.933594 13.328125 L 8.875 13.957031 C 8.871094 14.015625 8.910156 14.066406 8.96875 14.082031 L 9.886719 14.308594 C 9.945312 14.324219 10 14.292969 10.027344 14.242188 L 10.253906 13.65625 C 10.40625 13.636719 10.554688 13.589844 10.699219 13.527344 L 11.214844 13.902344 C 11.261719 13.933594 11.328125 13.925781 11.367188 13.886719 L 12.015625 13.207031 C 12.054688 13.164062 12.058594 13.097656 12.023438 13.050781 Z M 9.777344 12.707031 C 9.332031 12.597656 9.058594 12.152344 9.164062 11.707031 C 9.214844 11.496094 9.347656 11.3125 9.535156 11.199219 C 9.722656 11.085938 9.945312 11.050781 10.15625 11.105469 C 10.601562 11.214844 10.878906 11.660156 10.773438 12.105469 C 10.722656 12.316406 10.589844 12.5 10.402344 12.613281 C 10.214844 12.726562 9.988281 12.761719 9.777344 12.707031 "/>
</svg>
