<?xml version="1.0" encoding="UTF-8"?>
<svg xmlns="http://www.w3.org/2000/svg" xmlns:xlink="http://www.w3.org/1999/xlink" width="16" height="16" viewBox="0 0 16 16">
<path fill="none" stroke-width="1.000068" stroke-linecap="round" stroke-linejoin="round" stroke="rgb(48.235294%, 43.529412%, 39.215687%)" stroke-opacity="1" stroke-miterlimit="4" d="M 6.5 2.5 L 5.5 3.5 L 5.5 29.5 L 6.5 30.5 L 26.5 30.5 L 27.5 29.5 L 27.5 10.5 L 19.5 2.5 Z M 6.5 2.5 " transform="matrix(0.5, 0, 0, 0.5, 0, 0)"/>
<path fill="none" stroke-width="1.000068" stroke-linecap="round" stroke-linejoin="round" stroke="rgb(48.235294%, 43.529412%, 39.215687%)" stroke-opacity="1" stroke-miterlimit="4" d="M 19.5 2.5 L 27.5 10.5 L 20.5 10.5 L 19.5 9.5 Z M 19.5 2.5 " transform="matrix(0.5, 0, 0, 0.5, 0, 0)"/>
<path fill-rule="nonzero" fill="rgb(48.235294%, 43.529412%, 39.215687%)" fill-opacity="1" d="M 4.125 5.375 L 4.125 13.625 L 12.375 13.625 L 12.375 5.375 Z M 4.8125 6.0625 L 11.6875 6.0625 L 11.6875 11.5625 L 4.8125 11.5625 Z M 5.5 6.75 L 5.5 8.8125 L 7.5625 8.8125 L 7.5625 7.4375 L 6.875 7.4375 L 6.257812 6.75 Z M 4.8125 12.25 L 5.5 12.25 L 5.5 12.9375 L 4.8125 12.9375 Z M 6.1875 12.25 L 8.9375 12.25 L 8.9375 12.9375 L 6.1875 12.9375 Z M 9.625 12.25 L 10.3125 12.25 L 10.3125 12.9375 L 9.625 12.9375 Z M 11 12.25 L 11.6875 12.25 L 11.6875 12.9375 L 11 12.9375 Z M 11 12.25 "/>
</svg>
