<?xml version="1.0" encoding="UTF-8"?>
<svg xmlns="http://www.w3.org/2000/svg" xmlns:xlink="http://www.w3.org/1999/xlink" width="16" height="16" viewBox="0 0 16 16">
<path fill="none" stroke-width="1.000068" stroke-linecap="round" stroke-linejoin="round" stroke="rgb(48.235294%, 43.529412%, 39.215687%)" stroke-opacity="1" stroke-miterlimit="4" d="M 6.5 2.5 L 5.5 3.5 L 5.5 29.5 L 6.5 30.5 L 26.5 30.5 L 27.5 29.5 L 27.5 10.5 L 19.5 2.5 Z M 6.5 2.5 " transform="matrix(0.5, 0, 0, 0.5, 0, 0)"/>
<path fill="none" stroke-width="1.000068" stroke-linecap="round" stroke-linejoin="round" stroke="rgb(48.235294%, 43.529412%, 39.215687%)" stroke-opacity="1" stroke-miterlimit="4" d="M 19.5 2.5 L 27.5 10.5 L 20.5 10.5 L 19.5 9.5 Z M 19.5 2.5 " transform="matrix(0.5, 0, 0, 0.5, 0, 0)"/>
<path fill-rule="nonzero" fill="rgb(0%, 0%, 0%)" fill-opacity="1" d="M 7.546875 5.375 L 7.546875 6.148438 C 6.941406 6.199219 6.460938 6.347656 6.105469 6.621094 C 5.71875 6.917969 5.523438 7.359375 5.523438 7.929688 C 5.523438 8.734375 6.027344 9.25 7.050781 9.5 L 7.546875 9.628906 L 7.546875 12.164062 C 6.90625 12.113281 6.308594 11.976562 5.746094 11.714844 L 5.5 12.335938 C 5.730469 12.472656 6.039062 12.597656 6.421875 12.699219 C 6.757812 12.789062 7.136719 12.828125 7.546875 12.851562 L 7.546875 13.625 L 8.265625 13.625 L 8.265625 12.851562 C 8.878906 12.804688 9.371094 12.625 9.726562 12.316406 C 10.113281 11.984375 10.3125 11.503906 10.3125 10.875 C 10.3125 10.367188 10.171875 9.988281 9.886719 9.71875 C 9.601562 9.441406 9.175781 9.238281 8.625 9.113281 L 8.265625 9.03125 L 8.265625 6.792969 C 8.546875 6.816406 8.835938 6.851562 9.097656 6.925781 C 9.40625 7.003906 9.632812 7.101562 9.820312 7.203125 L 10.042969 6.578125 C 9.585938 6.304688 8.992188 6.140625 8.269531 6.109375 L 8.269531 5.375 Z M 7.386719 6.816406 C 7.4375 6.804688 7.496094 6.820312 7.546875 6.816406 L 7.546875 8.855469 L 7.34375 8.8125 C 7.003906 8.734375 6.75 8.617188 6.578125 8.46875 C 6.410156 8.320312 6.332031 8.113281 6.332031 7.867188 C 6.332031 7.28125 6.679688 6.925781 7.386719 6.816406 M 8.265625 9.78125 L 8.402344 9.824219 C 8.816406 9.921875 9.097656 10.054688 9.253906 10.234375 C 9.414062 10.40625 9.480469 10.636719 9.480469 10.921875 C 9.480469 11.699219 9.074219 12.113281 8.265625 12.1875 Z M 8.265625 9.78125 "/>
</svg>
