<?xml version="1.0" encoding="UTF-8"?>
<svg xmlns="http://www.w3.org/2000/svg" xmlns:xlink="http://www.w3.org/1999/xlink" width="16" height="16" viewBox="0 0 16 16">
<path fill="none" stroke-width="1.000068" stroke-linecap="round" stroke-linejoin="round" stroke="rgb(48.235294%, 43.529412%, 39.215687%)" stroke-opacity="1" stroke-miterlimit="4" d="M 6.5 2.5 L 5.5 3.5 L 5.5 29.5 L 6.5 30.5 L 26.5 30.5 L 27.5 29.5 L 27.5 10.5 L 19.5 2.5 Z M 6.5 2.5 " transform="matrix(0.5, 0, 0, 0.5, 0, 0)"/>
<path fill="none" stroke-width="1.000068" stroke-linecap="round" stroke-linejoin="round" stroke="rgb(48.235294%, 43.529412%, 39.215687%)" stroke-opacity="1" stroke-miterlimit="4" d="M 19.5 2.5 L 27.5 10.5 L 20.5 10.5 L 19.5 9.5 Z M 19.5 2.5 " transform="matrix(0.5, 0, 0, 0.5, 0, 0)"/>
<path fill-rule="nonzero" fill="rgb(99.215686%, 50.196081%, 9.803922%)" fill-opacity="1" d="M 6.875 5.375 C 6.050781 5.660156 5.5 6.4375 5.5 7.308594 L 5.5 7.574219 C 5.5 8.0625 5.238281 8.511719 4.8125 8.757812 L 4.8125 10.246094 C 5.238281 10.488281 5.5 10.9375 5.5 11.425781 L 5.5 11.691406 C 5.5 12.589844 6.074219 13.34375 6.875 13.625 L 6.875 12.875 C 6.449219 12.632812 6.1875 12.179688 6.1875 11.691406 L 6.1875 11.425781 C 6.1875 10.5625 5.640625 9.789062 4.824219 9.5 C 5.617188 9.214844 6.1875 8.464844 6.1875 7.570312 L 6.1875 7.308594 C 6.1875 6.800781 6.464844 6.363281 6.875 6.125 Z M 9.625 5.375 L 9.625 6.125 C 10.050781 6.367188 10.3125 6.820312 10.3125 7.308594 L 10.3125 7.574219 C 10.3125 8.4375 10.859375 9.210938 11.675781 9.5 C 10.882812 9.785156 10.3125 10.535156 10.3125 11.429688 L 10.3125 11.691406 C 10.3125 12.179688 10.050781 12.632812 9.625 12.875 L 9.625 13.628906 C 10.449219 13.339844 11 12.5625 11 11.691406 L 11 11.429688 C 11 10.921875 11.277344 10.484375 11.6875 10.246094 L 11.6875 8.757812 C 11.261719 8.515625 11 8.0625 11 7.574219 L 11 7.308594 C 11 6.4375 10.449219 5.664062 9.625 5.375 "/>
</svg>
