<?xml version="1.0" encoding="UTF-8"?>
<svg xmlns="http://www.w3.org/2000/svg" xmlns:xlink="http://www.w3.org/1999/xlink" width="16" height="16" viewBox="0 0 16 16">
<path fill="none" stroke-width="1.000068" stroke-linecap="round" stroke-linejoin="round" stroke="rgb(48.235294%, 43.529412%, 39.215687%)" stroke-opacity="1" stroke-miterlimit="4" d="M 6.5 2.5 L 5.5 3.5 L 5.5 29.5 L 6.5 30.5 L 26.5 30.5 L 27.5 29.5 L 27.5 10.5 L 19.5 2.5 Z M 6.5 2.5 " transform="matrix(0.5, 0, 0, 0.5, 0, 0)"/>
<path fill="none" stroke-width="1.000068" stroke-linecap="round" stroke-linejoin="round" stroke="rgb(48.235294%, 43.529412%, 39.215687%)" stroke-opacity="1" stroke-miterlimit="4" d="M 19.5 2.5 L 27.5 10.5 L 20.5 10.5 L 19.5 9.5 Z M 19.5 2.5 " transform="matrix(0.5, 0, 0, 0.5, 0, 0)"/>
<path fill-rule="nonzero" fill="rgb(56.078434%, 24.705882%, 44.313726%)" fill-opacity="1" d="M 9 5.375 L 6.835938 13.445312 L 7.503906 13.625 L 9.664062 5.554688 Z M 6.382812 6.75 L 4.347656 8.910156 L 4.125 9.152344 L 4.347656 9.386719 L 6.371094 11.5625 L 6.863281 11.085938 L 5.058594 9.152344 L 6.875 7.226562 Z M 10.117188 6.75 L 9.625 7.226562 L 11.441406 9.152344 L 9.636719 11.085938 L 10.128906 11.5625 L 12.152344 9.386719 L 12.375 9.152344 L 12.152344 8.910156 Z M 10.117188 6.75 "/>
</svg>
