<?xml version="1.0" encoding="UTF-8"?>
<svg xmlns="http://www.w3.org/2000/svg" xmlns:xlink="http://www.w3.org/1999/xlink" width="16" height="16" viewBox="0 0 16 16">
<path fill="none" stroke-width="1.000068" stroke-linecap="round" stroke-linejoin="round" stroke="rgb(48.235294%, 43.529412%, 39.215687%)" stroke-opacity="1" stroke-miterlimit="4" d="M 6.5 2.5 L 5.5 3.5 L 5.5 29.5 L 6.5 30.5 L 26.5 30.5 L 27.5 29.5 L 27.5 10.5 L 19.5 2.5 Z M 6.5 2.5 " transform="matrix(0.5, 0, 0, 0.5, 0, 0)"/>
<path fill="none" stroke-width="1.000068" stroke-linecap="round" stroke-linejoin="round" stroke="rgb(48.235294%, 43.529412%, 39.215687%)" stroke-opacity="1" stroke-miterlimit="4" d="M 19.5 2.5 L 27.5 10.5 L 20.5 10.5 L 19.5 9.5 Z M 19.5 2.5 " transform="matrix(0.5, 0, 0, 0.5, 0, 0)"/>
<path fill-rule="nonzero" fill="rgb(98.039216%, 28.627452%, 20.392157%)" fill-opacity="1" d="M 8.25 5.375 C 5.972656 5.375 4.125 7.222656 4.125 9.5 C 4.125 11.777344 5.972656 13.625 8.25 13.625 C 10.527344 13.625 12.375 11.777344 12.375 9.5 C 12.375 7.222656 10.527344 5.375 8.25 5.375 M 8.25 6.0625 C 10.148438 6.0625 11.6875 7.601562 11.6875 9.5 C 11.6875 11.398438 10.148438 12.9375 8.25 12.9375 C 6.351562 12.9375 4.8125 11.398438 4.8125 9.5 C 4.8125 7.601562 6.351562 6.0625 8.25 6.0625 M 8.25 6.75 C 7.605469 6.75 6.984375 6.976562 6.488281 7.386719 L 6.929688 7.914062 C 7.300781 7.605469 7.769531 7.4375 8.25 7.4375 C 9.390625 7.4375 10.3125 8.359375 10.3125 9.5 L 11 9.5 C 11 7.980469 9.769531 6.75 8.25 6.75 M 8.9375 8.125 L 7.835938 10.324219 C 7.664062 10.457031 7.5625 10.660156 7.5625 10.875 C 7.5625 11.253906 7.871094 11.5625 8.25 11.5625 C 8.628906 11.5625 8.9375 11.253906 8.9375 10.875 C 8.9375 10.707031 8.875 10.546875 8.761719 10.421875 Z M 5.863281 8.136719 C 5.628906 8.550781 5.5 9.023438 5.5 9.5 L 6.1875 9.5 C 6.1875 9.140625 6.28125 8.789062 6.460938 8.476562 Z M 5.863281 8.136719 "/>
</svg>
