<?xml version="1.0" encoding="UTF-8"?>
<svg xmlns="http://www.w3.org/2000/svg" xmlns:xlink="http://www.w3.org/1999/xlink" width="16" height="16" viewBox="0 0 16 16">
<path fill="none" stroke-width="1.000068" stroke-linecap="round" stroke-linejoin="round" stroke="rgb(48.235294%, 43.529412%, 39.215687%)" stroke-opacity="1" stroke-miterlimit="4" d="M 6.5 2.5 L 5.5 3.5 L 5.5 29.5 L 6.5 30.5 L 26.5 30.5 L 27.5 29.5 L 27.5 10.5 L 19.5 2.5 Z M 6.5 2.5 " transform="matrix(0.5, 0, 0, 0.5, 0, 0)"/>
<path fill="none" stroke-width="1.000068" stroke-linecap="round" stroke-linejoin="round" stroke="rgb(48.235294%, 43.529412%, 39.215687%)" stroke-opacity="1" stroke-miterlimit="4" d="M 19.5 2.5 L 27.5 10.5 L 20.5 10.5 L 19.5 9.5 Z M 19.5 2.5 " transform="matrix(0.5, 0, 0, 0.5, 0, 0)"/>
<path fill-rule="nonzero" fill="rgb(56.078434%, 24.705882%, 44.313726%)" fill-opacity="1" d="M 8.25 5.375 C 5.972656 5.375 4.125 5.988281 4.125 6.75 L 4.125 12.25 C 4.125 13.011719 5.972656 13.625 8.25 13.625 C 10.527344 13.625 12.375 13.011719 12.375 12.25 L 12.375 6.75 C 12.375 5.988281 10.527344 5.375 8.25 5.375 M 8.25 6.0625 C 10.148438 6.0625 11.6875 6.371094 11.6875 6.75 C 11.6875 7.128906 10.148438 7.4375 8.25 7.4375 C 6.351562 7.4375 4.8125 7.128906 4.8125 6.75 C 4.8125 6.371094 6.351562 6.0625 8.25 6.0625 M 4.8125 7.507812 C 5.574219 7.894531 6.863281 8.125 8.25 8.125 C 9.632812 8.125 10.925781 7.890625 11.6875 7.507812 L 11.6875 9.5 C 11.6875 9.878906 10.148438 10.1875 8.25 10.1875 C 6.351562 10.1875 4.8125 9.878906 4.8125 9.5 Z M 4.8125 10.257812 C 5.574219 10.640625 6.863281 10.875 8.25 10.875 C 9.632812 10.875 10.925781 10.640625 11.6875 10.257812 L 11.6875 12.25 C 11.6875 12.628906 10.148438 12.9375 8.25 12.9375 C 6.351562 12.9375 4.8125 12.628906 4.8125 12.25 Z M 4.8125 10.257812 "/>
</svg>
