<?xml version="1.0" encoding="UTF-8"?>
<svg xmlns="http://www.w3.org/2000/svg" xmlns:xlink="http://www.w3.org/1999/xlink" width="16" height="16" viewBox="0 0 16 16">
<path fill="none" stroke-width="1.000068" stroke-linecap="round" stroke-linejoin="round" stroke="rgb(48.235294%, 43.529412%, 39.215687%)" stroke-opacity="1" stroke-miterlimit="4" d="M 6.5 2.5 L 5.5 3.5 L 5.5 29.5 L 6.5 30.5 L 26.5 30.5 L 27.5 29.5 L 27.5 10.5 L 19.5 2.5 Z M 6.5 2.5 " transform="matrix(0.5, 0, 0, 0.5, 0, 0)"/>
<path fill="none" stroke-width="1.000068" stroke-linecap="round" stroke-linejoin="round" stroke="rgb(48.235294%, 43.529412%, 39.215687%)" stroke-opacity="1" stroke-miterlimit="4" d="M 19.5 2.5 L 27.5 10.5 L 20.5 10.5 L 19.5 9.5 Z M 19.5 2.5 " transform="matrix(0.5, 0, 0, 0.5, 0, 0)"/>
<path fill-rule="nonzero" fill="rgb(2.352941%, 40.000001%, 47.058824%)" fill-opacity="1" d="M 4.125 6.0625 C 3.742188 6.0625 3.4375 6.367188 3.4375 6.75 L 3.4375 12.25 C 3.4375 12.632812 3.742188 12.9375 4.125 12.9375 L 12.375 12.9375 C 12.757812 12.9375 13.0625 12.632812 13.0625 12.25 L 13.0625 6.75 C 13.0625 6.367188 12.757812 6.0625 12.375 6.0625 Z M 4.125 6.75 L 4.324219 6.75 L 6.828125 9.253906 L 4.261719 12.25 L 4.125 12.25 Z M 5.300781 6.75 L 11.199219 6.75 L 8.25 9.699219 Z M 12.175781 6.75 L 12.375 6.75 L 12.375 12.25 L 12.238281 12.25 L 9.671875 9.253906 Z M 7.320312 9.738281 L 8.25 10.675781 L 9.183594 9.738281 L 11.335938 12.25 L 5.167969 12.25 Z M 7.320312 9.738281 "/>
</svg>
