<?xml version="1.0" encoding="UTF-8"?>
<svg xmlns="http://www.w3.org/2000/svg" xmlns:xlink="http://www.w3.org/1999/xlink" width="16" height="16" viewBox="0 0 16 16">
<path fill="none" stroke-width="1.000068" stroke-linecap="round" stroke-linejoin="round" stroke="rgb(48.235294%, 43.529412%, 39.215687%)" stroke-opacity="1" stroke-miterlimit="4" d="M 6.5 2.5 L 5.5 3.5 L 5.5 29.5 L 6.5 30.5 L 26.5 30.5 L 27.5 29.5 L 27.5 10.5 L 19.5 2.5 Z M 6.5 2.5 " transform="matrix(0.5, 0, 0, 0.5, 0, 0)"/>
<path fill="none" stroke-width="1.000068" stroke-linecap="round" stroke-linejoin="round" stroke="rgb(48.235294%, 43.529412%, 39.215687%)" stroke-opacity="1" stroke-miterlimit="4" d="M 19.5 2.5 L 27.5 10.5 L 20.5 10.5 L 19.5 9.5 Z M 19.5 2.5 " transform="matrix(0.5, 0, 0, 0.5, 0, 0)"/>
<path fill-rule="nonzero" fill="rgb(48.235294%, 43.529412%, 39.215687%)" fill-opacity="1" d="M 4.8125 5.375 C 4.429688 5.375 4.125 5.679688 4.125 6.0625 L 4.125 12.9375 C 4.125 13.320312 4.429688 13.625 4.8125 13.625 L 11.6875 13.625 C 12.070312 13.625 12.375 13.320312 12.375 12.9375 L 12.375 6.0625 C 12.375 5.679688 12.070312 5.375 11.6875 5.375 Z M 4.8125 6.0625 L 11.6875 6.0625 L 11.6875 12.9375 L 4.8125 12.9375 Z M 8.9375 6.75 L 8.9375 8.8125 L 11 8.8125 C 11 7.671875 10.078125 6.75 8.9375 6.75 M 8.25 7.4375 C 7.128906 7.460938 6.230469 8.378906 6.230469 9.5 C 6.230469 10.621094 7.128906 11.539062 8.25 11.5625 C 9.390625 11.5625 10.3125 10.640625 10.3125 9.5 L 8.25 9.5 Z M 8.25 7.4375 "/>
</svg>
