<?xml version="1.0" encoding="UTF-8"?>
<svg xmlns="http://www.w3.org/2000/svg" xmlns:xlink="http://www.w3.org/1999/xlink" width="16" height="16" viewBox="0 0 16 16">
<path fill="none" stroke-width="1.000068" stroke-linecap="round" stroke-linejoin="round" stroke="rgb(48.235294%, 43.529412%, 39.215687%)" stroke-opacity="1" stroke-miterlimit="4" d="M 6.5 2.5 L 5.5 3.5 L 5.5 29.5 L 6.5 30.5 L 26.5 30.5 L 27.5 29.5 L 27.5 10.5 L 19.5 2.5 Z M 6.5 2.5 " transform="matrix(0.5, 0, 0, 0.5, 0, 0)"/>
<path fill="none" stroke-width="1.000068" stroke-linecap="round" stroke-linejoin="round" stroke="rgb(48.235294%, 43.529412%, 39.215687%)" stroke-opacity="1" stroke-miterlimit="4" d="M 19.5 2.5 L 27.5 10.5 L 20.5 10.5 L 19.5 9.5 Z M 19.5 2.5 " transform="matrix(0.5, 0, 0, 0.5, 0, 0)"/>
<path fill-rule="nonzero" fill="rgb(99.215686%, 50.196081%, 9.803922%)" fill-opacity="1" d="M 7.5625 5.375 L 7.5625 7.4375 L 8.25 7.4375 L 8.25 5.375 Z M 6.1875 6.0625 L 6.1875 7.4375 L 6.875 7.4375 L 6.875 6.0625 Z M 8.9375 6.0625 L 8.9375 7.4375 L 9.625 7.4375 L 9.625 6.0625 Z M 4.8125 6.75 L 4.8125 7.4375 L 5.5 7.4375 L 5.5 6.75 Z M 4.125 8.125 L 4.125 10.875 C 4.125 12.121094 4.820312 12.9375 6.1875 12.9375 L 4.8125 12.9375 L 4.8125 13.625 L 10.3125 13.625 L 10.3125 12.9375 L 8.9375 12.9375 C 10.015625 12.9375 10.660156 12.4375 11 11.5625 L 11.6875 11.5625 C 12.375 11.5625 12.375 11.558594 12.375 10.808594 L 12.375 10.058594 C 12.375 8.808594 12.375 8.8125 11.6875 8.8125 L 11 8.8125 L 11 8.125 Z M 4.8125 8.8125 L 10.3125 8.8125 L 10.3125 10.875 C 10.3125 11.914062 9.390625 12.25 8.25 12.25 L 6.875 12.25 C 5.734375 12.25 4.8125 11.914062 4.8125 10.875 Z M 11 9.5 L 11.6875 9.5 L 11.6875 10.875 L 11 10.875 Z M 11 9.5 "/>
</svg>
