<?xml version="1.0" encoding="UTF-8"?>
<svg xmlns="http://www.w3.org/2000/svg" xmlns:xlink="http://www.w3.org/1999/xlink" width="16" height="16" viewBox="0 0 16 16">
<path fill="none" stroke-width="1.000068" stroke-linecap="round" stroke-linejoin="round" stroke="rgb(48.235294%, 43.529412%, 39.215687%)" stroke-opacity="1" stroke-miterlimit="4" d="M 6.5 2.5 L 5.5 3.5 L 5.5 29.5 L 6.5 30.5 L 26.5 30.5 L 27.5 29.5 L 27.5 10.5 L 19.5 2.5 Z M 6.5 2.5 " transform="matrix(0.5, 0, 0, 0.5, 0, 0)"/>
<path fill="none" stroke-width="1.000068" stroke-linecap="round" stroke-linejoin="round" stroke="rgb(48.235294%, 43.529412%, 39.215687%)" stroke-opacity="1" stroke-miterlimit="4" d="M 19.5 2.5 L 27.5 10.5 L 20.5 10.5 L 19.5 9.5 Z M 19.5 2.5 " transform="matrix(0.5, 0, 0, 0.5, 0, 0)"/>
<path fill-rule="nonzero" fill="rgb(28.235295%, 72.549021%, 78.039217%)" fill-opacity="1" d="M 8.25 5.375 C 7.511719 8 5.5 9.550781 5.5 11 C 5.5 12.449219 6.730469 13.625 8.25 13.625 C 9.769531 13.625 11 12.449219 11 11 C 11 9.550781 8.988281 8 8.25 5.375 M 10.140625 9.660156 C 10.445312 10.046875 10.605469 10.515625 10.609375 11 C 10.609375 12.242188 9.550781 13.25 8.25 13.25 C 7.75 13.25 7.257812 13.09375 6.851562 12.804688 C 7.050781 12.851562 7.257812 12.875 7.464844 12.875 C 8.984375 12.875 10.214844 11.699219 10.214844 10.25 C 10.210938 10.050781 10.1875 9.851562 10.140625 9.660156 "/>
</svg>
