<?xml version="1.0" encoding="UTF-8"?>
<svg xmlns="http://www.w3.org/2000/svg" xmlns:xlink="http://www.w3.org/1999/xlink" width="16" height="16" viewBox="0 0 16 16">
<path fill="none" stroke-width="1.000068" stroke-linecap="round" stroke-linejoin="round" stroke="rgb(48.235294%, 43.529412%, 39.215687%)" stroke-opacity="1" stroke-miterlimit="4" d="M 6.5 2.5 L 5.5 3.5 L 5.5 29.5 L 6.5 30.5 L 26.5 30.5 L 27.5 29.5 L 27.5 10.5 L 19.5 2.5 Z M 6.5 2.5 " transform="matrix(0.5, 0, 0, 0.5, 0, 0)"/>
<path fill="none" stroke-width="1.000068" stroke-linecap="round" stroke-linejoin="round" stroke="rgb(48.235294%, 43.529412%, 39.215687%)" stroke-opacity="1" stroke-miterlimit="4" d="M 19.5 2.5 L 27.5 10.5 L 20.5 10.5 L 19.5 9.5 Z M 19.5 2.5 " transform="matrix(0.5, 0, 0, 0.5, 0, 0)"/>
<path fill-rule="nonzero" fill="rgb(28.235295%, 72.549021%, 78.039217%)" fill-opacity="1" d="M 8.25 5.375 C 5.972656 5.375 4.125 7.222656 4.125 9.5 C 4.125 11.777344 5.972656 13.625 8.25 13.625 C 10.527344 13.625 12.375 11.777344 12.375 9.5 C 12.375 7.222656 10.527344 5.375 8.25 5.375 M 8.25 6.0625 C 8.367188 6.0625 8.476562 6.074219 8.59375 6.085938 L 8.679688 6.085938 C 8.71875 6.089844 8.753906 6.097656 8.785156 6.105469 C 8.886719 6.121094 8.96875 6.148438 9.066406 6.171875 C 9.242188 6.214844 9.417969 6.273438 9.582031 6.34375 C 9.671875 6.382812 9.753906 6.425781 9.839844 6.46875 L 9.839844 6.492188 C 9.859375 6.503906 9.871094 6.539062 9.90625 6.558594 C 9.914062 6.566406 9.914062 6.570312 9.925781 6.578125 C 9.945312 6.589844 9.972656 6.601562 9.96875 6.621094 C 9.964844 6.648438 9.921875 6.640625 9.90625 6.664062 C 9.90625 6.703125 9.871094 6.699219 9.863281 6.726562 C 9.867188 6.746094 9.902344 6.75 9.90625 6.773438 C 9.902344 6.792969 9.851562 6.789062 9.863281 6.8125 C 9.898438 6.84375 9.933594 6.820312 9.96875 6.8125 C 10.046875 6.800781 10.113281 6.804688 10.160156 6.773438 C 10.15625 6.734375 10.230469 6.738281 10.226562 6.703125 C 10.246094 6.71875 10.273438 6.734375 10.289062 6.746094 C 10.28125 6.757812 10.277344 6.765625 10.269531 6.769531 C 10.253906 6.777344 10.238281 6.78125 10.226562 6.789062 C 10.207031 6.800781 10.183594 6.820312 10.160156 6.835938 C 10.144531 6.84375 10.113281 6.898438 10.09375 6.898438 C 10.074219 6.898438 10.046875 6.875 10.03125 6.878906 C 10.011719 6.886719 10.011719 6.910156 9.988281 6.921875 C 9.945312 6.933594 9.851562 6.894531 9.839844 6.964844 C 9.859375 7.003906 9.933594 6.984375 9.96875 7.007812 C 9.996094 7.027344 10.019531 7.058594 10.03125 7.09375 C 10.039062 7.132812 10.039062 7.179688 10.03125 7.21875 C 10.011719 7.277344 9.945312 7.261719 9.882812 7.261719 L 9.839844 7.261719 C 9.734375 7.257812 9.628906 7.207031 9.578125 7.285156 C 9.585938 7.34375 9.59375 7.386719 9.578125 7.433594 C 9.570312 7.472656 9.511719 7.511719 9.515625 7.542969 C 9.515625 7.558594 9.554688 7.585938 9.558594 7.609375 C 9.5625 7.617188 9.550781 7.636719 9.558594 7.648438 C 9.574219 7.683594 9.613281 7.640625 9.644531 7.648438 C 9.675781 7.65625 9.710938 7.699219 9.710938 7.734375 C 9.710938 7.765625 9.703125 7.792969 9.6875 7.820312 C 9.65625 7.867188 9.601562 7.863281 9.558594 7.886719 C 9.523438 7.90625 9.515625 7.957031 9.492188 7.992188 C 9.472656 8.03125 9.441406 8.046875 9.449219 8.097656 C 9.425781 8.15625 9.378906 8.203125 9.324219 8.230469 C 9.300781 8.238281 9.273438 8.238281 9.257812 8.25 C 9.242188 8.261719 9.234375 8.292969 9.214844 8.316406 C 9.191406 8.339844 9.160156 8.359375 9.148438 8.382812 C 9.136719 8.398438 9.136719 8.421875 9.128906 8.445312 C 9.113281 8.472656 9.082031 8.480469 9.0625 8.511719 C 9.054688 8.523438 9.050781 8.554688 9.042969 8.574219 C 9.019531 8.613281 8.992188 8.648438 8.996094 8.679688 C 9.003906 8.714844 9.039062 8.714844 9.042969 8.746094 C 9.046875 8.761719 9.019531 8.773438 9.023438 8.789062 C 9.023438 8.8125 9.039062 8.832031 9.042969 8.851562 C 9.046875 8.90625 9.007812 8.925781 8.996094 8.960938 C 8.992188 8.976562 9.003906 8.988281 8.996094 9.003906 C 8.988281 9.027344 8.957031 9.058594 8.953125 9.089844 C 8.953125 9.109375 8.996094 9.121094 8.996094 9.15625 C 9 9.175781 8.972656 9.199219 8.976562 9.21875 C 8.984375 9.257812 9.054688 9.296875 9.085938 9.324219 C 9.121094 9.363281 9.175781 9.390625 9.191406 9.433594 C 9.207031 9.46875 9.210938 9.535156 9.234375 9.5625 C 9.257812 9.582031 9.292969 9.585938 9.320312 9.605469 C 9.34375 9.621094 9.359375 9.628906 9.386719 9.648438 C 9.425781 9.679688 9.488281 9.761719 9.558594 9.753906 C 9.59375 9.746094 9.625 9.71875 9.664062 9.710938 C 9.703125 9.703125 9.753906 9.6875 9.796875 9.691406 C 9.824219 9.699219 9.867188 9.714844 9.902344 9.710938 C 9.933594 9.703125 9.96875 9.703125 10.007812 9.691406 C 10.074219 9.660156 10.191406 9.609375 10.289062 9.625 C 10.363281 9.636719 10.363281 9.71875 10.417969 9.757812 C 10.476562 9.761719 10.519531 9.742188 10.570312 9.757812 C 10.601562 9.761719 10.652344 9.8125 10.65625 9.84375 C 10.65625 9.871094 10.613281 9.90625 10.609375 9.925781 C 10.597656 9.96875 10.617188 10.007812 10.609375 10.035156 C 10.605469 10.054688 10.589844 10.078125 10.589844 10.101562 C 10.589844 10.117188 10.613281 10.160156 10.632812 10.183594 C 10.65625 10.214844 10.691406 10.242188 10.71875 10.273438 C 10.765625 10.328125 10.789062 10.386719 10.824219 10.464844 C 10.835938 10.484375 10.816406 10.503906 10.824219 10.53125 C 10.8125 10.644531 10.773438 10.722656 10.695312 10.851562 C 10.660156 10.890625 10.609375 10.925781 10.609375 10.980469 C 10.609375 11.101562 10.679688 11.183594 10.675781 11.300781 C 10.660156 11.460938 10.6875 11.472656 10.675781 11.558594 C 10.726562 11.589844 10.691406 11.675781 10.675781 11.734375 C 10.652344 11.800781 10.621094 11.816406 10.609375 11.863281 C 10.648438 11.875 10.699219 11.871094 10.738281 11.863281 C 10.71875 11.882812 10.695312 11.90625 10.675781 11.925781 C 10.519531 12.085938 10.34375 12.230469 10.160156 12.355469 C 9.804688 12.59375 9.410156 12.777344 8.976562 12.871094 C 8.738281 12.925781 8.496094 12.9375 8.246094 12.9375 C 8.113281 12.9375 7.988281 12.929688 7.859375 12.914062 C 7.757812 12.902344 7.65625 12.890625 7.558594 12.871094 C 7.363281 12.832031 7.179688 12.75 7 12.679688 C 6.992188 12.667969 6.976562 12.652344 6.976562 12.636719 C 7.011719 12.621094 7.082031 12.6875 7.109375 12.636719 C 7.121094 12.613281 7.089844 12.550781 7.109375 12.53125 C 7.117188 12.511719 7.191406 12.511719 7.214844 12.507812 C 7.253906 12.5 7.300781 12.496094 7.324219 12.488281 C 7.34375 12.472656 7.367188 12.421875 7.363281 12.378906 C 7.363281 12.359375 7.339844 12.355469 7.324219 12.335938 C 7.308594 12.324219 7.328125 12.308594 7.324219 12.296875 C 7.304688 12.269531 7.261719 12.261719 7.257812 12.226562 C 7.304688 12.21875 7.378906 12.273438 7.449219 12.25 C 7.484375 12.238281 7.539062 12.175781 7.558594 12.140625 C 7.5625 12.136719 7.550781 12.113281 7.558594 12.101562 L 7.578125 12.058594 C 7.585938 12.039062 7.574219 12.046875 7.578125 12.035156 C 7.59375 12.003906 7.625 11.976562 7.644531 11.949219 C 7.660156 11.929688 7.695312 11.90625 7.710938 11.886719 C 7.722656 11.863281 7.71875 11.863281 7.730469 11.84375 C 7.742188 11.78125 7.695312 11.726562 7.710938 11.671875 C 7.722656 11.609375 7.820312 11.570312 7.882812 11.542969 C 7.902344 11.53125 7.925781 11.527344 7.945312 11.523438 C 7.988281 11.507812 8.035156 11.492188 8.074219 11.476562 C 8.140625 11.453125 8.152344 11.410156 8.179688 11.347656 C 8.199219 11.324219 8.214844 11.292969 8.222656 11.261719 C 8.226562 11.246094 8.21875 11.242188 8.222656 11.21875 C 8.226562 11.199219 8.21875 11.179688 8.222656 11.15625 C 8.234375 11.128906 8.246094 11.0625 8.246094 11.027344 C 8.246094 11 8.222656 10.988281 8.222656 10.960938 C 8.21875 10.871094 8.257812 10.882812 8.289062 10.835938 C 8.304688 10.808594 8.320312 10.765625 8.332031 10.746094 C 8.386719 10.664062 8.488281 10.636719 8.480469 10.511719 C 8.480469 10.46875 8.449219 10.371094 8.417969 10.359375 C 8.402344 10.351562 8.378906 10.347656 8.351562 10.339844 C 8.273438 10.308594 8.199219 10.21875 8.117188 10.210938 L 8.074219 10.210938 C 8.039062 10.210938 8.003906 10.195312 7.96875 10.1875 C 7.945312 10.179688 7.894531 10.195312 7.882812 10.1875 C 7.859375 10.175781 7.855469 10.136719 7.839844 10.121094 C 7.824219 10.113281 7.796875 10.109375 7.773438 10.101562 C 7.738281 10.089844 7.726562 10.0625 7.6875 10.058594 C 7.675781 10.058594 7.65625 10.066406 7.644531 10.058594 C 7.621094 10.050781 7.597656 10.050781 7.578125 10.039062 C 7.554688 10.023438 7.527344 10.015625 7.511719 9.996094 C 7.535156 9.921875 7.464844 9.910156 7.449219 9.867188 C 7.445312 9.84375 7.457031 9.800781 7.449219 9.78125 C 7.441406 9.757812 7.414062 9.738281 7.386719 9.714844 C 7.34375 9.679688 7.289062 9.65625 7.234375 9.652344 C 7.203125 9.644531 7.164062 9.65625 7.128906 9.652344 C 7.078125 9.644531 7.03125 9.621094 6.996094 9.585938 C 6.96875 9.550781 6.960938 9.515625 6.933594 9.5 C 6.910156 9.488281 6.886719 9.472656 6.867188 9.460938 C 6.863281 9.449219 6.851562 9.449219 6.847656 9.4375 C 6.835938 9.414062 6.808594 9.402344 6.824219 9.371094 C 6.800781 9.359375 6.8125 9.398438 6.78125 9.394531 C 6.757812 9.355469 6.738281 9.316406 6.675781 9.328125 C 6.648438 9.335938 6.621094 9.394531 6.589844 9.394531 C 6.5625 9.394531 6.539062 9.335938 6.503906 9.328125 C 6.476562 9.324219 6.433594 9.351562 6.417969 9.347656 C 6.386719 9.34375 6.382812 9.324219 6.351562 9.304688 C 6.335938 9.296875 6.296875 9.261719 6.289062 9.265625 C 6.253906 9.265625 6.226562 9.332031 6.179688 9.304688 C 6.15625 9.277344 6.230469 9.269531 6.203125 9.242188 C 6.179688 9.222656 6.175781 9.253906 6.160156 9.261719 C 6.140625 9.277344 6.113281 9.277344 6.09375 9.285156 C 6.046875 9.300781 6.003906 9.308594 5.964844 9.328125 C 5.9375 9.339844 5.914062 9.363281 5.898438 9.394531 C 5.886719 9.421875 5.859375 9.476562 5.835938 9.476562 C 5.804688 9.476562 5.796875 9.449219 5.773438 9.433594 C 5.695312 9.402344 5.644531 9.457031 5.578125 9.457031 C 5.519531 9.457031 5.425781 9.363281 5.429688 9.308594 C 5.429688 9.273438 5.445312 9.21875 5.449219 9.175781 C 5.453125 9.140625 5.492188 9.101562 5.492188 9.070312 C 5.492188 9.027344 5.410156 9.011719 5.386719 9.003906 C 5.320312 8.992188 5.242188 9.035156 5.171875 9.003906 C 5.15625 8.984375 5.183594 8.964844 5.191406 8.941406 C 5.195312 8.925781 5.183594 8.910156 5.191406 8.898438 C 5.199219 8.878906 5.246094 8.859375 5.257812 8.835938 C 5.261719 8.816406 5.246094 8.789062 5.257812 8.769531 C 5.265625 8.746094 5.296875 8.722656 5.300781 8.703125 C 5.300781 8.679688 5.277344 8.65625 5.257812 8.640625 C 5.199219 8.648438 5.160156 8.648438 5.128906 8.660156 C 5.050781 8.695312 5.070312 8.789062 4.996094 8.8125 C 4.96875 8.820312 4.941406 8.828125 4.910156 8.835938 C 4.898438 8.839844 4.882812 8.835938 4.867188 8.835938 C 4.867188 8.824219 4.867188 8.820312 4.867188 8.8125 C 4.871094 8.796875 4.886719 8.785156 4.890625 8.769531 C 4.9375 8.542969 5.015625 8.328125 5.105469 8.125 L 5.128906 8.125 C 5.152344 8.132812 5.167969 8.164062 5.191406 8.164062 C 5.253906 8.175781 5.265625 8.109375 5.320312 8.078125 C 5.371094 8.089844 5.402344 8.074219 5.449219 8.078125 C 5.484375 8.089844 5.527344 8.121094 5.554688 8.121094 C 5.578125 8.121094 5.578125 8.097656 5.597656 8.101562 C 5.621094 8.109375 5.660156 8.140625 5.664062 8.164062 C 5.667969 8.199219 5.632812 8.238281 5.640625 8.273438 C 5.675781 8.304688 5.746094 8.320312 5.792969 8.339844 C 5.824219 8.3125 5.800781 8.269531 5.792969 8.234375 C 5.792969 8.214844 5.796875 8.179688 5.792969 8.164062 C 5.789062 8.140625 5.773438 8.121094 5.773438 8.101562 C 5.773438 8.003906 5.859375 7.96875 5.921875 7.929688 C 5.953125 7.914062 5.984375 7.878906 6.007812 7.863281 C 6.042969 7.851562 6.066406 7.859375 6.09375 7.84375 C 6.148438 7.816406 6.183594 7.769531 6.222656 7.738281 C 6.242188 7.695312 6.222656 7.632812 6.222656 7.585938 C 6.242188 7.574219 6.269531 7.585938 6.289062 7.585938 C 6.320312 7.578125 6.335938 7.539062 6.351562 7.523438 C 6.363281 7.511719 6.382812 7.511719 6.398438 7.5 C 6.425781 7.476562 6.433594 7.449219 6.460938 7.433594 C 6.476562 7.425781 6.488281 7.421875 6.503906 7.414062 C 6.527344 7.40625 6.554688 7.40625 6.589844 7.390625 C 6.613281 7.386719 6.667969 7.382812 6.675781 7.371094 C 6.6875 7.363281 6.675781 7.324219 6.675781 7.304688 C 6.695312 7.230469 6.800781 7.226562 6.867188 7.203125 C 6.917969 7.179688 6.96875 7.125 7.019531 7.136719 C 7.007812 7.171875 6.96875 7.175781 6.976562 7.21875 C 6.988281 7.285156 7.0625 7.210938 7.085938 7.199219 C 7.125 7.179688 7.199219 7.15625 7.257812 7.136719 C 7.304688 7.117188 7.386719 7.105469 7.34375 7.050781 C 7.304688 7.042969 7.289062 7.078125 7.257812 7.09375 C 7.234375 7.097656 7.234375 7.070312 7.214844 7.070312 C 7.191406 7.070312 7.191406 7.09375 7.171875 7.09375 C 7.148438 7.085938 7.128906 7.050781 7.125 7.027344 C 7.117188 6.96875 7.167969 6.964844 7.191406 6.921875 C 7.175781 6.867188 7.105469 6.898438 7.058594 6.878906 C 7.066406 6.84375 7.09375 6.820312 7.125 6.8125 C 7.167969 6.808594 7.214844 6.816406 7.257812 6.835938 C 7.265625 6.84375 7.238281 6.863281 7.257812 6.878906 C 7.273438 6.890625 7.296875 6.886719 7.320312 6.878906 C 7.328125 6.839844 7.269531 6.859375 7.277344 6.835938 C 7.324219 6.804688 7.414062 6.820312 7.46875 6.8125 C 7.507812 6.804688 7.542969 6.789062 7.574219 6.773438 C 7.601562 6.753906 7.613281 6.722656 7.640625 6.75 C 7.652344 6.777344 7.636719 6.800781 7.621094 6.816406 C 7.566406 6.859375 7.515625 6.910156 7.46875 6.964844 C 7.496094 6.988281 7.535156 6.980469 7.574219 6.988281 C 7.59375 6.992188 7.625 6.988281 7.640625 6.988281 C 7.660156 6.992188 7.691406 6.976562 7.707031 6.988281 C 7.734375 6.992188 7.742188 7.050781 7.773438 7.050781 C 7.820312 7.050781 7.796875 6.996094 7.773438 6.964844 C 7.78125 6.929688 7.804688 6.898438 7.792969 6.878906 C 7.773438 6.835938 7.691406 6.890625 7.683594 6.835938 C 7.679688 6.800781 7.714844 6.796875 7.726562 6.773438 C 7.722656 6.703125 7.777344 6.703125 7.773438 6.640625 C 7.765625 6.617188 7.746094 6.621094 7.726562 6.597656 C 7.71875 6.589844 7.71875 6.542969 7.707031 6.535156 C 7.671875 6.503906 7.601562 6.527344 7.597656 6.46875 C 7.597656 6.433594 7.601562 6.398438 7.597656 6.363281 C 7.59375 6.328125 7.566406 6.21875 7.535156 6.214844 C 7.496094 6.203125 7.476562 6.277344 7.425781 6.300781 C 7.394531 6.3125 7.355469 6.320312 7.320312 6.320312 C 7.304688 6.3125 7.28125 6.308594 7.277344 6.277344 C 7.277344 6.246094 7.308594 6.234375 7.320312 6.210938 C 7.324219 6.203125 7.320312 6.199219 7.320312 6.191406 C 7.371094 6.175781 7.421875 6.160156 7.46875 6.148438 C 7.5 6.140625 7.527344 6.132812 7.554688 6.128906 C 7.578125 6.121094 7.601562 6.136719 7.621094 6.128906 C 7.828125 6.085938 8.035156 6.066406 8.246094 6.0625 Z M 6.851562 6.386719 C 6.832031 6.511719 6.714844 6.558594 6.574219 6.554688 C 6.542969 6.589844 6.570312 6.644531 6.550781 6.683594 C 6.539062 6.71875 6.480469 6.753906 6.445312 6.75 C 6.421875 6.75 6.378906 6.710938 6.378906 6.683594 C 6.378906 6.65625 6.425781 6.65625 6.402344 6.621094 C 6.40625 6.613281 6.417969 6.609375 6.425781 6.597656 C 6.4375 6.59375 6.453125 6.589844 6.46875 6.578125 C 6.59375 6.503906 6.71875 6.445312 6.851562 6.386719 M 9.734375 6.511719 C 9.71875 6.523438 9.722656 6.53125 9.714844 6.535156 C 9.683594 6.550781 9.667969 6.570312 9.648438 6.578125 C 9.617188 6.589844 9.589844 6.59375 9.585938 6.621094 C 9.578125 6.640625 9.605469 6.644531 9.601562 6.664062 C 9.59375 6.6875 9.589844 6.699219 9.585938 6.726562 C 9.617188 6.785156 9.6875 6.714844 9.734375 6.707031 C 9.753906 6.699219 9.765625 6.699219 9.777344 6.683594 C 9.789062 6.664062 9.789062 6.648438 9.800781 6.621094 C 9.808594 6.59375 9.84375 6.582031 9.84375 6.554688 C 9.839844 6.53125 9.777344 6.511719 9.734375 6.511719 Z M 5.972656 6.945312 C 6.007812 6.96875 6.050781 7.027344 5.996094 7.050781 C 5.960938 7.066406 5.925781 7.070312 5.886719 7.074219 C 5.882812 7.074219 5.871094 7.054688 5.867188 7.050781 C 5.902344 7.015625 5.9375 6.976562 5.972656 6.945312 M 6.101562 7.074219 C 6.117188 7.074219 6.128906 7.113281 6.148438 7.113281 C 6.164062 7.113281 6.175781 7.09375 6.191406 7.09375 C 6.21875 7.101562 6.238281 7.160156 6.210938 7.179688 C 6.1875 7.1875 6.183594 7.15625 6.167969 7.15625 C 6.121094 7.167969 6.09375 7.269531 6.058594 7.265625 C 6.027344 7.261719 6.003906 7.183594 6.039062 7.15625 C 6.039062 7.136719 6.035156 7.136719 6.039062 7.117188 C 6.050781 7.101562 6.074219 7.070312 6.101562 7.074219 Z M 5.929688 7.09375 C 5.941406 7.09375 5.949219 7.089844 5.953125 7.09375 C 5.949219 7.132812 5.9375 7.140625 5.90625 7.15625 C 5.859375 7.191406 5.816406 7.222656 5.804688 7.289062 C 5.796875 7.304688 5.738281 7.359375 5.71875 7.351562 C 5.660156 7.34375 5.746094 7.238281 5.761719 7.222656 C 5.773438 7.207031 5.785156 7.199219 5.800781 7.179688 C 5.820312 7.160156 5.828125 7.125 5.84375 7.117188 C 5.871094 7.101562 5.902344 7.09375 5.929688 7.09375 Z M 10.59375 7.199219 C 10.648438 7.195312 10.675781 7.253906 10.699219 7.285156 C 10.730469 7.320312 10.765625 7.351562 10.804688 7.371094 C 10.828125 7.386719 10.851562 7.40625 10.871094 7.414062 C 10.914062 7.4375 10.996094 7.5 11.003906 7.546875 C 11.003906 7.570312 10.976562 7.589844 10.980469 7.609375 C 11.011719 7.617188 11.046875 7.558594 11.046875 7.523438 C 11.109375 7.613281 11.160156 7.710938 11.21875 7.800781 C 11.242188 7.847656 11.28125 7.886719 11.300781 7.929688 C 11.273438 7.941406 11.265625 7.945312 11.261719 7.972656 C 11.253906 8.011719 11.273438 8.074219 11.21875 8.082031 C 11.179688 8.089844 11.136719 8.050781 11.085938 8.039062 C 11.066406 8.03125 11.039062 8.046875 11.023438 8.039062 C 10.984375 8.027344 10.988281 7.976562 10.957031 7.953125 C 10.921875 7.933594 10.886719 7.917969 10.847656 7.910156 C 10.832031 7.910156 10.824219 7.917969 10.804688 7.910156 C 10.78125 7.90625 10.738281 7.921875 10.71875 7.910156 C 10.703125 7.902344 10.660156 7.863281 10.65625 7.84375 C 10.648438 7.820312 10.71875 7.804688 10.722656 7.78125 C 10.722656 7.765625 10.703125 7.742188 10.699219 7.714844 C 10.699219 7.703125 10.703125 7.683594 10.699219 7.675781 C 10.695312 7.65625 10.664062 7.652344 10.636719 7.652344 L 10.375 7.652344 C 10.316406 7.660156 10.273438 7.648438 10.226562 7.652344 C 10.191406 7.652344 10.128906 7.679688 10.09375 7.695312 C 10.082031 7.703125 10.074219 7.707031 10.050781 7.71875 C 10.042969 7.722656 10.023438 7.730469 10.011719 7.738281 C 9.988281 7.75 9.964844 7.777344 9.945312 7.78125 C 9.917969 7.789062 9.886719 7.773438 9.839844 7.78125 C 9.804688 7.78125 9.753906 7.757812 9.753906 7.71875 C 9.753906 7.652344 9.863281 7.683594 9.925781 7.675781 C 9.949219 7.667969 9.960938 7.648438 9.988281 7.632812 C 10.003906 7.621094 10 7.617188 10.011719 7.609375 C 10.03125 7.59375 10.070312 7.5625 10.074219 7.542969 C 10.078125 7.53125 10.074219 7.511719 10.074219 7.503906 C 10.078125 7.488281 10.097656 7.476562 10.117188 7.460938 C 10.148438 7.429688 10.167969 7.390625 10.203125 7.375 C 10.226562 7.363281 10.257812 7.351562 10.269531 7.332031 C 10.273438 7.308594 10.269531 7.308594 10.269531 7.289062 C 10.28125 7.277344 10.296875 7.269531 10.3125 7.265625 C 10.347656 7.261719 10.375 7.265625 10.421875 7.265625 C 10.4375 7.265625 10.464844 7.277344 10.484375 7.265625 C 10.5 7.257812 10.507812 7.234375 10.527344 7.222656 C 10.546875 7.214844 10.570312 7.207031 10.59375 7.203125 Z M 10.980469 7.609375 L 10.894531 7.609375 C 10.863281 7.609375 10.824219 7.59375 10.808594 7.609375 C 10.835938 7.652344 10.882812 7.664062 10.9375 7.675781 C 10.960938 7.660156 10.96875 7.636719 10.980469 7.609375 M 6.277344 7.222656 L 6.339844 7.222656 C 6.359375 7.222656 6.378906 7.21875 6.382812 7.222656 C 6.371094 7.265625 6.269531 7.261719 6.234375 7.242188 C 6.234375 7.226562 6.253906 7.226562 6.277344 7.222656 M 6.125 7.308594 C 6.09375 7.328125 6.066406 7.359375 6.015625 7.375 C 5.992188 7.382812 5.960938 7.382812 5.953125 7.351562 C 5.949219 7.316406 5.992188 7.335938 6.019531 7.328125 C 6.050781 7.324219 6.089844 7.308594 6.125 7.308594 Z M 10.59375 7.308594 C 10.574219 7.316406 10.558594 7.367188 10.59375 7.375 C 10.609375 7.363281 10.617188 7.339844 10.613281 7.308594 C 10.609375 7.296875 10.601562 7.300781 10.59375 7.308594 M 10.550781 7.414062 C 10.550781 7.453125 10.558594 7.488281 10.550781 7.523438 C 10.574219 7.566406 10.628906 7.53125 10.636719 7.503906 C 10.652344 7.429688 10.625 7.40625 10.59375 7.414062 C 10.582031 7.425781 10.5625 7.40625 10.550781 7.414062 M 4.859375 9.027344 C 4.898438 9.0625 4.917969 9.113281 4.964844 9.136719 C 4.984375 9.144531 5.007812 9.152344 5.03125 9.15625 C 5.046875 9.160156 5.054688 9.148438 5.074219 9.15625 C 5.109375 9.167969 5.152344 9.183594 5.179688 9.199219 C 5.222656 9.21875 5.269531 9.28125 5.308594 9.304688 C 5.308594 9.328125 5.300781 9.351562 5.308594 9.371094 C 5.324219 9.394531 5.34375 9.417969 5.375 9.433594 C 5.410156 9.453125 5.425781 9.484375 5.460938 9.5 C 5.46875 9.507812 5.484375 9.492188 5.503906 9.5 C 5.550781 9.511719 5.570312 9.574219 5.609375 9.566406 C 5.632812 9.554688 5.628906 9.523438 5.632812 9.5 C 5.648438 9.480469 5.671875 9.457031 5.695312 9.457031 C 5.738281 9.457031 5.742188 9.523438 5.761719 9.566406 C 5.769531 9.589844 5.796875 9.601562 5.804688 9.628906 C 5.816406 9.671875 5.8125 9.796875 5.804688 9.824219 C 5.792969 9.851562 5.742188 9.851562 5.71875 9.886719 C 5.703125 9.902344 5.707031 9.941406 5.699219 9.953125 C 5.679688 9.96875 5.664062 9.972656 5.652344 9.992188 C 5.648438 10.003906 5.636719 10.023438 5.632812 10.035156 C 5.613281 10.078125 5.574219 10.113281 5.585938 10.164062 C 5.59375 10.1875 5.632812 10.203125 5.632812 10.230469 C 5.632812 10.261719 5.574219 10.28125 5.566406 10.316406 C 5.566406 10.339844 5.582031 10.367188 5.589844 10.402344 C 5.59375 10.425781 5.636719 10.449219 5.652344 10.46875 C 5.675781 10.492188 5.695312 10.539062 5.71875 10.574219 C 5.761719 10.640625 5.78125 10.722656 5.824219 10.789062 C 5.847656 10.824219 5.898438 10.839844 5.910156 10.875 C 5.917969 10.890625 5.90625 10.925781 5.910156 10.941406 C 5.933594 10.996094 6.050781 11.0625 6.101562 11.089844 C 6.132812 11.101562 6.164062 11.097656 6.191406 11.113281 C 6.226562 11.132812 6.300781 11.1875 6.320312 11.21875 C 6.335938 11.25 6.332031 11.324219 6.339844 11.367188 C 6.351562 11.429688 6.339844 11.476562 6.339844 11.539062 C 6.34375 11.574219 6.363281 11.59375 6.363281 11.628906 C 6.363281 11.636719 6.363281 11.675781 6.363281 11.691406 C 6.363281 11.734375 6.363281 11.777344 6.363281 11.820312 C 6.359375 11.84375 6.363281 11.867188 6.363281 11.886719 C 6.363281 11.90625 6.382812 11.910156 6.382812 11.925781 C 6.386719 11.949219 6.359375 11.976562 6.363281 11.992188 C 6.367188 12.039062 6.398438 12.058594 6.40625 12.097656 C 6.410156 12.132812 6.429688 12.214844 6.425781 12.25 C 6.425781 12.273438 6.40625 12.292969 6.40625 12.316406 C 6.40625 12.335938 6.40625 12.34375 6.40625 12.359375 C 6.40625 12.371094 6.410156 12.386719 6.40625 12.402344 C 6.382812 12.386719 6.363281 12.371094 6.339844 12.359375 C 6.15625 12.230469 5.980469 12.085938 5.824219 11.925781 C 5.804688 11.90625 5.78125 11.886719 5.761719 11.863281 C 5.632812 11.730469 5.519531 11.585938 5.414062 11.433594 C 5.40625 11.421875 5.40625 11.40625 5.394531 11.390625 C 5.277344 11.214844 5.175781 11.027344 5.09375 10.832031 C 5.089844 10.820312 5.078125 10.804688 5.074219 10.789062 C 5 10.609375 4.941406 10.421875 4.902344 10.230469 C 4.890625 10.195312 4.886719 10.160156 4.878906 10.121094 C 4.863281 10.03125 4.84375 9.941406 4.835938 9.84375 C 4.824219 9.730469 4.816406 9.613281 4.816406 9.5 C 4.816406 9.335938 4.835938 9.183594 4.859375 9.027344 M 6.191406 9.390625 C 6.222656 9.378906 6.214844 9.429688 6.191406 9.433594 C 6.164062 9.441406 6.164062 9.40625 6.191406 9.390625 "/>
</svg>
