<?xml version="1.0" encoding="UTF-8"?>
<svg xmlns="http://www.w3.org/2000/svg" xmlns:xlink="http://www.w3.org/1999/xlink" width="16" height="16" viewBox="0 0 16 16">
<path fill="none" stroke-width="1.000068" stroke-linecap="round" stroke-linejoin="round" stroke="rgb(48.235294%, 43.529412%, 39.215687%)" stroke-opacity="1" stroke-miterlimit="4" d="M 6.5 2.5 L 5.5 3.5 L 5.5 29.5 L 6.5 30.5 L 26.5 30.5 L 27.5 29.5 L 27.5 10.5 L 19.5 2.5 Z M 6.5 2.5 " transform="matrix(0.5, 0, 0, 0.5, 0, 0)"/>
<path fill="none" stroke-width="1.000068" stroke-linecap="round" stroke-linejoin="round" stroke="rgb(48.235294%, 43.529412%, 39.215687%)" stroke-opacity="1" stroke-miterlimit="4" d="M 19.5 2.5 L 27.5 10.5 L 20.5 10.5 L 19.5 9.5 Z M 19.5 2.5 " transform="matrix(0.5, 0, 0, 0.5, 0, 0)"/>
<path fill-rule="nonzero" fill="rgb(98.039216%, 28.627452%, 20.392157%)" fill-opacity="1" d="M 8.824219 13.601562 C 8.382812 13.53125 7.746094 13.28125 7.355469 13.023438 C 6.492188 12.460938 5.925781 11.835938 5.578125 11.054688 C 5.464844 10.792969 5.402344 10.59375 5.21875 9.90625 C 5.175781 9.738281 5.117188 9.550781 5.09375 9.488281 C 5.054688 9.390625 5.050781 9.359375 5.070312 9.023438 C 5.085938 8.710938 5.140625 8.285156 5.167969 8.238281 C 5.175781 8.230469 5.1875 8.230469 5.199219 8.234375 C 5.234375 8.253906 5.265625 8.15625 5.296875 7.9375 C 5.316406 7.816406 5.34375 7.691406 5.355469 7.65625 C 5.375 7.621094 5.402344 7.542969 5.417969 7.488281 C 5.460938 7.351562 5.511719 7.253906 5.679688 6.992188 C 5.753906 6.882812 5.832031 6.757812 5.851562 6.71875 C 5.875 6.675781 5.902344 6.652344 5.925781 6.65625 C 5.949219 6.664062 5.984375 6.636719 6.023438 6.582031 C 6.195312 6.355469 7 5.691406 7.074219 5.714844 C 7.09375 5.71875 7.175781 5.695312 7.261719 5.652344 C 7.410156 5.578125 7.476562 5.5625 7.476562 5.597656 C 7.476562 5.609375 7.453125 5.632812 7.429688 5.648438 C 7.382812 5.679688 7.382812 5.679688 7.457031 5.660156 C 7.507812 5.648438 7.558594 5.640625 7.613281 5.632812 C 7.664062 5.621094 7.6875 5.609375 7.679688 5.59375 C 7.675781 5.574219 7.691406 5.558594 7.71875 5.550781 C 7.792969 5.53125 7.90625 5.535156 7.90625 5.558594 C 7.90625 5.585938 7.84375 5.609375 7.789062 5.605469 C 7.757812 5.597656 7.753906 5.605469 7.78125 5.621094 C 7.804688 5.640625 7.804688 5.640625 7.78125 5.644531 C 7.765625 5.644531 7.757812 5.652344 7.761719 5.65625 C 7.769531 5.660156 7.816406 5.648438 7.863281 5.625 C 7.925781 5.597656 7.992188 5.574219 8.058594 5.558594 C 8.132812 5.546875 8.167969 5.527344 8.167969 5.503906 C 8.167969 5.476562 8.199219 5.472656 8.429688 5.488281 C 8.578125 5.492188 8.796875 5.515625 8.914062 5.535156 C 9.136719 5.570312 9.136719 5.570312 9.222656 5.523438 C 9.324219 5.46875 9.480469 5.464844 9.523438 5.511719 C 9.550781 5.539062 9.582031 5.558594 9.617188 5.578125 C 9.675781 5.605469 9.683594 5.605469 9.65625 5.578125 C 9.609375 5.523438 9.65625 5.523438 9.839844 5.585938 C 10.433594 5.773438 10.914062 6.113281 11.273438 6.59375 C 11.359375 6.703125 11.363281 6.757812 11.285156 6.6875 L 11.238281 6.648438 L 11.273438 6.714844 C 11.292969 6.75 11.308594 6.789062 11.308594 6.804688 C 11.308594 6.820312 11.363281 6.917969 11.433594 7.027344 C 11.59375 7.273438 11.636719 7.355469 11.625 7.386719 C 11.621094 7.398438 11.550781 7.3125 11.46875 7.195312 C 11.386719 7.070312 11.300781 6.953125 11.207031 6.839844 C 11.109375 6.722656 11.085938 6.703125 11.066406 6.726562 C 11.046875 6.746094 11.019531 6.757812 10.992188 6.761719 L 10.945312 6.773438 L 10.988281 6.859375 C 11.015625 6.90625 11.039062 6.941406 11.046875 6.925781 C 11.070312 6.863281 11.175781 6.949219 11.222656 7.070312 C 11.238281 7.109375 11.28125 7.191406 11.316406 7.253906 C 11.347656 7.3125 11.371094 7.367188 11.367188 7.371094 C 11.363281 7.378906 11.328125 7.359375 11.296875 7.335938 L 11.238281 7.289062 L 11.277344 7.359375 C 11.300781 7.394531 11.332031 7.429688 11.363281 7.460938 C 11.390625 7.484375 11.40625 7.519531 11.410156 7.578125 C 11.410156 7.683594 11.472656 7.808594 11.507812 7.777344 C 11.5625 7.722656 11.574219 7.753906 11.558594 7.925781 C 11.546875 8.050781 11.554688 8.128906 11.578125 8.21875 C 11.613281 8.347656 11.605469 8.382812 11.550781 8.320312 C 11.519531 8.28125 11.519531 8.28125 11.535156 8.320312 C 11.566406 8.40625 11.589844 8.535156 11.585938 8.589844 C 11.574219 8.679688 11.535156 8.644531 11.523438 8.519531 L 11.507812 8.402344 L 11.507812 8.527344 C 11.503906 8.597656 11.484375 8.734375 11.46875 8.828125 C 11.449219 8.914062 11.441406 9.003906 11.445312 9.089844 C 11.460938 9.179688 11.449219 9.183594 11.367188 9.117188 C 11.335938 9.09375 11.328125 9.097656 11.304688 9.175781 C 11.289062 9.230469 11.289062 9.289062 11.308594 9.34375 C 11.320312 9.382812 11.328125 9.421875 11.324219 9.464844 C 11.316406 9.523438 11.265625 9.546875 11.265625 9.488281 C 11.265625 9.414062 11.234375 9.441406 11.148438 9.59375 C 10.90625 10.007812 10.527344 10.328125 10.09375 10.480469 C 9.867188 10.566406 9.625 10.613281 9.382812 10.617188 L 9.121094 10.632812 L 9.253906 10.671875 C 9.351562 10.699219 9.414062 10.707031 9.5625 10.695312 C 9.757812 10.679688 9.988281 10.636719 10.089844 10.601562 C 10.132812 10.585938 10.160156 10.585938 10.175781 10.59375 C 10.207031 10.628906 9.90625 10.753906 9.730469 10.78125 C 9.425781 10.832031 9.023438 10.777344 8.664062 10.644531 C 8.421875 10.550781 8.0625 10.3125 8.117188 10.28125 C 8.128906 10.273438 8.195312 10.304688 8.269531 10.347656 C 8.363281 10.40625 8.402344 10.421875 8.402344 10.398438 C 8.402344 10.359375 8.414062 10.359375 8.488281 10.410156 C 8.554688 10.457031 8.761719 10.542969 8.910156 10.585938 C 9.074219 10.632812 9.011719 10.574219 8.796875 10.476562 C 8.109375 10.171875 7.820312 9.863281 7.675781 9.277344 C 7.625 9.058594 7.679688 8.589844 7.777344 8.441406 C 7.796875 8.40625 7.8125 8.371094 7.820312 8.335938 C 7.820312 8.253906 7.964844 8.035156 8.109375 7.898438 C 8.363281 7.652344 8.632812 7.546875 8.980469 7.566406 C 9.148438 7.574219 9.21875 7.585938 9.359375 7.636719 C 9.515625 7.699219 9.71875 7.824219 9.65625 7.828125 C 9.609375 7.816406 9.5625 7.800781 9.515625 7.785156 C 9.421875 7.742188 9.363281 7.738281 9.144531 7.738281 C 8.84375 7.738281 8.695312 7.777344 8.476562 7.921875 C 8.171875 8.125 8.003906 8.363281 7.941406 8.671875 C 7.902344 8.875 7.902344 8.933594 7.929688 9.136719 C 7.949219 9.253906 7.964844 9.289062 7.984375 9.28125 C 8.003906 9.273438 8.015625 9.285156 8.015625 9.308594 C 8.015625 9.382812 8.179688 9.675781 8.296875 9.804688 C 8.570312 10.125 9.011719 10.328125 9.433594 10.328125 C 9.65625 10.328125 9.832031 10.285156 9.992188 10.199219 C 10.058594 10.164062 10.140625 10.121094 10.175781 10.101562 C 10.300781 10.042969 10.382812 9.972656 10.46875 9.84375 C 10.523438 9.765625 10.574219 9.707031 10.59375 9.707031 C 10.617188 9.707031 10.617188 9.71875 10.589844 9.761719 C 10.492188 9.914062 10.71875 9.636719 10.835938 9.464844 L 10.964844 9.261719 L 10.949219 9.132812 C 10.9375 9.007812 10.941406 9 11.003906 8.9375 C 11.0625 8.878906 11.066406 8.859375 11.074219 8.695312 C 11.078125 8.550781 11.074219 8.519531 11.050781 8.519531 C 11.027344 8.519531 11.015625 8.484375 11.003906 8.355469 C 10.988281 8.183594 10.847656 7.621094 10.8125 7.601562 C 10.800781 7.59375 10.777344 7.539062 10.753906 7.480469 C 10.671875 7.277344 10.53125 7.082031 10.308594 6.867188 C 9.988281 6.554688 9.589844 6.320312 9.210938 6.214844 C 8.886719 6.125 8.339844 6.15625 7.949219 6.289062 C 7.761719 6.351562 7.574219 6.4375 7.539062 6.476562 C 7.527344 6.492188 7.507812 6.5 7.496094 6.492188 C 7.484375 6.488281 7.488281 6.46875 7.503906 6.449219 C 7.574219 6.367188 7.339844 6.519531 7.183594 6.65625 C 7.09375 6.738281 7.011719 6.804688 7.007812 6.808594 C 7.003906 6.816406 7.023438 6.808594 7.046875 6.800781 C 7.09375 6.789062 7.09375 6.796875 7.070312 6.835938 C 7.054688 6.863281 6.972656 6.910156 6.878906 6.953125 C 6.71875 7.023438 6.613281 7.101562 6.527344 7.214844 C 6.492188 7.257812 6.492188 7.265625 6.519531 7.257812 C 6.535156 7.253906 6.550781 7.253906 6.550781 7.269531 C 6.550781 7.324219 6.496094 7.394531 6.414062 7.429688 C 6.230469 7.515625 5.90625 7.972656 5.738281 8.390625 C 5.65625 8.578125 5.660156 8.574219 5.703125 8.574219 C 5.746094 8.574219 5.742188 8.617188 5.683594 8.878906 C 5.59375 9.253906 5.59375 9.242188 5.691406 9.769531 C 5.804688 10.410156 5.875 10.628906 6.007812 10.761719 C 6.042969 10.808594 6.066406 10.867188 6.078125 10.925781 C 6.089844 10.996094 6.121094 11.058594 6.171875 11.109375 C 6.214844 11.15625 6.230469 11.179688 6.214844 11.1875 C 6.179688 11.199219 6.285156 11.351562 6.382812 11.429688 C 6.429688 11.46875 6.46875 11.484375 6.507812 11.476562 C 6.59375 11.460938 6.679688 11.507812 6.816406 11.640625 C 6.953125 11.78125 6.96875 11.824219 6.878906 11.808594 C 6.816406 11.800781 6.816406 11.800781 6.84375 11.84375 C 6.863281 11.867188 6.925781 11.929688 6.984375 11.976562 C 7.066406 12.046875 7.089844 12.074219 7.078125 12.105469 C 7.0625 12.152344 7.105469 12.195312 7.203125 12.226562 C 7.261719 12.25 7.28125 12.296875 7.238281 12.3125 C 7.222656 12.320312 7.308594 12.402344 7.425781 12.496094 C 7.558594 12.609375 7.648438 12.671875 7.660156 12.65625 C 7.695312 12.628906 7.738281 12.636719 7.738281 12.675781 C 7.738281 12.71875 7.777344 12.761719 7.910156 12.878906 C 7.996094 12.953125 8.019531 12.964844 8.070312 12.949219 C 8.121094 12.9375 8.152344 12.945312 8.21875 12.988281 C 8.355469 13.078125 8.4375 13.113281 8.511719 13.113281 C 8.578125 13.113281 8.589844 13.132812 8.550781 13.199219 C 8.53125 13.234375 8.539062 13.238281 8.582031 13.238281 C 8.609375 13.238281 8.691406 13.257812 8.757812 13.28125 C 8.914062 13.328125 8.976562 13.335938 8.941406 13.289062 C 8.882812 13.21875 8.945312 13.238281 9.152344 13.351562 C 9.441406 13.507812 9.585938 13.523438 10.160156 13.472656 C 10.246094 13.46875 10.273438 13.46875 10.273438 13.492188 C 10.273438 13.511719 10.199219 13.535156 10.066406 13.570312 C 9.882812 13.609375 9.789062 13.617188 9.425781 13.621094 C 9.222656 13.628906 9.023438 13.621094 8.824219 13.597656 Z M 8.53125 10.507812 C 8.53125 10.503906 8.507812 10.484375 8.472656 10.46875 L 8.414062 10.433594 L 8.464844 10.472656 C 8.511719 10.515625 8.53125 10.527344 8.53125 10.507812 M 11.492188 8.34375 C 11.488281 8.328125 11.484375 8.332031 11.480469 8.359375 C 11.480469 8.378906 11.488281 8.390625 11.492188 8.382812 C 11.5 8.378906 11.5 8.359375 11.492188 8.34375 M 6.59375 6.164062 C 6.621094 6.132812 6.621094 6.132812 6.589844 6.15625 C 6.566406 6.171875 6.550781 6.1875 6.550781 6.195312 C 6.550781 6.210938 6.570312 6.199219 6.597656 6.164062 M 6.84375 5.972656 C 6.863281 5.953125 6.875 5.933594 6.867188 5.933594 C 6.851562 5.941406 6.835938 5.957031 6.820312 5.972656 C 6.800781 5.996094 6.785156 6.015625 6.789062 6.015625 C 6.800781 6.015625 6.820312 5.996094 6.84375 5.972656 M 7.113281 5.828125 C 7.183594 5.804688 7.222656 5.800781 7.238281 5.816406 C 7.253906 5.832031 7.308594 5.824219 7.410156 5.789062 C 7.496094 5.761719 7.558594 5.738281 7.554688 5.734375 C 7.550781 5.726562 7.484375 5.746094 7.402344 5.769531 C 7.296875 5.804688 7.253906 5.8125 7.242188 5.792969 C 7.222656 5.761719 7.027344 5.824219 6.941406 5.890625 L 6.886719 5.933594 L 6.949219 5.898438 C 6.980469 5.878906 7.054688 5.847656 7.113281 5.828125 M 7.734375 5.777344 C 7.796875 5.757812 7.84375 5.742188 7.835938 5.734375 C 7.828125 5.726562 7.605469 5.789062 7.605469 5.800781 C 7.605469 5.8125 7.609375 5.8125 7.734375 5.777344 M 8.089844 5.664062 L 8.175781 5.648438 L 8.097656 5.648438 C 8.054688 5.648438 8.011719 5.660156 7.96875 5.679688 C 7.933594 5.699219 7.929688 5.707031 7.960938 5.695312 C 7.984375 5.6875 8.039062 5.671875 8.089844 5.664062 Z M 8.261719 5.625 C 8.265625 5.613281 8.253906 5.609375 8.226562 5.617188 C 8.179688 5.628906 8.171875 5.644531 8.21875 5.644531 C 8.234375 5.644531 8.253906 5.632812 8.261719 5.625 M 8.953125 5.632812 C 8.949219 5.625 8.929688 5.625 8.914062 5.632812 C 8.898438 5.636719 8.902344 5.644531 8.925781 5.644531 C 8.949219 5.644531 8.960938 5.636719 8.953125 5.632812 Z M 8.824219 5.609375 C 8.800781 5.601562 8.773438 5.601562 8.75 5.609375 C 8.730469 5.617188 8.746094 5.617188 8.789062 5.617188 C 8.828125 5.617188 8.847656 5.613281 8.824219 5.609375 M 8.609375 5.585938 C 8.554688 5.582031 8.496094 5.582031 8.441406 5.585938 C 8.386719 5.59375 8.425781 5.597656 8.519531 5.597656 C 8.613281 5.597656 8.65625 5.589844 8.613281 5.585938 M 8.332031 5.570312 C 8.324219 5.5625 8.308594 5.5625 8.289062 5.570312 C 8.273438 5.578125 8.277344 5.582031 8.300781 5.582031 C 8.324219 5.582031 8.335938 5.574219 8.332031 5.570312 Z M 8.183594 10.535156 C 7.96875 10.382812 7.886719 10.304688 7.886719 10.246094 C 7.886719 10.214844 7.890625 10.1875 7.902344 10.1875 C 7.933594 10.1875 8.300781 10.554688 8.289062 10.578125 C 8.285156 10.59375 8.242188 10.570312 8.1875 10.535156 M 8.074219 10.152344 C 7.960938 10.039062 7.921875 9.980469 7.96875 9.980469 C 7.996094 9.980469 8.207031 10.214844 8.207031 10.246094 C 8.207031 10.257812 8.203125 10.269531 8.199219 10.269531 C 8.199219 10.269531 8.140625 10.21875 8.074219 10.152344 M 9.332031 9.699219 C 9.273438 9.675781 9.308594 9.632812 9.40625 9.613281 C 9.464844 9.601562 9.550781 9.574219 9.605469 9.550781 C 9.65625 9.527344 9.707031 9.511719 9.710938 9.515625 C 9.714844 9.523438 9.691406 9.566406 9.65625 9.617188 C 9.59375 9.710938 9.59375 9.710938 9.476562 9.710938 C 9.410156 9.710938 9.34375 9.703125 9.332031 9.699219 M 9.976562 9.234375 C 9.921875 9.214844 9.917969 9.175781 9.96875 9.046875 C 10.007812 8.933594 10.050781 8.914062 10.027344 9.015625 C 10.015625 9.050781 10.007812 9.105469 10.003906 9.132812 L 9.992188 9.183594 L 10.035156 9.140625 C 10.066406 9.089844 10.085938 9.035156 10.09375 8.976562 C 10.101562 8.917969 10.113281 8.871094 10.128906 8.875 C 10.152344 8.890625 10.152344 9.054688 10.121094 9.164062 C 10.097656 9.261719 10.074219 9.273438 9.976562 9.234375 M 4.886719 8.976562 C 4.875 8.921875 4.871094 8.871094 4.871094 8.820312 C 4.871094 8.730469 4.882812 8.699219 4.902344 8.703125 C 4.929688 8.714844 4.949219 9.007812 4.921875 9.007812 C 4.90625 9.007812 4.890625 8.996094 4.886719 8.976562 M 10.0625 8.492188 C 10.03125 8.449219 10.019531 8.414062 10.03125 8.378906 C 10.046875 8.304688 10.097656 8.316406 10.136719 8.402344 C 10.195312 8.535156 10.144531 8.597656 10.0625 8.492188 M 4.882812 8.164062 C 4.882812 8.046875 4.882812 8.042969 4.933594 8.046875 C 4.984375 8.046875 4.992188 8.058594 4.996094 8.113281 C 5.003906 8.171875 4.9375 8.285156 4.898438 8.285156 C 4.890625 8.285156 4.882812 8.230469 4.882812 8.164062 M 10.460938 5.625 C 10.464844 5.441406 10.496094 5.378906 10.519531 5.507812 C 10.535156 5.597656 10.515625 5.757812 10.480469 5.78125 C 10.464844 5.796875 10.457031 5.757812 10.460938 5.625 M 7.632812 5.511719 C 7.640625 5.488281 7.9375 5.375 7.992188 5.375 C 8.058594 5.375 7.941406 5.449219 7.808594 5.492188 C 7.65625 5.542969 7.617188 5.550781 7.632812 5.515625 "/>
</svg>
