<?xml version="1.0" encoding="UTF-8"?>
<svg xmlns="http://www.w3.org/2000/svg" xmlns:xlink="http://www.w3.org/1999/xlink" width="16" height="16" viewBox="0 0 16 16">
<path fill="none" stroke-width="1.000068" stroke-linecap="round" stroke-linejoin="round" stroke="rgb(48.235294%, 43.529412%, 39.215687%)" stroke-opacity="1" stroke-miterlimit="4" d="M 6.5 2.5 L 5.5 3.5 L 5.5 29.5 L 6.5 30.5 L 26.5 30.5 L 27.5 29.5 L 27.5 10.5 L 19.5 2.5 Z M 6.5 2.5 " transform="matrix(0.5, 0, 0, 0.5, 0, 0)"/>
<path fill="none" stroke-width="1.000068" stroke-linecap="round" stroke-linejoin="round" stroke="rgb(48.235294%, 43.529412%, 39.215687%)" stroke-opacity="1" stroke-miterlimit="4" d="M 19.5 2.5 L 27.5 10.5 L 20.5 10.5 L 19.5 9.5 Z M 19.5 2.5 " transform="matrix(0.5, 0, 0, 0.5, 0, 0)"/>
<path fill-rule="nonzero" fill="rgb(56.078434%, 24.705882%, 44.313726%)" fill-opacity="1" d="M 8.25 5.375 C 5.972656 5.375 4.125 5.988281 4.125 6.75 L 4.125 9.5 C 4.128906 10.171875 5.578125 10.742188 7.5625 10.855469 L 7.5625 12.25 L 6.1875 12.25 L 6.1875 11.5625 L 4.125 11.5625 L 4.125 13.625 L 6.1875 13.625 L 6.1875 12.9375 L 10.3125 12.9375 L 10.3125 13.625 L 12.375 13.625 L 12.375 11.5625 L 10.3125 11.5625 L 10.3125 12.25 L 8.9375 12.25 L 8.9375 10.855469 C 10.921875 10.742188 12.371094 10.171875 12.375 9.5 L 12.375 6.75 C 12.375 5.988281 10.527344 5.375 8.25 5.375 M 8.25 6.0625 C 10.148438 6.0625 11.6875 6.371094 11.6875 6.75 C 11.6875 7.128906 10.148438 7.4375 8.25 7.4375 C 6.351562 7.4375 4.8125 7.128906 4.8125 6.75 C 4.8125 6.371094 6.351562 6.0625 8.25 6.0625 M 4.8125 7.507812 C 5.574219 7.894531 6.863281 8.125 8.25 8.125 C 9.632812 8.125 10.925781 7.890625 11.6875 7.507812 L 11.6875 9.5 C 11.6875 9.878906 10.148438 10.1875 8.25 10.1875 C 6.351562 10.1875 4.8125 9.878906 4.8125 9.5 Z M 4.8125 12.25 L 5.5 12.25 L 5.5 12.9375 L 4.8125 12.9375 Z M 11 12.25 L 11.6875 12.25 L 11.6875 12.9375 L 11 12.9375 Z M 11 12.25 "/>
</svg>
