<?xml version="1.0" encoding="UTF-8"?>
<svg xmlns="http://www.w3.org/2000/svg" xmlns:xlink="http://www.w3.org/1999/xlink" width="16" height="16" viewBox="0 0 16 16">
<path fill="none" stroke-width="1.000068" stroke-linecap="round" stroke-linejoin="round" stroke="rgb(48.235294%, 43.529412%, 39.215687%)" stroke-opacity="1" stroke-miterlimit="4" d="M 6.5 2.5 L 5.5 3.5 L 5.5 29.5 L 6.5 30.5 L 26.5 30.5 L 27.5 29.5 L 27.5 10.5 L 19.5 2.5 Z M 6.5 2.5 " transform="matrix(0.5, 0, 0, 0.5, 0, 0)"/>
<path fill="none" stroke-width="1.000068" stroke-linecap="round" stroke-linejoin="round" stroke="rgb(48.235294%, 43.529412%, 39.215687%)" stroke-opacity="1" stroke-miterlimit="4" d="M 19.5 2.5 L 27.5 10.5 L 20.5 10.5 L 19.5 9.5 Z M 19.5 2.5 " transform="matrix(0.5, 0, 0, 0.5, 0, 0)"/>
<path fill-rule="nonzero" fill="rgb(28.235295%, 72.549021%, 78.039217%)" fill-opacity="1" d="M 6.425781 13.554688 C 6.261719 13.511719 6.28125 13.464844 6.550781 13.214844 C 7.015625 12.777344 7.097656 12.34375 6.964844 10.910156 C 6.859375 9.773438 6.835938 9.683594 6.65625 9.78125 C 6.269531 9.988281 5.785156 9.71875 5.238281 8.996094 C 4.96875 8.640625 4.945312 8.535156 4.988281 7.980469 C 5.015625 7.636719 5.074219 7.226562 5.117188 7.066406 C 5.183594 6.816406 5.160156 6.769531 4.980469 6.769531 C 4.847656 6.761719 4.722656 6.703125 4.632812 6.609375 C 4.445312 6.382812 4.78125 6.019531 5.175781 6.019531 C 5.335938 6.019531 5.527344 5.949219 5.597656 5.859375 C 5.789062 5.632812 6.078125 5.65625 6.40625 5.941406 C 6.75 6.238281 6.867188 6.925781 6.675781 7.511719 C 6.453125 8.179688 6.605469 8.242188 6.914062 7.617188 C 7.085938 7.265625 7.328125 6.960938 7.527344 6.839844 C 7.710938 6.734375 7.972656 6.460938 8.117188 6.234375 C 8.261719 6.007812 8.441406 5.78125 8.515625 5.734375 C 8.75 5.585938 9.390625 5.378906 9.628906 5.378906 C 9.957031 5.371094 10.398438 5.757812 10.472656 6.113281 C 10.511719 6.28125 10.707031 6.675781 10.910156 6.992188 C 11.113281 7.308594 11.28125 7.621094 11.28125 7.6875 C 11.28125 7.757812 11.425781 7.992188 11.601562 8.214844 C 11.867188 8.550781 11.925781 8.71875 11.921875 9.167969 C 11.914062 9.785156 11.578125 10.578125 11.460938 10.261719 C 11.421875 10.15625 11.433594 9.988281 11.492188 9.878906 C 11.613281 9.652344 11.507812 8.640625 11.378906 8.773438 C 11.285156 8.863281 11.222656 9.851562 11.25 10.84375 C 11.28125 12.132812 11.21875 13.34375 11.117188 13.378906 C 10.859375 13.460938 10.746094 13.25 10.851562 12.875 C 11.011719 12.316406 10.980469 10.828125 10.800781 10.59375 C 10.71875 10.484375 10.621094 10.207031 10.582031 9.976562 C 10.542969 9.746094 10.46875 9.53125 10.417969 9.5 C 10.246094 9.398438 9.992188 10.074219 9.992188 10.625 C 9.992188 11.054688 9.925781 11.257812 9.671875 11.613281 C 9.308594 12.113281 9.28125 12.261719 9.511719 12.453125 C 9.691406 12.601562 9.722656 12.941406 9.570312 13.035156 C 9.515625 13.070312 9.371094 12.992188 9.246094 12.863281 C 9.074219 12.679688 9.027344 12.664062 9.027344 12.796875 C 9.027344 12.988281 8.632812 13.121094 8.414062 13 C 8.296875 12.933594 8.324219 12.878906 8.539062 12.738281 C 8.921875 12.484375 8.886719 12.277344 8.371094 11.808594 C 7.972656 11.441406 7.9375 11.367188 8.003906 11.042969 C 8.210938 10.011719 8.210938 9.988281 7.96875 9.988281 C 7.808594 9.988281 7.742188 10.054688 7.742188 10.210938 C 7.742188 10.328125 7.691406 10.527344 7.621094 10.652344 C 7.511719 10.867188 7.472656 11.035156 7.199219 12.800781 C 7.058594 13.679688 7.023438 13.714844 6.425781 13.554688 M 9.304688 11.683594 C 9.445312 11.414062 9.464844 11.183594 9.40625 10.550781 C 9.324219 9.703125 9.265625 9.675781 9.035156 10.363281 C 8.957031 10.597656 8.800781 10.90625 8.691406 11.046875 C 8.433594 11.371094 8.441406 11.472656 8.722656 11.777344 C 9.03125 12.097656 9.09375 12.089844 9.304688 11.683594 "/>
</svg>
