<?xml version="1.0" encoding="UTF-8"?>
<svg xmlns="http://www.w3.org/2000/svg" xmlns:xlink="http://www.w3.org/1999/xlink" width="16" height="16" viewBox="0 0 16 16">
<path fill="none" stroke-width="1.000068" stroke-linecap="round" stroke-linejoin="round" stroke="rgb(48.235294%, 43.529412%, 39.215687%)" stroke-opacity="1" stroke-miterlimit="4" d="M 6.5 2.5 L 5.5 3.5 L 5.5 29.5 L 6.5 30.5 L 26.5 30.5 L 27.5 29.5 L 27.5 10.5 L 19.5 2.5 Z M 6.5 2.5 " transform="matrix(0.5, 0, 0, 0.5, 0, 0)"/>
<path fill="none" stroke-width="1.000068" stroke-linecap="round" stroke-linejoin="round" stroke="rgb(48.235294%, 43.529412%, 39.215687%)" stroke-opacity="1" stroke-miterlimit="4" d="M 19.5 2.5 L 27.5 10.5 L 20.5 10.5 L 19.5 9.5 Z M 19.5 2.5 " transform="matrix(0.5, 0, 0, 0.5, 0, 0)"/>
<path fill-rule="nonzero" fill="rgb(97.647059%, 74.117649%, 18.039216%)" fill-opacity="1" d="M 8.226562 12.054688 L 5.644531 9.476562 L 8.226562 6.894531 L 9.089844 7.753906 L 7.367188 9.476562 L 8.226562 10.335938 L 10.808594 7.753906 L 8.558594 5.503906 C 8.375 5.324219 8.078125 5.324219 7.894531 5.503906 L 4.257812 9.144531 C 4.167969 9.230469 4.117188 9.351562 4.117188 9.476562 C 4.117188 9.601562 4.167969 9.722656 4.257812 9.808594 L 7.894531 13.445312 C 8.078125 13.628906 8.375 13.628906 8.558594 13.445312 L 12.195312 9.808594 C 12.285156 9.722656 12.335938 9.601562 12.335938 9.476562 C 12.335938 9.351562 12.285156 9.230469 12.195312 9.144531 L 11.667969 8.613281 Z M 8.226562 12.054688 "/>
</svg>
