<?xml version="1.0" encoding="UTF-8"?>
<svg xmlns="http://www.w3.org/2000/svg" xmlns:xlink="http://www.w3.org/1999/xlink" width="16" height="16" viewBox="0 0 16 16">
<path fill="none" stroke-width="1.000068" stroke-linecap="round" stroke-linejoin="round" stroke="rgb(48.235294%, 43.529412%, 39.215687%)" stroke-opacity="1" stroke-miterlimit="4" d="M 6.5 2.5 L 5.5 3.5 L 5.5 29.5 L 6.5 30.5 L 26.5 30.5 L 27.5 29.5 L 27.5 10.5 L 19.5 2.5 Z M 6.5 2.5 " transform="matrix(0.5, 0, 0, 0.5, 0, 0)"/>
<path fill="none" stroke-width="1.000068" stroke-linecap="round" stroke-linejoin="round" stroke="rgb(48.235294%, 43.529412%, 39.215687%)" stroke-opacity="1" stroke-miterlimit="4" d="M 19.5 2.5 L 27.5 10.5 L 20.5 10.5 L 19.5 9.5 Z M 19.5 2.5 " transform="matrix(0.5, 0, 0, 0.5, 0, 0)"/>
<path fill-rule="nonzero" fill="rgb(28.235295%, 72.549021%, 78.039217%)" fill-opacity="1" d="M 6.1875 5.375 L 6.1875 11.070312 C 5.980469 10.945312 5.742188 10.878906 5.5 10.875 C 4.742188 10.875 4.125 11.492188 4.125 12.25 C 4.125 13.007812 4.742188 13.625 5.5 13.625 C 6.261719 13.625 6.875 13.011719 6.875 12.25 L 6.875 7.4375 L 11.6875 7.4375 L 11.6875 10.382812 C 11.480469 10.257812 11.242188 10.191406 11 10.1875 C 10.242188 10.1875 9.625 10.804688 9.625 11.5625 C 9.625 12.320312 10.242188 12.9375 11 12.9375 C 11.761719 12.9375 12.375 12.324219 12.375 11.5625 L 12.375 5.375 Z M 6.875 6.0625 L 11.6875 6.0625 L 11.6875 6.75 L 6.875 6.75 Z M 6.875 6.0625 "/>
</svg>
