<?xml version="1.0" encoding="UTF-8"?>
<svg xmlns="http://www.w3.org/2000/svg" xmlns:xlink="http://www.w3.org/1999/xlink" width="16" height="16" viewBox="0 0 16 16">
<path fill="none" stroke-width="1.000068" stroke-linecap="round" stroke-linejoin="round" stroke="rgb(48.235294%, 43.529412%, 39.215687%)" stroke-opacity="1" stroke-miterlimit="4" d="M 6.5 2.5 L 5.5 3.5 L 5.5 29.5 L 6.5 30.5 L 26.5 30.5 L 27.5 29.5 L 27.5 10.5 L 19.5 2.5 Z M 6.5 2.5 " transform="matrix(0.5, 0, 0, 0.5, 0, 0)"/>
<path fill="none" stroke-width="1.000068" stroke-linecap="round" stroke-linejoin="round" stroke="rgb(48.235294%, 43.529412%, 39.215687%)" stroke-opacity="1" stroke-miterlimit="4" d="M 19.5 2.5 L 27.5 10.5 L 20.5 10.5 L 19.5 9.5 Z M 19.5 2.5 " transform="matrix(0.5, 0, 0, 0.5, 0, 0)"/>
<path fill-rule="nonzero" fill="rgb(2.352941%, 40.000001%, 47.058824%)" fill-opacity="1" d="M 6.1875 5.375 C 5.640625 5.375 5.113281 5.589844 4.726562 5.976562 C 4.339844 6.363281 4.125 6.890625 4.125 7.4375 L 4.125 8.125 L 7.5625 13.625 L 7.5625 9.5 L 10.3125 9.5 C 10.859375 9.5 11.386719 9.285156 11.773438 8.898438 C 12.160156 8.511719 12.375 7.984375 12.375 7.4375 C 12.375 6.890625 12.160156 6.363281 11.773438 5.976562 C 11.386719 5.589844 10.859375 5.375 10.3125 5.375 Z M 10.3125 6.0625 C 11.070312 6.0625 11.6875 6.679688 11.6875 7.4375 C 11.6875 8.195312 11.070312 8.8125 10.3125 8.8125 C 9.554688 8.8125 8.9375 8.195312 8.9375 7.4375 C 8.9375 6.679688 9.554688 6.0625 10.3125 6.0625 "/>
</svg>
