<?xml version="1.0" encoding="UTF-8"?>
<svg xmlns="http://www.w3.org/2000/svg" xmlns:xlink="http://www.w3.org/1999/xlink" width="16" height="16" viewBox="0 0 16 16">
<path fill="none" stroke-width="1.000068" stroke-linecap="round" stroke-linejoin="round" stroke="rgb(48.235294%, 43.529412%, 39.215687%)" stroke-opacity="1" stroke-miterlimit="4" d="M 6.5 2.5 L 5.5 3.5 L 5.5 29.5 L 6.5 30.5 L 26.5 30.5 L 27.5 29.5 L 27.5 10.5 L 19.5 2.5 Z M 6.5 2.5 " transform="matrix(0.5, 0, 0, 0.5, 0, 0)"/>
<path fill="none" stroke-width="1.000068" stroke-linecap="round" stroke-linejoin="round" stroke="rgb(48.235294%, 43.529412%, 39.215687%)" stroke-opacity="1" stroke-miterlimit="4" d="M 19.5 2.5 L 27.5 10.5 L 20.5 10.5 L 19.5 9.5 Z M 19.5 2.5 " transform="matrix(0.5, 0, 0, 0.5, 0, 0)"/>
<path fill-rule="nonzero" fill="rgb(48.627451%, 71.372551%, 40.784314%)" fill-opacity="1" d="M 5.5 5.375 L 5.5 7.4375 L 6.1875 7.4375 L 6.1875 8.574219 C 5.777344 8.71875 5.5 9.105469 5.5 9.542969 C 5.5 9.976562 5.773438 10.367188 6.1875 10.511719 L 6.1875 11.5625 L 5.5 11.5625 L 5.5 13.625 L 7.5625 13.625 L 7.5625 12.382812 C 8.46875 13.175781 9.703125 13.621094 11 13.625 L 11 12.9375 C 9.15625 12.933594 7.535156 11.917969 7.03125 10.441406 C 7.359375 10.261719 7.5625 9.917969 7.5625 9.542969 C 7.5625 9.160156 7.351562 8.8125 7.011719 8.632812 C 7.488281 7.121094 9.125 6.066406 11 6.0625 L 11 5.375 C 9.707031 5.375 8.46875 5.820312 7.5625 6.613281 L 7.5625 5.375 Z M 6.1875 6.0625 L 6.875 6.0625 L 6.875 6.75 L 6.1875 6.75 Z M 6.1875 12.25 L 6.875 12.25 L 6.875 12.9375 L 6.1875 12.9375 Z M 6.1875 12.25 "/>
</svg>
