<?xml version="1.0" encoding="UTF-8"?>
<svg xmlns="http://www.w3.org/2000/svg" xmlns:xlink="http://www.w3.org/1999/xlink" width="16" height="16" viewBox="0 0 16 16">
<path fill="none" stroke-width="1.000068" stroke-linecap="round" stroke-linejoin="round" stroke="rgb(48.235294%, 43.529412%, 39.215687%)" stroke-opacity="1" stroke-miterlimit="4" d="M 6.5 2.5 L 5.5 3.5 L 5.5 29.5 L 6.5 30.5 L 26.5 30.5 L 27.5 29.5 L 27.5 10.5 L 19.5 2.5 Z M 6.5 2.5 " transform="matrix(0.5, 0, 0, 0.5, 0, 0)"/>
<path fill="none" stroke-width="1.000068" stroke-linecap="round" stroke-linejoin="round" stroke="rgb(48.235294%, 43.529412%, 39.215687%)" stroke-opacity="1" stroke-miterlimit="4" d="M 19.5 2.5 L 27.5 10.5 L 20.5 10.5 L 19.5 9.5 Z M 19.5 2.5 " transform="matrix(0.5, 0, 0, 0.5, 0, 0)"/>
<path fill-rule="nonzero" fill="rgb(28.235295%, 72.549021%, 78.039217%)" fill-opacity="1" d="M 4.125 5.375 L 4.125 11.554688 L 3.4375 12.242188 L 3.4375 12.25 L 4.125 12.25 L 4.125 13.625 L 12.375 13.625 L 12.375 11.566406 L 13.0625 11.566406 L 13.0625 11.554688 L 12.375 10.867188 L 12.375 5.375 Z M 4.8125 6.0625 L 11.6875 6.0625 L 11.6875 10.179688 L 8.941406 7.4375 L 8.9375 7.4375 L 8.9375 7.441406 L 8.933594 7.441406 L 7.21875 9.152344 L 6.878906 8.8125 L 6.871094 8.8125 L 4.8125 10.871094 Z M 6.1875 6.75 C 5.804688 6.75 5.5 7.054688 5.5 7.4375 C 5.5 7.820312 5.804688 8.125 6.1875 8.125 C 6.570312 8.125 6.875 7.820312 6.875 7.4375 C 6.875 7.054688 6.570312 6.75 6.1875 6.75 M 8.9375 8.40625 L 11.6875 11.15625 L 11.6875 11.5625 L 9.632812 11.5625 L 7.703125 9.636719 Z M 6.875 9.78125 L 8.65625 11.5625 L 5.09375 11.5625 Z M 4.8125 12.25 L 9.34375 12.25 L 9.34375 12.253906 L 10.3125 12.253906 L 10.3125 12.25 L 11.6875 12.25 L 11.6875 12.9375 L 4.8125 12.9375 Z M 4.8125 12.25 "/>
</svg>
