<?xml version="1.0" encoding="UTF-8"?>
<svg xmlns="http://www.w3.org/2000/svg" xmlns:xlink="http://www.w3.org/1999/xlink" width="16" height="16" viewBox="0 0 16 16">
<path fill="none" stroke-width="1.000068" stroke-linecap="round" stroke-linejoin="round" stroke="rgb(48.235294%, 43.529412%, 39.215687%)" stroke-opacity="1" stroke-miterlimit="4" d="M 6.5 2.5 L 5.5 3.5 L 5.5 29.5 L 6.5 30.5 L 26.5 30.5 L 27.5 29.5 L 27.5 10.5 L 19.5 2.5 Z M 6.5 2.5 " transform="matrix(0.5, 0, 0, 0.5, 0, 0)"/>
<path fill="none" stroke-width="1.000068" stroke-linecap="round" stroke-linejoin="round" stroke="rgb(48.235294%, 43.529412%, 39.215687%)" stroke-opacity="1" stroke-miterlimit="4" d="M 19.5 2.5 L 27.5 10.5 L 20.5 10.5 L 19.5 9.5 Z M 19.5 2.5 " transform="matrix(0.5, 0, 0, 0.5, 0, 0)"/>
<path fill-rule="nonzero" fill="rgb(48.627451%, 71.372551%, 40.784314%)" fill-opacity="1" d="M 4.171875 5.375 L 4.171875 13.625 L 12.421875 13.625 L 12.421875 5.375 Z M 4.859375 6.0625 L 6.171875 6.0625 C 6.210938 6.171875 6.230469 6.289062 6.230469 6.40625 C 6.230469 6.976562 5.769531 7.4375 5.199219 7.4375 C 5.085938 7.4375 4.96875 7.414062 4.859375 7.378906 Z M 6.882812 6.0625 L 11.726562 6.0625 L 11.726562 12.9375 L 4.851562 12.9375 L 4.851562 12.398438 L 5.765625 11.507812 L 6.734375 10.539062 L 7.121094 10.828125 L 7.878906 11.5625 L 9.664062 9.914062 L 12.414062 12.589844 L 11.726562 10.875 L 9.664062 8.8125 L 7.878906 10.601562 L 6.777344 9.5 L 4.851562 11.425781 L 4.851562 8.089844 C 5.359375 8.191406 5.882812 8.0625 6.285156 7.738281 C 6.683594 7.410156 6.914062 6.921875 6.914062 6.40625 C 6.917969 6.289062 6.902344 6.175781 6.878906 6.0625 "/>
</svg>
