<?xml version="1.0" encoding="UTF-8"?>
<svg xmlns="http://www.w3.org/2000/svg" xmlns:xlink="http://www.w3.org/1999/xlink" width="16" height="16" viewBox="0 0 16 16">
<path fill="none" stroke-width="1.000068" stroke-linecap="round" stroke-linejoin="round" stroke="rgb(48.235294%, 43.529412%, 39.215687%)" stroke-opacity="1" stroke-miterlimit="4" d="M 6.5 2.5 L 5.5 3.5 L 5.5 29.5 L 6.5 30.5 L 26.5 30.5 L 27.5 29.5 L 27.5 10.5 L 19.5 2.5 Z M 6.5 2.5 " transform="matrix(0.5, 0, 0, 0.5, 0, 0)"/>
<path fill="none" stroke-width="1.000068" stroke-linecap="round" stroke-linejoin="round" stroke="rgb(48.235294%, 43.529412%, 39.215687%)" stroke-opacity="1" stroke-miterlimit="4" d="M 19.5 2.5 L 27.5 10.5 L 20.5 10.5 L 19.5 9.5 Z M 19.5 2.5 " transform="matrix(0.5, 0, 0, 0.5, 0, 0)"/>
<path fill-rule="evenodd" fill="rgb(28.235295%, 72.549021%, 78.039217%)" fill-opacity="1" d="M 7.5625 5.375 L 7.5625 6.75 L 8.9375 6.75 L 8.9375 5.375 Z M 7.472656 6.996094 L 6.113281 7.359375 L 6.675781 7.925781 L 7.5625 7.683594 L 7.5625 6.996094 Z M 8.9375 6.996094 L 8.9375 7.683594 L 11.039062 8.246094 L 8.9375 8.808594 L 8.9375 13.621094 L 9.027344 13.621094 L 12.367188 12.726562 L 12.375 12.726562 L 12.375 7.886719 L 12.367188 7.886719 L 9.027344 6.992188 Z M 5.027344 7.652344 L 4.125 7.890625 L 4.125 12.9375 L 8.25 13.625 L 8.25 8.8125 L 5.230469 8.308594 L 5.589844 8.214844 Z M 11.6875 8.785156 L 11.6875 11.835938 L 9.625 11.277344 L 9.625 9.339844 Z M 9.625 11.992188 L 11.039062 12.371094 L 9.625 12.753906 Z M 9.625 11.992188 "/>
</svg>
