<?xml version="1.0" encoding="UTF-8"?>
<svg xmlns="http://www.w3.org/2000/svg" xmlns:xlink="http://www.w3.org/1999/xlink" width="16" height="16" viewBox="0 0 16 16">
<path fill="none" stroke-width="1.000068" stroke-linecap="round" stroke-linejoin="round" stroke="rgb(48.235294%, 43.529412%, 39.215687%)" stroke-opacity="1" stroke-miterlimit="4" d="M 6.5 2.5 L 5.5 3.5 L 5.5 29.5 L 6.5 30.5 L 26.5 30.5 L 27.5 29.5 L 27.5 10.5 L 19.5 2.5 Z M 6.5 2.5 " transform="matrix(0.5, 0, 0, 0.5, 0, 0)"/>
<path fill="none" stroke-width="1.000068" stroke-linecap="round" stroke-linejoin="round" stroke="rgb(48.235294%, 43.529412%, 39.215687%)" stroke-opacity="1" stroke-miterlimit="4" d="M 19.5 2.5 L 27.5 10.5 L 20.5 10.5 L 19.5 9.5 Z M 19.5 2.5 " transform="matrix(0.5, 0, 0, 0.5, 0, 0)"/>
<path fill-rule="nonzero" fill="rgb(48.235294%, 43.529412%, 39.215687%)" fill-opacity="1" d="M 4.125 5.03125 L 4.125 6.40625 L 3.4375 6.40625 L 3.4375 13.96875 L 13.0625 13.96875 L 13.0625 6.40625 L 12.375 6.40625 L 12.375 5.03125 Z M 4.8125 5.71875 L 11.6875 5.71875 L 11.6875 6.40625 L 4.8125 6.40625 Z M 4.125 7.09375 L 12.375 7.09375 L 12.375 13.28125 L 4.125 13.28125 Z M 6.875 8.46875 L 6.875 11.90625 L 10.046875 10.207031 Z M 6.875 8.46875 "/>
</svg>
