<?xml version="1.0" encoding="UTF-8"?>
<svg xmlns="http://www.w3.org/2000/svg" xmlns:xlink="http://www.w3.org/1999/xlink" width="16" height="16" viewBox="0 0 16 16">
<path fill="none" stroke-width="1.000068" stroke-linecap="round" stroke-linejoin="round" stroke="rgb(48.235294%, 43.529412%, 39.215687%)" stroke-opacity="1" stroke-miterlimit="4" d="M 6.5 2.5 L 5.5 3.5 L 5.5 29.5 L 6.5 30.5 L 26.5 30.5 L 27.5 29.5 L 27.5 10.5 L 19.5 2.5 Z M 6.5 2.5 " transform="matrix(0.5, 0, 0, 0.5, 0, 0)"/>
<path fill="none" stroke-width="1.000068" stroke-linecap="round" stroke-linejoin="round" stroke="rgb(48.235294%, 43.529412%, 39.215687%)" stroke-opacity="1" stroke-miterlimit="4" d="M 19.5 2.5 L 27.5 10.5 L 20.5 10.5 L 19.5 9.5 Z M 19.5 2.5 " transform="matrix(0.5, 0, 0, 0.5, 0, 0)"/>
<path fill-rule="nonzero" fill="rgb(98.039216%, 28.627452%, 20.392157%)" fill-opacity="1" d="M 4.125 6.0625 L 4.125 12.9375 L 8.179688 12.9375 L 8.179688 12.25 L 4.8125 12.25 L 4.8125 12.207031 L 7.496094 9.90625 L 8.011719 10.425781 L 8.179688 10.605469 L 8.179688 9.648438 L 8.035156 9.5 L 6.949219 9.5 L 4.8125 11.324219 L 4.8125 7.222656 L 6.414062 8.824219 L 6.652344 8.113281 L 5.285156 6.75 L 7.105469 6.75 L 7.332031 6.0625 Z M 8.25 6.0625 L 8.25 6.75 L 11.214844 6.75 L 10.101562 7.863281 L 9.632812 9.28125 L 11.6875 7.222656 L 11.6875 11.324219 L 9.554688 9.503906 L 9.324219 10.1875 L 11.6875 12.210938 L 11.6875 12.253906 L 8.636719 12.253906 L 8.410156 12.941406 L 12.375 12.941406 L 12.375 6.066406 L 11.902344 6.066406 Z M 8.25 6.0625 "/>
</svg>
