<?xml version="1.0" encoding="UTF-8"?>
<svg xmlns="http://www.w3.org/2000/svg" xmlns:xlink="http://www.w3.org/1999/xlink" width="16" height="16" viewBox="0 0 16 16">
<path fill="none" stroke-width="1.000068" stroke-linecap="round" stroke-linejoin="round" stroke="rgb(48.235294%, 43.529412%, 39.215687%)" stroke-opacity="1" stroke-miterlimit="4" d="M 6.5 2.5 L 5.5 3.5 L 5.5 29.5 L 6.5 30.5 L 26.5 30.5 L 27.5 29.5 L 27.5 10.5 L 19.5 2.5 Z M 6.5 2.5 " transform="matrix(0.5, 0, 0, 0.5, 0, 0)"/>
<path fill="none" stroke-width="1.000068" stroke-linecap="round" stroke-linejoin="round" stroke="rgb(48.235294%, 43.529412%, 39.215687%)" stroke-opacity="1" stroke-miterlimit="4" d="M 19.5 2.5 L 27.5 10.5 L 20.5 10.5 L 19.5 9.5 Z M 19.5 2.5 " transform="matrix(0.5, 0, 0, 0.5, 0, 0)"/>
<path fill-rule="nonzero" fill="rgb(48.235294%, 43.529412%, 39.215687%)" fill-opacity="1" d="M 4.8125 5.375 L 4.8125 7.4375 L 3.4375 7.4375 L 3.4375 12.59375 C 3.4375 13.164062 3.898438 13.625 4.46875 13.625 L 13.0625 13.625 L 13.0625 5.375 Z M 5.5 6.0625 L 12.375 6.0625 L 12.375 12.9375 L 5.5 12.9375 Z M 6.1875 6.75 L 6.1875 7.4375 L 11.6875 7.4375 L 11.6875 6.75 Z M 4.125 8.125 L 4.8125 8.125 L 4.8125 12.9375 L 4.46875 12.9375 C 4.378906 12.9375 4.289062 12.902344 4.226562 12.835938 C 4.160156 12.773438 4.125 12.683594 4.125 12.59375 Z M 6.1875 8.125 L 6.1875 10.875 L 8.9375 10.875 L 8.9375 8.125 Z M 9.625 8.125 L 9.625 8.8125 L 11.6875 8.8125 L 11.6875 8.125 Z M 9.625 10.1875 L 9.625 10.875 L 11.6875 10.875 L 11.6875 10.1875 Z M 6.1875 11.5625 L 6.1875 12.25 L 11.6875 12.25 L 11.6875 11.5625 Z M 6.1875 11.5625 "/>
</svg>
