<?xml version="1.0" encoding="UTF-8"?>
<svg xmlns="http://www.w3.org/2000/svg" xmlns:xlink="http://www.w3.org/1999/xlink" width="16" height="16" viewBox="0 0 16 16">
<path fill="none" stroke-width="1.000068" stroke-linecap="round" stroke-linejoin="round" stroke="rgb(48.235294%, 43.529412%, 39.215687%)" stroke-opacity="1" stroke-miterlimit="4" d="M 6.5 2.5 L 5.5 3.5 L 5.5 29.5 L 6.5 30.5 L 26.5 30.5 L 27.5 29.5 L 27.5 10.5 L 19.5 2.5 Z M 6.5 2.5 " transform="matrix(0.5, 0, 0, 0.5, 0, 0)"/>
<path fill="none" stroke-width="1.000068" stroke-linecap="round" stroke-linejoin="round" stroke="rgb(48.235294%, 43.529412%, 39.215687%)" stroke-opacity="1" stroke-miterlimit="4" d="M 19.5 2.5 L 27.5 10.5 L 20.5 10.5 L 19.5 9.5 Z M 19.5 2.5 " transform="matrix(0.5, 0, 0, 0.5, 0, 0)"/>
<path fill-rule="nonzero" fill="rgb(2.352941%, 40.000001%, 47.058824%)" fill-opacity="1" d="M 4.125 6.0625 L 4.125 7.585938 C 4.488281 7.589844 5.136719 7.585938 5.5 7.585938 L 5.5 11.40625 L 4.125 11.40625 L 4.125 12.925781 C 5.574219 12.933594 6.789062 12.933594 8.25 12.933594 L 8.25 11.40625 L 6.875 11.40625 L 6.875 10.234375 L 8.585938 10.25 C 8.699219 10.25 9.1875 10.285156 9.34375 11 C 9.390625 11.21875 9.5 11.933594 9.574219 12.164062 C 9.648438 12.421875 9.945312 12.933594 10.261719 12.933594 C 10.941406 12.929688 11.738281 12.9375 12.371094 12.9375 L 12.371094 11.113281 C 12.28125 11.175781 12.175781 11.214844 12.066406 11.226562 C 11.820312 11.257812 11.542969 11.105469 11.507812 10.929688 C 11.363281 9.988281 11.117188 9.785156 10.734375 9.441406 C 11.210938 9.09375 11.710938 8.578125 11.710938 7.894531 C 11.710938 7.15625 11.265625 6.6875 10.960938 6.460938 C 10.535156 6.140625 10.066406 6.066406 9.941406 6.066406 C 7.996094 6.078125 6.042969 6.066406 4.121094 6.066406 Z M 6.875 7.585938 L 8.9375 7.585938 C 9.023438 7.585938 9.625 7.796875 9.625 8.226562 C 9.625 8.585938 9.160156 8.777344 8.84375 8.777344 L 6.875 8.765625 Z M 6.875 7.585938 "/>
</svg>
