<?xml version="1.0" encoding="UTF-8"?>
<svg xmlns="http://www.w3.org/2000/svg" xmlns:xlink="http://www.w3.org/1999/xlink" width="16" height="16" viewBox="0 0 16 16">
<path fill="none" stroke-width="1.000068" stroke-linecap="round" stroke-linejoin="round" stroke="rgb(48.235294%, 43.529412%, 39.215687%)" stroke-opacity="1" stroke-miterlimit="4" d="M 6.5 2.5 L 5.5 3.5 L 5.5 29.5 L 6.5 30.5 L 26.5 30.5 L 27.5 29.5 L 27.5 10.5 L 19.5 2.5 Z M 6.5 2.5 " transform="matrix(0.5, 0, 0, 0.5, 0, 0)"/>
<path fill="none" stroke-width="1.000068" stroke-linecap="round" stroke-linejoin="round" stroke="rgb(48.235294%, 43.529412%, 39.215687%)" stroke-opacity="1" stroke-miterlimit="4" d="M 19.5 2.5 L 27.5 10.5 L 20.5 10.5 L 19.5 9.5 Z M 19.5 2.5 " transform="matrix(0.5, 0, 0, 0.5, 0, 0)"/>
<path fill-rule="nonzero" fill="rgb(97.647059%, 74.117649%, 18.039216%)" fill-opacity="1" d="M 7.21875 5.375 C 6.761719 5.375 6.324219 5.554688 6.003906 5.878906 C 5.679688 6.199219 5.5 6.636719 5.5 7.09375 C 5.5 7.550781 5.679688 7.988281 6.003906 8.3125 C 6.324219 8.632812 6.761719 8.8125 7.21875 8.8125 C 7.675781 8.8125 8.113281 8.632812 8.4375 8.308594 C 8.757812 7.988281 8.9375 7.550781 8.9375 7.09375 C 8.9375 6.636719 8.757812 6.199219 8.433594 5.875 C 8.113281 5.554688 7.675781 5.375 7.21875 5.375 M 7.21875 6.0625 C 7.789062 6.0625 8.25 6.523438 8.25 7.09375 C 8.25 7.367188 8.140625 7.628906 7.949219 7.824219 C 7.753906 8.019531 7.492188 8.125 7.21875 8.125 C 6.945312 8.125 6.683594 8.015625 6.488281 7.824219 C 6.292969 7.628906 6.1875 7.367188 6.1875 7.09375 C 6.1875 6.523438 6.648438 6.0625 7.21875 6.0625 M 11 6.75 C 10.636719 6.75 10.285156 6.894531 10.027344 7.152344 C 9.769531 7.410156 9.625 7.761719 9.625 8.125 C 9.625 8.488281 9.769531 8.839844 10.027344 9.097656 C 10.285156 9.355469 10.636719 9.5 11 9.5 C 11.363281 9.5 11.714844 9.355469 11.972656 9.097656 C 12.230469 8.839844 12.375 8.488281 12.375 8.125 C 12.375 7.761719 12.230469 7.410156 11.972656 7.152344 C 11.714844 6.894531 11.363281 6.75 11 6.75 M 11 7.4375 C 11.382812 7.4375 11.6875 7.742188 11.6875 8.125 C 11.6875 8.507812 11.382812 8.8125 11 8.8125 C 10.816406 8.8125 10.640625 8.742188 10.511719 8.613281 C 10.382812 8.484375 10.3125 8.308594 10.3125 8.125 C 10.3125 7.742188 10.617188 7.4375 11 7.4375 M 7.21875 9.5 C 6.398438 9.5 5.609375 9.824219 5.03125 10.40625 C 4.449219 10.984375 4.125 11.773438 4.125 12.59375 L 4.125 13.625 L 10.3125 13.625 L 10.3125 12.59375 C 10.3125 11.773438 9.988281 10.984375 9.40625 10.40625 C 8.828125 9.824219 8.039062 9.5 7.21875 9.5 M 7.21875 10.1875 C 7.855469 10.1875 8.46875 10.4375 8.921875 10.890625 C 9.375 11.34375 9.625 11.957031 9.625 12.59375 L 9.625 12.9375 L 4.8125 12.9375 L 4.8125 12.59375 C 4.8125 11.953125 5.0625 11.34375 5.515625 10.890625 C 5.96875 10.4375 6.582031 10.1875 7.21875 10.1875 M 11 10.1875 C 10.632812 10.1875 10.273438 10.289062 9.960938 10.476562 C 10.128906 10.636719 10.28125 10.816406 10.410156 11.011719 C 10.835938 10.808594 11.335938 10.835938 11.734375 11.089844 C 12.132812 11.339844 12.375 11.777344 12.375 12.25 L 10.929688 12.25 C 10.976562 12.472656 11 12.699219 11 12.9375 L 13.0625 12.9375 L 13.0625 12.25 C 13.0625 11.703125 12.847656 11.175781 12.460938 10.789062 C 12.074219 10.402344 11.546875 10.1875 11 10.1875 "/>
</svg>
