<?xml version="1.0" encoding="UTF-8"?>
<svg xmlns="http://www.w3.org/2000/svg" xmlns:xlink="http://www.w3.org/1999/xlink" width="16" height="16" viewBox="0 0 16 16">
<path fill="none" stroke-width="1.000068" stroke-linecap="round" stroke-linejoin="round" stroke="rgb(48.235294%, 43.529412%, 39.215687%)" stroke-opacity="1" stroke-miterlimit="4" d="M 6.5 2.5 L 5.5 3.5 L 5.5 29.5 L 6.5 30.5 L 26.5 30.5 L 27.5 29.5 L 27.5 10.5 L 19.5 2.5 Z M 6.5 2.5 " transform="matrix(0.5, 0, 0, 0.5, 0, 0)"/>
<path fill="none" stroke-width="1.000068" stroke-linecap="round" stroke-linejoin="round" stroke="rgb(48.235294%, 43.529412%, 39.215687%)" stroke-opacity="1" stroke-miterlimit="4" d="M 19.5 2.5 L 27.5 10.5 L 20.5 10.5 L 19.5 9.5 Z M 19.5 2.5 " transform="matrix(0.5, 0, 0, 0.5, 0, 0)"/>
<path fill-rule="nonzero" fill="rgb(98.039216%, 28.627452%, 20.392157%)" fill-opacity="1" d="M 4.011719 5.421875 L 4.011719 13.671875 L 12.261719 13.671875 L 12.261719 5.421875 Z M 4.699219 6.109375 L 11.574219 6.109375 L 11.574219 12.984375 L 4.699219 12.984375 Z M 5.386719 7.484375 L 5.386719 8.859375 L 6.761719 8.859375 L 6.761719 7.484375 Z M 9.511719 7.484375 L 9.511719 8.859375 L 10.886719 8.859375 L 10.886719 7.484375 Z M 6.761719 10.234375 L 6.761719 10.921875 L 9.511719 10.921875 L 9.511719 10.234375 Z M 9.511719 10.921875 L 9.511719 11.609375 L 10.199219 11.609375 L 10.199219 10.921875 Z M 10.199219 11.609375 L 10.199219 12.296875 L 10.886719 12.296875 L 10.886719 11.609375 Z M 6.761719 10.921875 L 6.074219 10.921875 L 6.074219 11.609375 L 6.761719 11.609375 Z M 6.074219 11.609375 L 5.386719 11.609375 L 5.386719 12.296875 L 6.074219 12.296875 Z M 6.074219 11.609375 "/>
</svg>
