<?xml version="1.0" encoding="UTF-8"?>
<svg xmlns="http://www.w3.org/2000/svg" xmlns:xlink="http://www.w3.org/1999/xlink" width="16" height="16" viewBox="0 0 16 16">
<path fill="none" stroke-width="1.000068" stroke-linecap="round" stroke-linejoin="round" stroke="rgb(48.235294%, 43.529412%, 39.215687%)" stroke-opacity="1" stroke-miterlimit="4" d="M 6.5 2.5 L 5.5 3.5 L 5.5 29.5 L 6.5 30.5 L 26.5 30.5 L 27.5 29.5 L 27.5 10.5 L 19.5 2.5 Z M 6.5 2.5 " transform="matrix(0.5, 0, 0, 0.5, 0, 0)"/>
<path fill="none" stroke-width="1.000068" stroke-linecap="round" stroke-linejoin="round" stroke="rgb(48.235294%, 43.529412%, 39.215687%)" stroke-opacity="1" stroke-miterlimit="4" d="M 19.5 2.5 L 27.5 10.5 L 20.5 10.5 L 19.5 9.5 Z M 19.5 2.5 " transform="matrix(0.5, 0, 0, 0.5, 0, 0)"/>
<path fill-rule="evenodd" fill="rgb(28.235295%, 72.549021%, 78.039217%)" fill-opacity="1" d="M 8.25 5.375 C 5.972656 5.375 4.125 7.222656 4.125 9.5 C 4.125 11.777344 5.972656 13.625 8.25 13.625 C 9.34375 13.625 10.390625 13.1875 11.164062 12.414062 L 10.679688 11.929688 C 9.695312 12.914062 8.21875 13.207031 6.933594 12.675781 C 5.648438 12.144531 4.8125 10.890625 4.8125 9.5 C 3.714844 8.398438 3.492188 6.699219 4.269531 5.355469 C 5.046875 4.007812 6.632812 3.351562 8.132812 3.753906 C 9.632812 4.15625 10.679688 5.515625 10.679688 7.070312 L 11.164062 6.585938 C 10.394531 5.8125 9.34375 5.375 8.25 5.375 Z M 8.25 5.375 "/>
</svg>
