<?xml version="1.0" encoding="UTF-8"?>
<svg xmlns="http://www.w3.org/2000/svg" xmlns:xlink="http://www.w3.org/1999/xlink" width="16" height="16" viewBox="0 0 16 16">
<path fill="none" stroke-width="1.000068" stroke-linecap="round" stroke-linejoin="round" stroke="rgb(48.235294%, 43.529412%, 39.215687%)" stroke-opacity="1" stroke-miterlimit="4" d="M 6.5 2.5 L 5.5 3.5 L 5.5 29.5 L 6.5 30.5 L 26.5 30.5 L 27.5 29.5 L 27.5 10.5 L 19.5 2.5 Z M 6.5 2.5 " transform="matrix(0.5, 0, 0, 0.5, 0, 0)"/>
<path fill="none" stroke-width="1.000068" stroke-linecap="round" stroke-linejoin="round" stroke="rgb(48.235294%, 43.529412%, 39.215687%)" stroke-opacity="1" stroke-miterlimit="4" d="M 19.5 2.5 L 27.5 10.5 L 20.5 10.5 L 19.5 9.5 Z M 19.5 2.5 " transform="matrix(0.5, 0, 0, 0.5, 0, 0)"/>
<path fill-rule="nonzero" fill="rgb(48.235294%, 43.529412%, 39.215687%)" fill-opacity="1" d="M 4.125 5.375 L 4.125 13.625 L 8.9375 13.625 L 8.9375 12.9375 L 6.875 12.9375 L 6.875 10.875 L 8.9375 10.875 L 8.9375 10.1875 L 6.875 10.1875 L 6.875 8.125 L 9.625 8.125 L 9.625 9.5 L 10.3125 9.5 L 10.3125 8.125 L 11.6875 8.125 L 11.6875 9.5 L 12.375 9.5 L 12.375 5.375 Z M 4.8125 6.0625 L 11.6875 6.0625 L 11.6875 7.4375 L 4.8125 7.4375 Z M 4.8125 8.125 L 6.1875 8.125 L 6.1875 10.1875 L 4.8125 10.1875 Z M 10.65625 10.1875 C 10.085938 10.1875 9.625 10.628906 9.625 11.171875 C 9.625 11.695312 10.050781 12.117188 10.59375 12.148438 C 10.636719 12.328125 10.65625 12.511719 10.65625 12.695312 C 10.65625 13.011719 10.59375 13.328125 10.476562 13.625 C 11.234375 13.121094 11.683594 12.296875 11.6875 11.414062 L 11.6875 11.171875 C 11.6875 10.628906 11.226562 10.1875 10.65625 10.1875 M 4.8125 10.875 L 6.1875 10.875 L 6.1875 12.9375 L 4.8125 12.9375 Z M 4.8125 10.875 "/>
</svg>
