<?xml version="1.0" encoding="UTF-8"?>
<svg xmlns="http://www.w3.org/2000/svg" xmlns:xlink="http://www.w3.org/1999/xlink" width="16" height="16" viewBox="0 0 16 16">
<path fill="none" stroke-width="1.000068" stroke-linecap="round" stroke-linejoin="round" stroke="rgb(48.235294%, 43.529412%, 39.215687%)" stroke-opacity="1" stroke-miterlimit="4" d="M 6.5 2.5 L 5.5 3.5 L 5.5 29.5 L 6.5 30.5 L 26.5 30.5 L 27.5 29.5 L 27.5 10.5 L 19.5 2.5 Z M 6.5 2.5 " transform="matrix(0.5, 0, 0, 0.5, 0, 0)"/>
<path fill="none" stroke-width="1.000068" stroke-linecap="round" stroke-linejoin="round" stroke="rgb(48.235294%, 43.529412%, 39.215687%)" stroke-opacity="1" stroke-miterlimit="4" d="M 19.5 2.5 L 27.5 10.5 L 20.5 10.5 L 19.5 9.5 Z M 19.5 2.5 " transform="matrix(0.5, 0, 0, 0.5, 0, 0)"/>
<path fill-rule="nonzero" fill="rgb(99.215686%, 50.196081%, 9.803922%)" fill-opacity="1" d="M 4.125 5.375 L 4.125 6.75 C 7.921875 6.75 11 9.828125 11 13.625 L 12.375 13.625 L 12.375 13.582031 C 12.375 13.316406 12.359375 13.050781 12.332031 12.785156 C 12.328125 12.773438 12.335938 12.757812 12.332031 12.742188 C 12.300781 12.484375 12.257812 12.226562 12.203125 11.96875 C 12.199219 11.957031 12.203125 11.941406 12.203125 11.925781 C 12.042969 11.144531 11.765625 10.394531 11.386719 9.695312 C 11.382812 9.6875 11.386719 9.675781 11.386719 9.671875 C 10.359375 7.78125 8.628906 6.367188 6.574219 5.738281 C 6.324219 5.664062 6.074219 5.597656 5.820312 5.546875 C 5.804688 5.542969 5.789062 5.550781 5.777344 5.546875 C 5.523438 5.492188 5.265625 5.449219 5.003906 5.414062 C 4.988281 5.414062 4.972656 5.417969 4.960938 5.414062 C 4.695312 5.390625 4.429688 5.375 4.164062 5.371094 L 4.121094 5.371094 M 4.121094 8.121094 L 4.121094 9.496094 C 6.402344 9.5 8.246094 11.34375 8.246094 13.621094 L 9.621094 13.621094 C 9.621094 10.585938 7.160156 8.121094 4.121094 8.121094 M 5.496094 10.871094 C 4.738281 10.871094 4.121094 11.488281 4.121094 12.246094 C 4.121094 13.007812 4.738281 13.621094 5.496094 13.621094 C 6.257812 13.621094 6.871094 13.007812 6.871094 12.246094 C 6.871094 11.488281 6.257812 10.871094 5.496094 10.871094 "/>
</svg>
