<?xml version="1.0" encoding="UTF-8"?>
<svg xmlns="http://www.w3.org/2000/svg" xmlns:xlink="http://www.w3.org/1999/xlink" width="16" height="16" viewBox="0 0 16 16">
<path fill="none" stroke-width="1.000068" stroke-linecap="round" stroke-linejoin="round" stroke="rgb(48.235294%, 43.529412%, 39.215687%)" stroke-opacity="1" stroke-miterlimit="4" d="M 6.5 2.5 L 5.5 3.5 L 5.5 29.5 L 6.5 30.5 L 26.5 30.5 L 27.5 29.5 L 27.5 10.5 L 19.5 2.5 Z M 6.5 2.5 " transform="matrix(0.5, 0, 0, 0.5, 0, 0)"/>
<path fill="none" stroke-width="1.000068" stroke-linecap="round" stroke-linejoin="round" stroke="rgb(48.235294%, 43.529412%, 39.215687%)" stroke-opacity="1" stroke-miterlimit="4" d="M 19.5 2.5 L 27.5 10.5 L 20.5 10.5 L 19.5 9.5 Z M 19.5 2.5 " transform="matrix(0.5, 0, 0, 0.5, 0, 0)"/>
<path fill-rule="nonzero" fill="rgb(48.235294%, 43.529412%, 39.215687%)" fill-opacity="1" d="M 8.25 5.375 C 5.972656 5.375 4.125 7.222656 4.125 9.5 C 4.125 11.777344 5.972656 13.625 8.25 13.625 C 10.527344 13.625 12.375 11.777344 12.375 9.5 C 12.375 7.222656 10.527344 5.375 8.25 5.375 M 8.25 6.0625 C 10.148438 6.0625 11.6875 7.601562 11.6875 9.5 C 11.6875 11.398438 10.148438 12.9375 8.25 12.9375 C 6.351562 12.9375 4.8125 11.398438 4.8125 9.5 C 4.8125 7.601562 6.351562 6.0625 8.25 6.0625 M 8.25 7.4375 C 7.128906 7.460938 6.230469 8.378906 6.230469 9.5 C 6.230469 10.621094 7.128906 11.539062 8.25 11.5625 C 8.898438 11.5625 9.507812 11.253906 9.898438 10.738281 L 9.347656 10.324219 C 9.089844 10.671875 8.683594 10.875 8.25 10.875 C 7.492188 10.875 6.875 10.257812 6.875 9.5 C 6.875 8.742188 7.492188 8.125 8.25 8.125 C 8.683594 8.125 9.089844 8.328125 9.351562 8.675781 L 9.898438 8.261719 C 9.507812 7.746094 8.898438 7.4375 8.25 7.4375 "/>
</svg>
