<?xml version="1.0" encoding="UTF-8"?>
<svg xmlns="http://www.w3.org/2000/svg" xmlns:xlink="http://www.w3.org/1999/xlink" width="16" height="16" viewBox="0 0 16 16">
<path fill="none" stroke-width="1.000068" stroke-linecap="round" stroke-linejoin="round" stroke="rgb(48.235294%, 43.529412%, 39.215687%)" stroke-opacity="1" stroke-miterlimit="4" d="M 6.5 2.5 L 5.5 3.5 L 5.5 29.5 L 6.5 30.5 L 26.5 30.5 L 27.5 29.5 L 27.5 10.5 L 19.5 2.5 Z M 6.5 2.5 " transform="matrix(0.5, 0, 0, 0.5, 0, 0)"/>
<path fill="none" stroke-width="1.000068" stroke-linecap="round" stroke-linejoin="round" stroke="rgb(48.235294%, 43.529412%, 39.215687%)" stroke-opacity="1" stroke-miterlimit="4" d="M 19.5 2.5 L 27.5 10.5 L 20.5 10.5 L 19.5 9.5 Z M 19.5 2.5 " transform="matrix(0.5, 0, 0, 0.5, 0, 0)"/>
<path fill-rule="nonzero" fill="rgb(56.078434%, 24.705882%, 44.313726%)" fill-opacity="1" d="M 4.125 5.375 L 4.125 6.0625 L 12.375 6.0625 L 12.375 5.375 Z M 7.058594 6.75 L 7.074219 7.085938 L 9.429688 10.1875 L 6.875 13.242188 L 6.875 13.625 L 12.375 13.625 L 12.375 11.714844 L 11.984375 11.714844 C 11.984375 12.097656 12.085938 12.335938 11.75 12.5625 C 11.382812 12.816406 10.898438 12.863281 10.472656 12.863281 L 8.449219 12.863281 L 10.414062 10.1875 L 8.449219 7.132812 L 9.601562 7.132812 C 10.421875 7.132812 11.585938 7.058594 11.910156 8.015625 C 11.96875 8.175781 11.96875 8.488281 11.984375 8.660156 L 12.375 8.660156 L 12.375 6.75 Z M 4.125 7.4375 L 4.125 8.125 L 6.875 8.125 L 6.875 7.4375 Z M 4.125 8.8125 L 4.125 9.5 L 7.5625 9.5 L 7.5625 8.8125 Z M 4.125 10.875 L 4.125 11.5625 L 7.5625 11.5625 L 7.5625 10.875 Z M 4.125 12.25 L 4.125 12.9375 L 6.875 12.9375 L 6.875 12.25 Z M 4.125 12.25 "/>
</svg>
