<?xml version="1.0" encoding="UTF-8"?>
<svg xmlns="http://www.w3.org/2000/svg" xmlns:xlink="http://www.w3.org/1999/xlink" width="16" height="16" viewBox="0 0 16 16">
<path fill="none" stroke-width="1.000068" stroke-linecap="round" stroke-linejoin="round" stroke="rgb(48.235294%, 43.529412%, 39.215687%)" stroke-opacity="1" stroke-miterlimit="4" d="M 6.5 2.5 L 5.5 3.5 L 5.5 29.5 L 6.5 30.5 L 26.5 30.5 L 27.5 29.5 L 27.5 10.5 L 19.5 2.5 Z M 6.5 2.5 " transform="matrix(0.5, 0, 0, 0.5, 0, 0)"/>
<path fill="none" stroke-width="1.000068" stroke-linecap="round" stroke-linejoin="round" stroke="rgb(48.235294%, 43.529412%, 39.215687%)" stroke-opacity="1" stroke-miterlimit="4" d="M 19.5 2.5 L 27.5 10.5 L 20.5 10.5 L 19.5 9.5 Z M 19.5 2.5 " transform="matrix(0.5, 0, 0, 0.5, 0, 0)"/>
<path fill-rule="nonzero" fill="rgb(28.235295%, 72.549021%, 78.039217%)" fill-opacity="1" d="M 6.1875 6.0625 L 6.1875 7.4375 L 7.5625 7.4375 L 7.5625 6.0625 Z M 8.25 6.0625 L 8.25 7.4375 L 9.625 7.4375 L 9.625 6.0625 Z M 4.8125 8.125 L 4.8125 9.5 L 6.1875 9.5 L 6.1875 8.125 Z M 6.875 8.125 L 6.875 9.5 L 8.25 9.5 L 8.25 8.125 Z M 8.9375 8.125 L 8.9375 9.5 L 10.3125 9.5 L 10.3125 8.125 Z M 11.296875 8.285156 C 10.929688 8.535156 10.84375 8.988281 10.957031 9.417969 C 11.070312 9.84375 11.363281 10.152344 11.804688 10.1875 C 11.953125 10.605469 12.347656 10.886719 12.789062 10.886719 C 13.234375 10.886719 13.628906 10.605469 13.773438 10.1875 C 13.625 9.769531 13.230469 9.492188 12.789062 9.488281 C 12.578125 9.492188 12.371094 9.558594 12.199219 9.675781 C 12.265625 9.476562 12.277344 9.261719 12.222656 9.054688 C 12.109375 8.628906 11.734375 8.320312 11.296875 8.285156 Z M 11.804688 10.1875 L 3.4375 10.1875 C 3.4375 12.496094 5.308594 13.675781 7.621094 13.675781 C 9.929688 13.675781 11.804688 12.496094 11.804688 10.1875 Z M 5.171875 10.652344 C 5.382812 10.644531 5.578125 10.753906 5.683594 10.933594 C 5.789062 11.113281 5.789062 11.335938 5.683594 11.519531 C 5.578125 11.699219 5.382812 11.804688 5.171875 11.800781 C 4.863281 11.789062 4.617188 11.535156 4.613281 11.226562 C 4.613281 10.917969 4.863281 10.660156 5.171875 10.652344 Z M 5.171875 10.652344 "/>
</svg>
