<?xml version="1.0" encoding="UTF-8"?>
<svg xmlns="http://www.w3.org/2000/svg" xmlns:xlink="http://www.w3.org/1999/xlink" width="16" height="16" viewBox="0 0 16 16">
<path fill="none" stroke-width="1.000068" stroke-linecap="round" stroke-linejoin="round" stroke="rgb(48.235294%, 43.529412%, 39.215687%)" stroke-opacity="1" stroke-miterlimit="4" d="M 6.5 2.5 L 5.5 3.5 L 5.5 29.5 L 6.5 30.5 L 26.5 30.5 L 27.5 29.5 L 27.5 10.5 L 19.5 2.5 Z M 6.5 2.5 " transform="matrix(0.5, 0, 0, 0.5, 0, 0)"/>
<path fill="none" stroke-width="1.000068" stroke-linecap="round" stroke-linejoin="round" stroke="rgb(48.235294%, 43.529412%, 39.215687%)" stroke-opacity="1" stroke-miterlimit="4" d="M 19.5 2.5 L 27.5 10.5 L 20.5 10.5 L 19.5 9.5 Z M 19.5 2.5 " transform="matrix(0.5, 0, 0, 0.5, 0, 0)"/>
<path fill-rule="nonzero" fill="rgb(2.352941%, 40.000001%, 47.058824%)" fill-opacity="1" d="M 11.34375 5.375 C 11.070312 5.375 10.808594 5.484375 10.613281 5.675781 C 10.421875 5.871094 10.3125 6.132812 10.3125 6.40625 C 10.3125 6.679688 10.421875 6.941406 10.613281 7.136719 C 10.808594 7.328125 11.070312 7.4375 11.34375 7.4375 C 11.617188 7.4375 11.878906 7.328125 12.074219 7.136719 C 12.265625 6.941406 12.375 6.679688 12.375 6.40625 C 12.375 6.132812 12.265625 5.871094 12.074219 5.675781 C 11.878906 5.484375 11.617188 5.375 11.34375 5.375 M 7.90625 6.0625 C 5.847656 6.101562 4.199219 7.785156 4.199219 9.84375 C 4.199219 11.902344 5.847656 13.585938 7.90625 13.625 C 9.996094 13.625 11.6875 11.933594 11.6875 9.84375 C 11.6875 8.957031 11.375 8.101562 10.804688 7.421875 C 11.058594 7.847656 11.066406 8.375 10.820312 8.804688 C 10.578125 9.234375 10.121094 9.5 9.625 9.5 C 9.042969 9.5 8.519531 9.132812 8.328125 8.582031 C 8.132812 8.03125 8.308594 7.417969 8.761719 7.054688 C 9.21875 6.6875 9.855469 6.648438 10.351562 6.960938 C 9.667969 6.378906 8.800781 6.0625 7.90625 6.0625 "/>
</svg>
