<?xml version="1.0" encoding="UTF-8"?>
<svg xmlns="http://www.w3.org/2000/svg" xmlns:xlink="http://www.w3.org/1999/xlink" width="16" height="16" viewBox="0 0 16 16">
<path fill="none" stroke-width="1.000068" stroke-linecap="round" stroke-linejoin="round" stroke="rgb(48.235294%, 43.529412%, 39.215687%)" stroke-opacity="1" stroke-miterlimit="4" d="M 6.5 2.5 L 5.5 3.5 L 5.5 29.5 L 6.5 30.5 L 26.5 30.5 L 27.5 29.5 L 27.5 10.5 L 19.5 2.5 Z M 6.5 2.5 " transform="matrix(0.5, 0, 0, 0.5, 0, 0)"/>
<path fill="none" stroke-width="1.000068" stroke-linecap="round" stroke-linejoin="round" stroke="rgb(48.235294%, 43.529412%, 39.215687%)" stroke-opacity="1" stroke-miterlimit="4" d="M 19.5 2.5 L 27.5 10.5 L 20.5 10.5 L 19.5 9.5 Z M 19.5 2.5 " transform="matrix(0.5, 0, 0, 0.5, 0, 0)"/>
<path fill-rule="nonzero" fill="rgb(56.078434%, 24.705882%, 44.313726%)" fill-opacity="1" d="M 6.1875 5.375 L 6.1875 13.625 L 6.875 13.625 L 6.875 11.21875 C 6.875 10.761719 7.054688 10.324219 7.378906 10 C 7.699219 9.679688 8.136719 9.5 8.59375 9.5 C 9.050781 9.5 9.488281 9.679688 9.8125 10.003906 C 10.132812 10.324219 10.3125 10.761719 10.3125 11.21875 L 10.3125 13.625 L 11 13.625 L 11 11.21875 C 11 10.578125 10.75 9.96875 10.296875 9.515625 C 9.84375 9.0625 9.230469 8.8125 8.59375 8.8125 C 7.945312 8.8125 7.324219 9.074219 6.875 9.539062 L 6.875 5.375 Z M 6.1875 5.375 "/>
</svg>
