<?xml version="1.0" encoding="UTF-8"?>
<svg xmlns="http://www.w3.org/2000/svg" xmlns:xlink="http://www.w3.org/1999/xlink" width="16" height="16" viewBox="0 0 16 16">
<path fill="none" stroke-width="1.000068" stroke-linecap="round" stroke-linejoin="round" stroke="rgb(48.235294%, 43.529412%, 39.215687%)" stroke-opacity="1" stroke-miterlimit="4" d="M 6.5 2.5 L 5.5 3.5 L 5.5 29.5 L 6.5 30.5 L 26.5 30.5 L 27.5 29.5 L 27.5 10.5 L 19.5 2.5 Z M 6.5 2.5 " transform="matrix(0.5, 0, 0, 0.5, 0, 0)"/>
<path fill="none" stroke-width="1.000068" stroke-linecap="round" stroke-linejoin="round" stroke="rgb(48.235294%, 43.529412%, 39.215687%)" stroke-opacity="1" stroke-miterlimit="4" d="M 19.5 2.5 L 27.5 10.5 L 20.5 10.5 L 19.5 9.5 Z M 19.5 2.5 " transform="matrix(0.5, 0, 0, 0.5, 0, 0)"/>
<path fill-rule="nonzero" fill="rgb(62.7451%, 29.019609%, 45.09804%)" fill-opacity="1" d="M 4.125 5.375 L 4.125 13.625 L 4.8125 13.625 L 4.8125 11.21875 C 4.8125 10.761719 4.992188 10.324219 5.316406 10 C 5.636719 9.679688 6.074219 9.5 6.53125 9.5 C 6.988281 9.5 7.425781 9.679688 7.75 10.003906 C 8.070312 10.324219 8.25 10.761719 8.25 11.21875 L 8.25 13.625 L 8.9375 13.625 L 8.9375 11.21875 C 8.9375 10.578125 8.6875 9.96875 8.234375 9.515625 C 7.78125 9.0625 7.167969 8.8125 6.53125 8.8125 C 5.882812 8.8125 5.261719 9.074219 4.8125 9.539062 L 4.8125 5.375 Z M 8.25 5.375 L 8.25 6.0625 L 7.5625 6.0625 L 7.5625 6.75 L 8.25 6.75 L 8.25 7.4375 L 8.9375 7.4375 L 8.9375 6.75 L 9.625 6.75 L 9.625 6.0625 L 8.9375 6.0625 L 8.9375 5.375 Z M 11 5.375 L 11 6.0625 L 10.3125 6.0625 L 10.3125 6.75 L 11 6.75 L 11 7.4375 L 11.6875 7.4375 L 11.6875 6.75 L 12.375 6.75 L 12.375 6.0625 L 11.6875 6.0625 L 11.6875 5.375 Z M 11 5.375 "/>
</svg>
