<?xml version="1.0" encoding="UTF-8"?>
<svg xmlns="http://www.w3.org/2000/svg" xmlns:xlink="http://www.w3.org/1999/xlink" width="16" height="16" viewBox="0 0 16 16">
<path fill="none" stroke-width="1.000068" stroke-linecap="round" stroke-linejoin="round" stroke="rgb(48.235294%, 43.529412%, 39.215687%)" stroke-opacity="1" stroke-miterlimit="4" d="M 6.5 2.5 L 5.5 3.5 L 5.5 29.5 L 6.5 30.5 L 26.5 30.5 L 27.5 29.5 L 27.5 10.5 L 19.5 2.5 Z M 6.5 2.5 " transform="matrix(0.5, 0, 0, 0.5, 0, 0)"/>
<path fill="none" stroke-width="1.000068" stroke-linecap="round" stroke-linejoin="round" stroke="rgb(48.235294%, 43.529412%, 39.215687%)" stroke-opacity="1" stroke-miterlimit="4" d="M 19.5 2.5 L 27.5 10.5 L 20.5 10.5 L 19.5 9.5 Z M 19.5 2.5 " transform="matrix(0.5, 0, 0, 0.5, 0, 0)"/>
<path fill-rule="nonzero" fill="rgb(48.235294%, 43.529412%, 39.215687%)" fill-opacity="1" d="M 9.34375 8.152344 C 9.355469 8.074219 9.363281 7.988281 9.363281 7.90625 C 9.363281 7.824219 9.355469 7.738281 9.34375 7.65625 L 9.878906 7.238281 C 9.929688 7.203125 9.941406 7.132812 9.910156 7.078125 L 9.40625 6.203125 C 9.375 6.148438 9.308594 6.125 9.25 6.148438 L 8.617188 6.402344 C 8.488281 6.300781 8.34375 6.21875 8.191406 6.15625 L 8.097656 5.484375 C 8.085938 5.421875 8.03125 5.378906 7.96875 5.378906 L 6.960938 5.378906 C 6.898438 5.378906 6.84375 5.421875 6.835938 5.484375 L 6.738281 6.15625 C 6.585938 6.21875 6.445312 6.300781 6.3125 6.402344 L 5.679688 6.148438 C 5.625 6.125 5.558594 6.148438 5.527344 6.203125 L 5.023438 7.078125 C 4.992188 7.132812 5.003906 7.199219 5.050781 7.238281 L 5.585938 7.65625 C 5.574219 7.738281 5.570312 7.824219 5.570312 7.90625 C 5.570312 7.988281 5.574219 8.074219 5.585938 8.152344 L 5.050781 8.570312 C 5.003906 8.609375 4.992188 8.679688 5.023438 8.734375 L 5.527344 9.609375 C 5.558594 9.660156 5.625 9.683594 5.679688 9.660156 L 6.3125 9.40625 C 6.441406 9.507812 6.585938 9.59375 6.738281 9.65625 L 6.835938 10.328125 C 6.84375 10.386719 6.898438 10.433594 6.960938 10.433594 L 7.96875 10.433594 C 8.03125 10.433594 8.085938 10.386719 8.09375 10.328125 L 8.191406 9.660156 C 8.34375 9.59375 8.488281 9.511719 8.617188 9.410156 L 9.246094 9.660156 C 9.304688 9.683594 9.371094 9.660156 9.402344 9.609375 L 9.90625 8.734375 C 9.9375 8.679688 9.925781 8.609375 9.878906 8.570312 Z M 7.46875 8.789062 C 6.976562 8.789062 6.582031 8.394531 6.582031 7.90625 C 6.582031 7.417969 6.976562 7.023438 7.46875 7.023438 C 7.957031 7.023438 8.351562 7.417969 8.351562 7.90625 C 8.351562 8.394531 7.957031 8.789062 7.46875 8.789062 M 10.789062 12.621094 C 10.824219 12.574219 10.859375 12.523438 10.886719 12.46875 C 10.917969 12.414062 10.941406 12.359375 10.964844 12.304688 L 11.453125 12.222656 C 11.5 12.214844 11.53125 12.175781 11.53125 12.132812 L 11.511719 11.390625 C 11.511719 11.34375 11.476562 11.308594 11.433594 11.300781 L 10.941406 11.242188 C 10.890625 11.132812 10.828125 11.027344 10.753906 10.933594 L 10.925781 10.46875 C 10.941406 10.425781 10.921875 10.378906 10.882812 10.355469 L 10.234375 10.003906 C 10.191406 9.980469 10.140625 9.988281 10.113281 10.027344 L 9.820312 10.425781 C 9.699219 10.410156 9.578125 10.414062 9.457031 10.433594 L 9.140625 10.050781 C 9.113281 10.015625 9.0625 10.007812 9.023438 10.027344 L 8.390625 10.414062 C 8.351562 10.4375 8.335938 10.488281 8.355469 10.53125 L 8.550781 10.984375 C 8.515625 11.035156 8.480469 11.085938 8.453125 11.136719 C 8.425781 11.195312 8.402344 11.25 8.378906 11.300781 L 7.886719 11.386719 C 7.84375 11.390625 7.8125 11.433594 7.8125 11.476562 L 7.828125 12.21875 C 7.828125 12.265625 7.863281 12.300781 7.910156 12.308594 L 8.402344 12.363281 C 8.449219 12.476562 8.511719 12.578125 8.589844 12.675781 L 8.414062 13.140625 C 8.402344 13.183594 8.421875 13.230469 8.460938 13.253906 L 9.109375 13.605469 C 9.148438 13.628906 9.199219 13.617188 9.226562 13.585938 L 9.523438 13.183594 C 9.644531 13.199219 9.765625 13.195312 9.886719 13.175781 L 10.199219 13.558594 C 10.226562 13.59375 10.277344 13.601562 10.320312 13.578125 L 10.949219 13.191406 C 10.988281 13.167969 11.003906 13.121094 10.988281 13.078125 Z M 9.359375 12.371094 C 9.046875 12.199219 8.929688 11.804688 9.101562 11.492188 C 9.273438 11.179688 9.667969 11.0625 9.984375 11.234375 C 10.296875 11.40625 10.414062 11.800781 10.238281 12.117188 C 10.066406 12.429688 9.671875 12.546875 9.359375 12.371094 "/>
</svg>
