<?xml version="1.0" encoding="UTF-8"?>
<svg xmlns="http://www.w3.org/2000/svg" xmlns:xlink="http://www.w3.org/1999/xlink" width="16" height="16" viewBox="0 0 16 16">
<path fill="none" stroke-width="1.000068" stroke-linecap="round" stroke-linejoin="round" stroke="rgb(48.235294%, 43.529412%, 39.215687%)" stroke-opacity="1" stroke-miterlimit="4" d="M 6.5 2.5 L 5.5 3.5 L 5.5 29.5 L 6.5 30.5 L 26.5 30.5 L 27.5 29.5 L 27.5 10.5 L 19.5 2.5 Z M 6.5 2.5 " transform="matrix(0.5, 0, 0, 0.5, 0, 0)"/>
<path fill="none" stroke-width="1.000068" stroke-linecap="round" stroke-linejoin="round" stroke="rgb(48.235294%, 43.529412%, 39.215687%)" stroke-opacity="1" stroke-miterlimit="4" d="M 19.5 2.5 L 27.5 10.5 L 20.5 10.5 L 19.5 9.5 Z M 19.5 2.5 " transform="matrix(0.5, 0, 0, 0.5, 0, 0)"/>
<path fill-rule="nonzero" fill="rgb(97.647059%, 74.117649%, 18.039216%)" fill-opacity="1" d="M 7.390625 5.375 C 6.570312 5.660156 6.015625 6.4375 6.015625 7.308594 L 6.015625 7.574219 C 6.015625 8.0625 5.753906 8.511719 5.328125 8.757812 L 5.328125 10.246094 C 5.753906 10.488281 6.015625 10.9375 6.015625 11.425781 L 6.015625 11.691406 C 6.019531 12.5625 6.570312 13.339844 7.390625 13.625 L 7.390625 12.875 C 6.96875 12.632812 6.707031 12.179688 6.703125 11.691406 L 6.703125 11.425781 C 6.707031 10.5625 6.160156 9.789062 5.34375 9.5 C 6.136719 9.214844 6.703125 8.464844 6.703125 7.570312 L 6.703125 7.308594 C 6.703125 6.800781 6.984375 6.363281 7.390625 6.125 Z M 10.140625 5.375 L 10.140625 6.125 C 10.566406 6.367188 10.828125 6.820312 10.828125 7.308594 L 10.828125 7.574219 C 10.832031 8.4375 11.375 9.210938 12.191406 9.5 C 11.398438 9.785156 10.828125 10.535156 10.828125 11.429688 L 10.828125 11.691406 C 10.828125 12.179688 10.566406 12.632812 10.140625 12.875 L 10.140625 13.628906 C 10.964844 13.339844 11.515625 12.5625 11.515625 11.691406 L 11.515625 11.429688 C 11.519531 10.941406 11.78125 10.488281 12.203125 10.246094 L 12.203125 8.757812 C 11.78125 8.515625 11.519531 8.0625 11.515625 7.574219 L 11.515625 7.308594 C 11.519531 6.4375 10.964844 5.664062 10.140625 5.375 M 4.296875 12.648438 L 4.296875 13.625 L 5.328125 13.625 L 5.328125 12.648438 Z M 4.296875 12.648438 "/>
</svg>
