<?xml version="1.0" encoding="UTF-8"?>
<svg xmlns="http://www.w3.org/2000/svg" xmlns:xlink="http://www.w3.org/1999/xlink" width="16" height="16" viewBox="0 0 16 16">
<path fill="none" stroke-width="1.000068" stroke-linecap="round" stroke-linejoin="round" stroke="rgb(48.235294%, 43.529412%, 39.215687%)" stroke-opacity="1" stroke-miterlimit="4" d="M 6.5 2.5 L 5.5 3.5 L 5.5 29.5 L 6.5 30.5 L 26.5 30.5 L 27.5 29.5 L 27.5 10.5 L 19.5 2.5 Z M 6.5 2.5 " transform="matrix(0.5, 0, 0, 0.5, 0, 0)"/>
<path fill="none" stroke-width="1.000068" stroke-linecap="round" stroke-linejoin="round" stroke="rgb(48.235294%, 43.529412%, 39.215687%)" stroke-opacity="1" stroke-miterlimit="4" d="M 19.5 2.5 L 27.5 10.5 L 20.5 10.5 L 19.5 9.5 Z M 19.5 2.5 " transform="matrix(0.5, 0, 0, 0.5, 0, 0)"/>
<path fill-rule="nonzero" fill="rgb(48.235294%, 43.529412%, 39.215687%)" fill-opacity="1" d="M 4.125 5.375 L 4.125 6.0625 L 12.375 6.0625 L 12.375 5.375 Z M 4.46875 6.75 C 4.378906 6.75 4.289062 6.785156 4.226562 6.851562 C 4.160156 6.914062 4.125 7.003906 4.125 7.09375 C 4.125 7.285156 4.277344 7.4375 4.46875 7.4375 C 4.558594 7.4375 4.648438 7.402344 4.710938 7.335938 C 4.777344 7.273438 4.8125 7.183594 4.8125 7.09375 C 4.8125 7.003906 4.777344 6.914062 4.710938 6.851562 C 4.648438 6.785156 4.558594 6.75 4.46875 6.75 M 5.5 6.75 L 5.5 7.4375 L 11.6875 7.4375 L 11.6875 6.75 Z M 5.5 8.125 L 5.5 8.8125 L 8.25 8.8125 L 8.25 8.125 Z M 4.46875 10.1875 C 4.378906 10.1875 4.289062 10.222656 4.226562 10.289062 C 4.160156 10.351562 4.125 10.441406 4.125 10.53125 C 4.125 10.722656 4.277344 10.875 4.46875 10.875 C 4.558594 10.875 4.648438 10.839844 4.710938 10.773438 C 4.777344 10.710938 4.8125 10.621094 4.8125 10.53125 C 4.8125 10.441406 4.777344 10.351562 4.710938 10.289062 C 4.648438 10.222656 4.558594 10.1875 4.46875 10.1875 M 5.5 10.1875 L 5.5 10.875 L 11.6875 10.875 L 11.6875 10.1875 Z M 5.5 11.5625 L 5.5 12.25 L 11 12.25 L 11 11.5625 Z M 4.125 12.9375 L 4.125 13.625 L 12.375 13.625 L 12.375 12.9375 Z M 4.125 12.9375 "/>
</svg>
