<?xml version="1.0" encoding="UTF-8"?>
<svg xmlns="http://www.w3.org/2000/svg" xmlns:xlink="http://www.w3.org/1999/xlink" width="16" height="16" viewBox="0 0 16 16">
<path fill="none" stroke-width="1.000068" stroke-linecap="round" stroke-linejoin="round" stroke="rgb(48.235294%, 43.529412%, 39.215687%)" stroke-opacity="1" stroke-miterlimit="4" d="M 6.5 2.5 L 5.5 3.5 L 5.5 29.5 L 6.5 30.5 L 26.5 30.5 L 27.5 29.5 L 27.5 10.5 L 19.5 2.5 Z M 6.5 2.5 " transform="matrix(0.5, 0, 0, 0.5, 0, 0)"/>
<path fill="none" stroke-width="1.000068" stroke-linecap="round" stroke-linejoin="round" stroke="rgb(48.235294%, 43.529412%, 39.215687%)" stroke-opacity="1" stroke-miterlimit="4" d="M 19.5 2.5 L 27.5 10.5 L 20.5 10.5 L 19.5 9.5 Z M 19.5 2.5 " transform="matrix(0.5, 0, 0, 0.5, 0, 0)"/>
<path fill-rule="nonzero" fill="rgb(48.235294%, 43.529412%, 39.215687%)" fill-opacity="1" d="M 8.585938 10.984375 L 7.632812 10.042969 L 7.644531 10.03125 C 8.28125 9.324219 8.753906 8.488281 9.035156 7.582031 L 10.136719 7.582031 L 10.136719 6.832031 L 7.511719 6.832031 L 7.511719 6.082031 L 6.761719 6.082031 L 6.761719 6.832031 L 4.132812 6.832031 L 4.132812 7.578125 L 8.324219 7.578125 C 8.066406 8.320312 7.660156 9.003906 7.136719 9.589844 C 6.792969 9.210938 6.5 8.789062 6.265625 8.335938 L 5.515625 8.335938 C 5.796875 8.960938 6.175781 9.535156 6.636719 10.042969 L 4.726562 11.929688 L 5.261719 12.460938 L 7.136719 10.585938 L 8.300781 11.75 Z M 10.699219 9.085938 L 9.949219 9.085938 L 8.261719 13.585938 L 9.011719 13.585938 L 9.429688 12.460938 L 11.210938 12.460938 L 11.636719 13.585938 L 12.386719 13.585938 Z M 9.714844 11.710938 L 10.324219 10.085938 L 10.929688 11.710938 Z M 9.714844 11.710938 "/>
</svg>
