<?xml version="1.0" encoding="UTF-8"?>
<svg xmlns="http://www.w3.org/2000/svg" xmlns:xlink="http://www.w3.org/1999/xlink" width="16" height="16" viewBox="0 0 16 16">
<path fill="none" stroke-width="1.000068" stroke-linecap="round" stroke-linejoin="round" stroke="rgb(48.235294%, 43.529412%, 39.215687%)" stroke-opacity="1" stroke-miterlimit="4" d="M 6.5 2.5 L 5.5 3.5 L 5.5 29.5 L 6.5 30.5 L 26.5 30.5 L 27.5 29.5 L 27.5 10.5 L 19.5 2.5 Z M 6.5 2.5 " transform="matrix(0.5, 0, 0, 0.5, 0, 0)"/>
<path fill="none" stroke-width="1.000068" stroke-linecap="round" stroke-linejoin="round" stroke="rgb(48.235294%, 43.529412%, 39.215687%)" stroke-opacity="1" stroke-miterlimit="4" d="M 19.5 2.5 L 27.5 10.5 L 20.5 10.5 L 19.5 9.5 Z M 19.5 2.5 " transform="matrix(0.5, 0, 0, 0.5, 0, 0)"/>
<path fill-rule="nonzero" fill="rgb(98.039216%, 28.627452%, 20.392157%)" fill-opacity="1" d="M 7.5625 5.375 L 7.5625 13.625 L 8.25 13.625 L 8.25 9.464844 C 8.703125 9.929688 9.320312 10.191406 9.96875 10.191406 C 10.609375 10.191406 11.21875 9.9375 11.671875 9.488281 C 12.125 9.035156 12.375 8.421875 12.375 7.78125 C 12.375 7.144531 12.125 6.53125 11.671875 6.078125 C 11.21875 5.628906 10.605469 5.375 9.96875 5.378906 C 9.320312 5.375 8.699219 5.636719 8.25 6.101562 L 8.25 5.378906 Z M 9.96875 6.0625 C 10.425781 6.0625 10.863281 6.242188 11.1875 6.566406 C 11.507812 6.886719 11.6875 7.324219 11.6875 7.78125 C 11.6875 8.238281 11.507812 8.675781 11.183594 9 C 10.863281 9.320312 10.425781 9.5 9.96875 9.5 C 9.511719 9.5 9.074219 9.320312 8.75 8.996094 C 8.429688 8.675781 8.25 8.238281 8.25 7.78125 C 8.25 7.324219 8.429688 6.886719 8.753906 6.5625 C 9.074219 6.242188 9.511719 6.0625 9.96875 6.0625 M 4.8125 8.8125 C 4.433594 8.8125 4.125 9.121094 4.125 9.5 C 4.125 9.878906 4.433594 10.1875 4.8125 10.1875 C 5.191406 10.1875 5.5 9.878906 5.5 9.5 C 5.5 9.121094 5.191406 8.8125 4.8125 8.8125 "/>
</svg>
