<?xml version="1.0" encoding="UTF-8"?>
<svg xmlns="http://www.w3.org/2000/svg" xmlns:xlink="http://www.w3.org/1999/xlink" width="16" height="16" viewBox="0 0 16 16">
<path fill="none" stroke-width="1.000068" stroke-linecap="round" stroke-linejoin="round" stroke="rgb(48.235294%, 43.529412%, 39.215687%)" stroke-opacity="1" stroke-miterlimit="4" d="M 6.5 2.5 L 5.5 3.5 L 5.5 29.5 L 6.5 30.5 L 26.5 30.5 L 27.5 29.5 L 27.5 10.5 L 19.5 2.5 Z M 6.5 2.5 " transform="matrix(0.5, 0, 0, 0.5, 0, 0)"/>
<path fill="none" stroke-width="1.000068" stroke-linecap="round" stroke-linejoin="round" stroke="rgb(48.235294%, 43.529412%, 39.215687%)" stroke-opacity="1" stroke-miterlimit="4" d="M 19.5 2.5 L 27.5 10.5 L 20.5 10.5 L 19.5 9.5 Z M 19.5 2.5 " transform="matrix(0.5, 0, 0, 0.5, 0, 0)"/>
<path fill-rule="nonzero" fill="rgb(48.627451%, 71.372551%, 40.784314%)" fill-opacity="1" d="M 4.8125 6.0625 C 4.429688 6.0625 4.125 6.367188 4.125 6.75 L 4.125 12.25 C 4.125 12.632812 4.429688 12.9375 4.8125 12.9375 L 11.6875 12.9375 C 12.070312 12.9375 12.375 12.632812 12.375 12.25 L 12.375 6.75 C 12.375 6.367188 12.070312 6.0625 11.6875 6.0625 Z M 8.59375 6.75 C 8.785156 6.75 8.9375 6.902344 8.9375 7.09375 C 8.9375 7.183594 8.902344 7.273438 8.835938 7.335938 C 8.773438 7.402344 8.683594 7.4375 8.59375 7.4375 C 8.503906 7.4375 8.414062 7.402344 8.351562 7.335938 C 8.285156 7.273438 8.25 7.183594 8.25 7.09375 C 8.25 6.902344 8.402344 6.75 8.59375 6.75 M 9.96875 6.75 C 10.160156 6.75 10.3125 6.902344 10.3125 7.09375 C 10.3125 7.183594 10.277344 7.273438 10.210938 7.335938 C 10.148438 7.402344 10.058594 7.4375 9.96875 7.4375 C 9.878906 7.4375 9.789062 7.402344 9.726562 7.335938 C 9.660156 7.273438 9.625 7.183594 9.625 7.09375 C 9.625 6.902344 9.777344 6.75 9.96875 6.75 M 11.34375 6.75 C 11.535156 6.75 11.6875 6.902344 11.6875 7.09375 C 11.6875 7.183594 11.652344 7.273438 11.585938 7.335938 C 11.523438 7.402344 11.433594 7.4375 11.34375 7.4375 C 11.253906 7.4375 11.164062 7.402344 11.101562 7.335938 C 11.035156 7.273438 11 7.183594 11 7.09375 C 11 6.902344 11.152344 6.75 11.34375 6.75 M 4.8125 8.125 L 11.6875 8.125 L 11.6875 12.25 L 4.8125 12.25 Z M 4.8125 8.125 "/>
</svg>
