<?xml version="1.0" encoding="UTF-8"?>
<svg xmlns="http://www.w3.org/2000/svg" xmlns:xlink="http://www.w3.org/1999/xlink" width="16" height="16" viewBox="0 0 16 16">
<path fill="none" stroke-width="1.000068" stroke-linecap="round" stroke-linejoin="round" stroke="rgb(48.235294%, 43.529412%, 39.215687%)" stroke-opacity="1" stroke-miterlimit="4" d="M 6.5 2.5 L 5.5 3.5 L 5.5 29.5 L 6.5 30.5 L 26.5 30.5 L 27.5 29.5 L 27.5 10.5 L 19.5 2.5 Z M 6.5 2.5 " transform="matrix(0.5, 0, 0, 0.5, 0, 0)"/>
<path fill="none" stroke-width="1.000068" stroke-linecap="round" stroke-linejoin="round" stroke="rgb(48.235294%, 43.529412%, 39.215687%)" stroke-opacity="1" stroke-miterlimit="4" d="M 19.5 2.5 L 27.5 10.5 L 20.5 10.5 L 19.5 9.5 Z M 19.5 2.5 " transform="matrix(0.5, 0, 0, 0.5, 0, 0)"/>
<path fill-rule="nonzero" fill="rgb(99.215686%, 50.196081%, 9.803922%)" fill-opacity="1" d="M 7.5625 5.375 C 7.199219 5.375 6.847656 5.519531 6.589844 5.777344 C 6.332031 6.035156 6.1875 6.386719 6.1875 6.75 L 8.25 6.75 L 8.25 7.4375 L 5.5 7.4375 C 5.136719 7.4375 4.785156 7.582031 4.527344 7.839844 C 4.269531 8.097656 4.125 8.449219 4.125 8.8125 L 4.125 10.1875 C 4.125 10.550781 4.269531 10.902344 4.527344 11.160156 C 4.785156 11.417969 5.136719 11.5625 5.5 11.5625 L 5.5 10.875 C 5.5 10.289062 5.75 9.734375 6.1875 9.34375 L 6.191406 9.34375 C 6.28125 9.261719 6.378906 9.1875 6.484375 9.125 C 6.585938 9.058594 6.695312 9.003906 6.808594 8.960938 C 6.828125 8.949219 6.851562 8.945312 6.871094 8.9375 C 6.96875 8.902344 7.066406 8.875 7.167969 8.851562 C 7.296875 8.828125 7.429688 8.8125 7.5625 8.8125 L 10.3125 8.8125 L 10.3125 6.75 C 10.3125 6.386719 10.167969 6.035156 9.910156 5.777344 C 9.652344 5.519531 9.300781 5.375 8.9375 5.375 Z M 7.5625 5.71875 C 7.753906 5.71875 7.90625 5.871094 7.90625 6.0625 C 7.90625 6.152344 7.871094 6.242188 7.804688 6.304688 C 7.742188 6.371094 7.652344 6.40625 7.5625 6.40625 C 7.472656 6.40625 7.382812 6.371094 7.320312 6.304688 C 7.253906 6.242188 7.21875 6.152344 7.21875 6.0625 C 7.21875 5.871094 7.371094 5.71875 7.5625 5.71875 M 11 7.4375 L 11 8.125 C 11 8.738281 10.730469 9.28125 10.3125 9.65625 C 10.222656 9.738281 10.125 9.8125 10.019531 9.875 L 10.015625 9.875 C 9.914062 9.941406 9.804688 9.996094 9.695312 10.039062 C 9.671875 10.046875 9.652344 10.054688 9.628906 10.0625 C 9.535156 10.097656 9.433594 10.128906 9.332031 10.148438 C 9.203125 10.171875 9.074219 10.1875 8.9375 10.1875 L 6.1875 10.1875 L 6.1875 12.25 C 6.1875 12.613281 6.332031 12.964844 6.589844 13.222656 C 6.847656 13.480469 7.199219 13.625 7.5625 13.625 L 8.9375 13.625 C 9.300781 13.625 9.652344 13.480469 9.910156 13.222656 C 10.167969 12.964844 10.3125 12.613281 10.3125 12.25 L 8.25 12.25 L 8.25 11.5625 L 11 11.5625 C 11.363281 11.5625 11.714844 11.417969 11.972656 11.160156 C 12.230469 10.902344 12.375 10.550781 12.375 10.1875 L 12.375 8.8125 C 12.375 8.449219 12.230469 8.097656 11.972656 7.839844 C 11.714844 7.582031 11.363281 7.4375 11 7.4375 M 8.9375 12.59375 C 9.128906 12.59375 9.28125 12.746094 9.28125 12.9375 C 9.28125 13.027344 9.246094 13.117188 9.179688 13.179688 C 9.117188 13.246094 9.027344 13.28125 8.9375 13.28125 C 8.847656 13.28125 8.757812 13.246094 8.695312 13.179688 C 8.628906 13.117188 8.59375 13.027344 8.59375 12.9375 C 8.59375 12.746094 8.75 12.59375 8.9375 12.59375 "/>
</svg>
