<?xml version="1.0" encoding="UTF-8"?>
<svg xmlns="http://www.w3.org/2000/svg" xmlns:xlink="http://www.w3.org/1999/xlink" width="16" height="16" viewBox="0 0 16 16">
<path fill="none" stroke-width="1.000068" stroke-linecap="round" stroke-linejoin="round" stroke="rgb(48.235294%, 43.529412%, 39.215687%)" stroke-opacity="1" stroke-miterlimit="4" d="M 6.5 2.5 L 5.5 3.5 L 5.5 29.5 L 6.5 30.5 L 26.5 30.5 L 27.5 29.5 L 27.5 10.5 L 19.5 2.5 Z M 6.5 2.5 " transform="matrix(0.5, 0, 0, 0.5, 0, 0)"/>
<path fill="none" stroke-width="1.000068" stroke-linecap="round" stroke-linejoin="round" stroke="rgb(48.235294%, 43.529412%, 39.215687%)" stroke-opacity="1" stroke-miterlimit="4" d="M 19.5 2.5 L 27.5 10.5 L 20.5 10.5 L 19.5 9.5 Z M 19.5 2.5 " transform="matrix(0.5, 0, 0, 0.5, 0, 0)"/>
<path fill-rule="nonzero" fill="rgb(48.235294%, 43.529412%, 39.215687%)" fill-opacity="1" d="M 6.53125 5.375 C 6.027344 5.375 5.597656 5.734375 5.511719 6.230469 C 5.429688 6.726562 5.714844 7.210938 6.1875 7.378906 L 6.1875 11.625 C 5.777344 11.769531 5.5 12.160156 5.5 12.59375 C 5.5 12.867188 5.609375 13.128906 5.800781 13.324219 C 5.996094 13.515625 6.257812 13.625 6.53125 13.625 C 7.035156 13.625 7.464844 13.265625 7.550781 12.769531 C 7.632812 12.273438 7.347656 11.789062 6.875 11.621094 L 6.875 7.378906 C 7.347656 7.210938 7.632812 6.726562 7.550781 6.230469 C 7.464844 5.734375 7.035156 5.375 6.53125 5.375 M 8.9375 5.375 L 7.5625 6.339844 L 8.9375 7.4375 L 8.9375 6.75 L 9.625 6.75 C 10.007812 6.75 10.3125 7.054688 10.3125 7.4375 L 10.3125 11.625 C 9.902344 11.769531 9.625 12.160156 9.625 12.59375 C 9.625 12.867188 9.734375 13.128906 9.925781 13.324219 C 10.121094 13.515625 10.382812 13.625 10.65625 13.625 C 11.160156 13.625 11.589844 13.265625 11.675781 12.769531 C 11.757812 12.273438 11.472656 11.789062 11 11.621094 L 11 7.4375 C 11 6.675781 10.386719 6.097656 9.625 6.0625 L 8.9375 6.0625 Z M 6.53125 6.0625 C 6.710938 6.074219 6.851562 6.226562 6.851562 6.40625 C 6.851562 6.585938 6.710938 6.738281 6.53125 6.75 C 6.351562 6.738281 6.210938 6.585938 6.210938 6.40625 C 6.210938 6.226562 6.351562 6.074219 6.53125 6.0625 M 6.53125 12.25 C 6.710938 12.261719 6.851562 12.414062 6.851562 12.59375 C 6.851562 12.773438 6.710938 12.925781 6.53125 12.9375 C 6.351562 12.925781 6.210938 12.773438 6.210938 12.59375 C 6.210938 12.414062 6.351562 12.261719 6.53125 12.25 M 10.65625 12.25 C 10.835938 12.261719 10.976562 12.414062 10.976562 12.59375 C 10.976562 12.773438 10.835938 12.925781 10.65625 12.9375 C 10.476562 12.925781 10.335938 12.773438 10.335938 12.59375 C 10.335938 12.414062 10.476562 12.261719 10.65625 12.25 "/>
</svg>
