<?xml version="1.0" encoding="UTF-8"?>
<svg xmlns="http://www.w3.org/2000/svg" xmlns:xlink="http://www.w3.org/1999/xlink" width="16" height="16" viewBox="0 0 16 16">
<path fill="none" stroke-width="1.000068" stroke-linecap="round" stroke-linejoin="round" stroke="rgb(48.235294%, 43.529412%, 39.215687%)" stroke-opacity="1" stroke-miterlimit="4" d="M 6.5 2.5 L 5.5 3.5 L 5.5 29.5 L 6.5 30.5 L 26.5 30.5 L 27.5 29.5 L 27.5 10.5 L 19.5 2.5 Z M 6.5 2.5 " transform="matrix(0.5, 0, 0, 0.5, 0, 0)"/>
<path fill="none" stroke-width="1.000068" stroke-linecap="round" stroke-linejoin="round" stroke="rgb(48.235294%, 43.529412%, 39.215687%)" stroke-opacity="1" stroke-miterlimit="4" d="M 19.5 2.5 L 27.5 10.5 L 20.5 10.5 L 19.5 9.5 Z M 19.5 2.5 " transform="matrix(0.5, 0, 0, 0.5, 0, 0)"/>
<path fill-rule="nonzero" fill="rgb(48.235294%, 43.529412%, 39.215687%)" fill-opacity="1" d="M 6.1875 5.378906 C 5.066406 5.402344 4.167969 6.316406 4.167969 7.441406 C 4.167969 8.5625 5.066406 9.476562 6.1875 9.503906 C 7.308594 9.476562 8.207031 8.5625 8.207031 7.441406 C 8.207031 6.316406 7.308594 5.402344 6.1875 5.378906 M 8.25 7.441406 C 8.273438 8.5625 9.191406 9.457031 10.3125 9.457031 C 11.433594 9.457031 12.351562 8.5625 12.375 7.441406 C 12.351562 6.316406 11.433594 5.421875 10.3125 5.421875 C 9.191406 5.421875 8.273438 6.316406 8.25 7.441406 M 6.1875 6.066406 C 6.804688 6.0625 7.347656 6.476562 7.511719 7.070312 C 7.679688 7.664062 7.425781 8.296875 6.898438 8.617188 C 6.367188 8.933594 5.691406 8.863281 5.242188 8.4375 C 5.664062 8.546875 6.105469 8.382812 6.351562 8.027344 C 6.597656 7.671875 6.597656 7.203125 6.347656 6.847656 C 6.101562 6.496094 5.660156 6.332031 5.242188 6.441406 C 5.496094 6.199219 5.835938 6.066406 6.1875 6.066406 M 10.3125 6.066406 C 10.929688 6.0625 11.472656 6.476562 11.636719 7.070312 C 11.804688 7.664062 11.550781 8.296875 11.023438 8.617188 C 10.492188 8.933594 9.816406 8.863281 9.367188 8.4375 C 9.789062 8.546875 10.230469 8.382812 10.476562 8.027344 C 10.722656 7.671875 10.722656 7.203125 10.472656 6.847656 C 10.226562 6.496094 9.785156 6.332031 9.367188 6.441406 C 9.621094 6.199219 9.960938 6.066406 10.3125 6.066406 M 11.054688 10.292969 C 10.410156 10.65625 9.363281 10.878906 8.25 10.878906 C 7.289062 10.878906 6.378906 10.71875 5.726562 10.433594 L 5.296875 10.9375 C 5.558594 11.074219 5.863281 11.179688 6.1875 11.277344 L 6.1875 12.253906 C 6.1875 13.011719 6.800781 13.628906 7.5625 13.628906 C 7.957031 13.625 8.332031 13.453125 8.59375 13.15625 C 8.855469 13.453125 9.230469 13.625 9.625 13.628906 C 10.386719 13.628906 11 13.011719 11 12.253906 L 11 11.03125 C 11.179688 10.953125 11.351562 10.863281 11.515625 10.757812 Z M 10.3125 11.273438 L 10.3125 12.253906 C 10.3125 12.632812 10.003906 12.941406 9.625 12.941406 C 9.246094 12.941406 8.9375 12.632812 8.9375 12.253906 L 8.9375 11.523438 C 9.425781 11.480469 9.886719 11.398438 10.3125 11.273438 M 6.875 11.4375 C 7.316406 11.515625 7.773438 11.5625 8.25 11.5625 L 8.25 12.25 C 8.25 12.632812 7.941406 12.9375 7.5625 12.9375 C 7.183594 12.9375 6.875 12.632812 6.875 12.25 Z M 6.875 11.4375 "/>
</svg>
