<?xml version="1.0" encoding="UTF-8"?>
<svg xmlns="http://www.w3.org/2000/svg" xmlns:xlink="http://www.w3.org/1999/xlink" width="16" height="16" viewBox="0 0 16 16">
<path fill="none" stroke-width="1.000068" stroke-linecap="round" stroke-linejoin="round" stroke="rgb(48.235294%, 43.529412%, 39.215687%)" stroke-opacity="1" stroke-miterlimit="4" d="M 6.5 2.5 L 5.5 3.5 L 5.5 29.5 L 6.5 30.5 L 26.5 30.5 L 27.5 29.5 L 27.5 10.5 L 19.5 2.5 Z M 6.5 2.5 " transform="matrix(0.5, 0, 0, 0.5, 0, 0)"/>
<path fill="none" stroke-width="1.000068" stroke-linecap="round" stroke-linejoin="round" stroke="rgb(48.235294%, 43.529412%, 39.215687%)" stroke-opacity="1" stroke-miterlimit="4" d="M 19.5 2.5 L 27.5 10.5 L 20.5 10.5 L 19.5 9.5 Z M 19.5 2.5 " transform="matrix(0.5, 0, 0, 0.5, 0, 0)"/>
<path fill-rule="nonzero" fill="rgb(2.352941%, 40.000001%, 47.058824%)" fill-opacity="1" d="M 8.25 5.375 L 8.25 6.0625 L 7.5625 6.0625 L 7.5625 6.75 L 8.25 6.75 L 8.25 7.4375 L 8.9375 7.4375 L 8.9375 6.75 L 9.625 6.75 L 9.625 6.0625 L 8.9375 6.0625 L 8.9375 5.375 Z M 11 5.375 L 11 6.0625 L 10.3125 6.0625 L 10.3125 6.75 L 11 6.75 L 11 7.4375 L 11.6875 7.4375 L 11.6875 6.75 L 12.375 6.75 L 12.375 6.0625 L 11.6875 6.0625 L 11.6875 5.375 Z M 11 5.375 "/>
<path fill-rule="evenodd" fill="rgb(2.352941%, 40.000001%, 47.058824%)" fill-opacity="1" d="M 6.875 8.125 C 5.355469 8.125 4.125 9.355469 4.125 10.875 C 4.125 11.988281 4.792969 12.988281 5.824219 13.414062 C 6.851562 13.839844 8.03125 13.605469 8.820312 12.820312 L 8.332031 12.332031 C 7.945312 12.71875 7.421875 12.9375 6.875 12.9375 C 5.753906 12.914062 4.855469 11.996094 4.855469 10.875 C 4.855469 9.753906 5.753906 8.835938 6.875 8.8125 C 7.421875 8.8125 7.945312 9.03125 8.332031 9.417969 L 8.820312 8.929688 C 8.304688 8.414062 7.605469 8.125 6.875 8.125 Z M 6.875 8.125 "/>
</svg>
