<?xml version="1.0" encoding="UTF-8"?>
<svg xmlns="http://www.w3.org/2000/svg" xmlns:xlink="http://www.w3.org/1999/xlink" width="16" height="16" viewBox="0 0 16 16">
<path fill="none" stroke-width="1.000068" stroke-linecap="round" stroke-linejoin="round" stroke="rgb(48.235294%, 43.529412%, 39.215687%)" stroke-opacity="1" stroke-miterlimit="4" d="M 6.5 2.5 L 5.5 3.5 L 5.5 29.5 L 6.5 30.5 L 26.5 30.5 L 27.5 29.5 L 27.5 10.5 L 19.5 2.5 Z M 6.5 2.5 " transform="matrix(0.5, 0, 0, 0.5, 0, 0)"/>
<path fill="none" stroke-width="1.000068" stroke-linecap="round" stroke-linejoin="round" stroke="rgb(48.235294%, 43.529412%, 39.215687%)" stroke-opacity="1" stroke-miterlimit="4" d="M 19.5 2.5 L 27.5 10.5 L 20.5 10.5 L 19.5 9.5 Z M 19.5 2.5 " transform="matrix(0.5, 0, 0, 0.5, 0, 0)"/>
<path fill-rule="nonzero" fill="rgb(28.235295%, 72.549021%, 78.039217%)" fill-opacity="1" d="M 8.25 5.375 C 5.972656 5.375 4.125 7.222656 4.125 9.5 C 4.125 11.777344 5.972656 13.625 8.25 13.625 C 10.527344 13.625 12.375 11.777344 12.375 9.5 C 12.375 7.222656 10.527344 5.375 8.25 5.375 M 8.25 6.0625 C 10.148438 6.0625 11.6875 7.601562 11.6875 9.5 C 11.6875 11.398438 10.148438 12.9375 8.25 12.9375 C 6.351562 12.9375 4.8125 11.398438 4.8125 9.5 C 4.8125 7.601562 6.351562 6.0625 8.25 6.0625 "/>
<path fill-rule="nonzero" fill="rgb(28.235295%, 72.549021%, 78.039217%)" fill-opacity="1" d="M 7.90625 8.125 L 8.59375 8.125 L 8.59375 12.25 L 7.90625 12.25 Z M 7.90625 6.75 L 8.59375 6.75 L 8.59375 7.4375 L 7.90625 7.4375 Z M 7.90625 6.75 "/>
</svg>
