<?xml version="1.0" encoding="UTF-8"?>
<svg xmlns="http://www.w3.org/2000/svg" xmlns:xlink="http://www.w3.org/1999/xlink" width="16" height="16" viewBox="0 0 16 16">
<path fill="none" stroke-width="1.000068" stroke-linecap="round" stroke-linejoin="round" stroke="rgb(48.235294%, 43.529412%, 39.215687%)" stroke-opacity="1" stroke-miterlimit="4" d="M 6.5 2.5 L 5.5 3.5 L 5.5 29.5 L 6.5 30.5 L 26.5 30.5 L 27.5 29.5 L 27.5 10.5 L 19.5 2.5 Z M 6.5 2.5 " transform="matrix(0.5, 0, 0, 0.5, 0, 0)"/>
<path fill="none" stroke-width="1.000068" stroke-linecap="round" stroke-linejoin="round" stroke="rgb(48.235294%, 43.529412%, 39.215687%)" stroke-opacity="1" stroke-miterlimit="4" d="M 19.5 2.5 L 27.5 10.5 L 20.5 10.5 L 19.5 9.5 Z M 19.5 2.5 " transform="matrix(0.5, 0, 0, 0.5, 0, 0)"/>
<path fill-rule="nonzero" fill="rgb(98.039216%, 28.627452%, 20.392157%)" fill-opacity="1" d="M 5.398438 5.375 C 5.289062 5.382812 5.171875 5.375 5.039062 5.464844 C 3.867188 5.96875 4.652344 7.351562 6.148438 8.402344 C 6.15625 8.203125 6.238281 7.773438 6.238281 7.582031 C 4.960938 6.710938 4.214844 5.863281 5.03125 5.523438 C 5.882812 5.171875 6.152344 6.136719 6.164062 7.546875 C 6.246094 7.628906 6.796875 7.992188 6.882812 8.050781 C 6.847656 6.769531 6.167969 5.460938 5.511719 5.386719 C 5.476562 5.378906 5.4375 5.378906 5.402344 5.378906 M 6.59375 7.609375 L 6.324219 7.507812 L 6.105469 7.65625 L 6.0625 8.121094 L 6.339844 8.335938 L 6.457031 8.492188 C 7.316406 9.058594 8.050781 9.5 9.011719 9.863281 L 9.613281 9.953125 L 10.007812 9.953125 C 10.371094 9.738281 10.15625 9.65625 11.476562 9.488281 L 9.988281 9.605469 C 8.835938 9.15625 7.660156 8.519531 6.59375 7.820312 M 9.21875 9.6875 C 9.390625 9.6875 10.738281 9.570312 11.273438 9.523438 C 11.804688 9.4375 12.453125 9.414062 12.332031 10.03125 C 12.472656 9.703125 12.152344 9.140625 11.699219 9.042969 C 10.996094 8.886719 9.882812 9.316406 9.480469 9.449219 M 10.128906 9.617188 C 9.917969 9.699219 9.441406 9.761719 9.214844 9.835938 C 9.53125 10.003906 11.136719 10.59375 11.800781 10.46875 C 11.90625 10.46875 12.355469 10.148438 12.363281 9.914062 C 12.332031 10.339844 10.367188 10.023438 10.128906 9.609375 M 10.5625 9.617188 C 10.390625 9.535156 9.585938 9.539062 9.40625 9.472656 C 8.398438 9.824219 7.042969 10.65625 6.074219 11.210938 L 5.789062 11.296875 C 5.734375 11.679688 5.5 11.8125 5.28125 12.0625 L 5.613281 12.390625 L 5.867188 11.96875 C 7.007812 11.285156 9.253906 10.179688 10.5625 9.648438 M 5.867188 11.96875 C 5.734375 12.050781 5.601562 12.132812 5.46875 12.21875 C 5.179688 13.046875 4.839844 13.601562 4.515625 13.574219 C 5.015625 13.816406 6.09375 12.636719 6.460938 11.527344 M 4.515625 13.574219 C 3.753906 13.121094 5.367188 12.296875 5.734375 12.054688 C 5.816406 11.824219 5.589844 11.441406 5.664062 11.167969 C 4.523438 11.878906 3.84375 12.90625 4.230469 13.390625 C 4.324219 13.507812 4.421875 13.566406 4.515625 13.574219 M 5.628906 11.84375 C 5.679688 11.632812 6.386719 11.148438 6.511719 11.074219 C 6.683594 9.734375 6.691406 9.601562 6.835938 8.558594 C 6.75 8.476562 6.21875 8.058594 6.136719 8.003906 C 6.03125 9.117188 5.839844 10.625 5.566406 11.632812 "/>
</svg>
