<?xml version="1.0" encoding="UTF-8"?>
<svg xmlns="http://www.w3.org/2000/svg" xmlns:xlink="http://www.w3.org/1999/xlink" width="16" height="16" viewBox="0 0 16 16">
<path fill="none" stroke-width="1.000068" stroke-linecap="round" stroke-linejoin="round" stroke="rgb(48.235294%, 43.529412%, 39.215687%)" stroke-opacity="1" stroke-miterlimit="4" d="M 6.5 2.5 L 5.5 3.5 L 5.5 29.5 L 6.5 30.5 L 26.5 30.5 L 27.5 29.5 L 27.5 10.5 L 19.5 2.5 Z M 6.5 2.5 " transform="matrix(0.5, 0, 0, 0.5, 0, 0)"/>
<path fill="none" stroke-width="1.000068" stroke-linecap="round" stroke-linejoin="round" stroke="rgb(48.235294%, 43.529412%, 39.215687%)" stroke-opacity="1" stroke-miterlimit="4" d="M 19.5 2.5 L 27.5 10.5 L 20.5 10.5 L 19.5 9.5 Z M 19.5 2.5 " transform="matrix(0.5, 0, 0, 0.5, 0, 0)"/>
<path fill-rule="nonzero" fill="rgb(48.627451%, 71.372551%, 40.784314%)" fill-opacity="1" d="M 6.875 5.375 C 6.492188 5.375 6.1875 5.679688 6.1875 6.0625 L 6.1875 6.75 L 4.8125 6.75 C 4.429688 6.75 4.125 7.054688 4.125 7.4375 L 4.125 12.9375 C 4.125 13.320312 4.429688 13.625 4.8125 13.625 L 10.3125 13.625 C 10.695312 13.625 11 13.320312 11 12.9375 L 11 12.25 L 11.6875 12.25 C 12.070312 12.25 12.375 11.945312 12.375 11.5625 L 12.375 6.0625 C 12.375 5.679688 12.070312 5.375 11.6875 5.375 Z M 6.875 6.0625 L 11.6875 6.0625 L 11.6875 11.5625 L 11 11.5625 L 11 7.4375 C 11 7.054688 10.695312 6.75 10.3125 6.75 L 7.578125 6.75 C 7.15625 6.570312 6.859375 6.355469 6.875 6.0625 M 4.8125 7.4375 L 10.3125 7.4375 L 10.3125 12.9375 L 4.8125 12.9375 Z M 5.5 8.125 L 5.5 9.5 L 9.625 9.5 L 9.625 8.125 Z M 5.5 10.1875 L 5.5 10.875 L 9.625 10.875 L 9.625 10.1875 Z M 5.5 11.5625 L 5.5 12.25 L 9.625 12.25 L 9.625 11.5625 Z M 5.5 11.5625 "/>
</svg>
