<?xml version="1.0" encoding="UTF-8"?>
<svg xmlns="http://www.w3.org/2000/svg" xmlns:xlink="http://www.w3.org/1999/xlink" width="16" height="16" viewBox="0 0 16 16">
<path fill="none" stroke-width="1.000068" stroke-linecap="round" stroke-linejoin="round" stroke="rgb(48.235294%, 43.529412%, 39.215687%)" stroke-opacity="1" stroke-miterlimit="4" d="M 6.5 2.5 L 5.5 3.5 L 5.5 29.5 L 6.5 30.5 L 26.5 30.5 L 27.5 29.5 L 27.5 10.5 L 19.5 2.5 Z M 6.5 2.5 " transform="matrix(0.5, 0, 0, 0.5, 0, 0)"/>
<path fill="none" stroke-width="1.000068" stroke-linecap="round" stroke-linejoin="round" stroke="rgb(48.235294%, 43.529412%, 39.215687%)" stroke-opacity="1" stroke-miterlimit="4" d="M 19.5 2.5 L 27.5 10.5 L 20.5 10.5 L 19.5 9.5 Z M 19.5 2.5 " transform="matrix(0.5, 0, 0, 0.5, 0, 0)"/>
<path fill-rule="nonzero" fill="rgb(56.078434%, 24.705882%, 44.313726%)" fill-opacity="1" d="M 8.25 5.375 C 7.703125 5.375 7.175781 5.589844 6.789062 5.976562 C 6.402344 6.363281 6.1875 6.890625 6.1875 7.4375 L 7.5625 7.4375 L 7.5625 8.125 L 6.1875 8.125 L 6.1875 9.5 L 7.5625 9.5 L 7.5625 10.1875 L 6.3125 10.1875 C 6.601562 11.011719 7.378906 11.5625 8.25 11.5625 C 9.148438 11.5625 9.90625 10.988281 10.1875 10.1875 L 8.9375 10.1875 L 8.9375 9.5 L 10.3125 9.5 L 10.3125 8.125 L 8.9375 8.125 L 8.9375 7.4375 L 10.3125 7.4375 C 10.3125 6.890625 10.097656 6.363281 9.710938 5.976562 C 9.324219 5.589844 8.796875 5.375 8.25 5.375 M 4.882812 10.1875 C 5.15625 11.539062 6.210938 12.589844 7.5625 12.863281 L 7.5625 12.9375 L 6.875 13.625 L 9.625 13.625 L 8.9375 12.9375 L 8.9375 12.863281 C 10.289062 12.59375 11.34375 11.539062 11.617188 10.1875 L 10.902344 10.1875 C 10.597656 11.402344 9.503906 12.25 8.25 12.25 C 6.996094 12.25 5.902344 11.402344 5.59375 10.1875 Z M 4.882812 10.1875 "/>
</svg>
